<mxfile host="app.diagrams.net" modified="2021-06-24T07:53:30.264Z" agent="5.0 (X11; Linux x86_64) AppleWebKit/537.36 (KHTML, like Gecko) Chrome/78.0.3904.108 Safari/537.36" etag="w7T9Qz7bLOqToevpN64B" version="14.8.0" type="github">
  <diagram id="6I4VvECiQet8fbarx2q7" name="Page-1">
    <mxGraphModel dx="1622" dy="780" grid="1" gridSize="10" guides="1" tooltips="1" connect="1" arrows="1" fold="1" page="1" pageScale="1" pageWidth="827" pageHeight="1169" math="0" shadow="0">
      <root>
        <mxCell id="0" />
        <mxCell id="1" parent="0" />
        <mxCell id="0Tt-LIvOdCL9mjun2moo-1" value="块组描述符（32 Bytes）" style="rounded=0;whiteSpace=wrap;html=1;" vertex="1" parent="1">
          <mxGeometry x="120" y="160" width="400" height="80" as="geometry" />
        </mxCell>
        <mxCell id="0Tt-LIvOdCL9mjun2moo-2" value="块位图起始号（4B）" style="rounded=0;whiteSpace=wrap;html=1;" vertex="1" parent="1">
          <mxGeometry x="120" y="240" width="80" height="60" as="geometry" />
        </mxCell>
        <mxCell id="0Tt-LIvOdCL9mjun2moo-3" value="inode位图起始号（4B）" style="rounded=0;whiteSpace=wrap;html=1;" vertex="1" parent="1">
          <mxGeometry x="200" y="240" width="80" height="60" as="geometry" />
        </mxCell>
        <mxCell id="0Tt-LIvOdCL9mjun2moo-4" value="inode节点表起始号（4B）" style="rounded=0;whiteSpace=wrap;html=1;" vertex="1" parent="1">
          <mxGeometry x="280" y="240" width="80" height="60" as="geometry" />
        </mxCell>
        <mxCell id="0Tt-LIvOdCL9mjun2moo-5" value="空闲块数（4B）" style="rounded=0;whiteSpace=wrap;html=1;" vertex="1" parent="1">
          <mxGeometry x="360" y="240" width="80" height="60" as="geometry" />
        </mxCell>
        <mxCell id="0Tt-LIvOdCL9mjun2moo-6" value="空闲inode数（4B）" style="rounded=0;whiteSpace=wrap;html=1;" vertex="1" parent="1">
          <mxGeometry x="440" y="240" width="80" height="60" as="geometry" />
        </mxCell>
        <mxCell id="0Tt-LIvOdCL9mjun2moo-7" value="目录总数（2B）" style="rounded=0;whiteSpace=wrap;html=1;" vertex="1" parent="1">
          <mxGeometry x="120" y="300" width="40" height="60" as="geometry" />
        </mxCell>
        <mxCell id="0Tt-LIvOdCL9mjun2moo-8" value="填充（2B）" style="rounded=0;whiteSpace=wrap;html=1;" vertex="1" parent="1">
          <mxGeometry x="160" y="300" width="40" height="60" as="geometry" />
        </mxCell>
        <mxCell id="0Tt-LIvOdCL9mjun2moo-9" value="未用（12B）" style="rounded=0;whiteSpace=wrap;html=1;" vertex="1" parent="1">
          <mxGeometry x="200" y="300" width="320" height="60" as="geometry" />
        </mxCell>
        <mxCell id="0Tt-LIvOdCL9mjun2moo-11" value="" style="shape=image;verticalLabelPosition=bottom;labelBackgroundColor=#ffffff;verticalAlign=top;aspect=fixed;imageAspect=0;image=data:image/png,iVBORw0KGgoAAAANSUhEUgAAAs4AAAFuCAIAAAAeegkIAAAgAElEQVR4Aey9CZwkRZ3oH5F3ZdZ9d3V199wwDDfDfSzHACK3B5cKorggb98+Vt9DV5F10T8qos9dEV1FUAEPVO5bBv6cIucAwzjM3dM91V33mVl5RrxPVnd1V3dXZVf3zMAMG/2Zz1RmHL/4/b4RGfHLiMhMuHTpUkD+CAFCgBAgBAgBQoAQ2D0EqN0jlkglBAgBQoAQIAQIAULAJkBcDdIOCAFCgBAgBAgBQmA3EiCuxm6ES0QTAoQAIUAIEAKEAB0KheZFAcdOGvzEJ7KHHFM4+JjCgQuprWtd2lRBwpLM2Z8aOXgJGF3nUvDUuF12toeoscvs+VAJcldSN5fpv0gset/MwtoF27d9CrmfcdG7psk5CHSIamMvXlgYvnlErrk9W+np0ZSpfDw98k+Z7CWFwhkVveR2b98l9wBz03C6VrvsvEUNYBT/fWsmKvneZeAuk98QND+GnXO1qy9U/fLm7f8rX/hEofCJogwk77pdbcWuZdKlNLjbKqVLBT6IZNaqHVu+ogqPd+yd2jWAD0LRD0uZzHwNgaV1odcMNbKgOhC32gpxRVQPj6mI6mNBbjIJ9i4tHryykoiajMkUB71vvxAYKs2725m3Gm1VBgAaKy4aPLx3fJhCOl1NSxteDK8bHh+5KLG+9Mji0sWq34sok66MSGufiWzKdak/wyy5WurljHd/rOSajhnsE464nMcv1l5dbe2a0XHMtPelrE7KC1rlolzxKNXwYeVnMjsoBn4V9Q51SalD1ezlwVCl2VGOrrbxIfCKQvp8zXV7b88aBggWqMzhqkSHpAevRuEv9Xiqux3Q+1nWXI2ZH0OHXO3qi/L8cImbwoDSCzcOyXNREQfrlY8WS6coeHVy4C6h2ysBmqXrBuUXFvQ+M8M9dSh9frkcBO5EFFqaH/5GQX8ntuj73vGmD5F6WjZ3Zk0NYSoruB+JhJ/iqbGuj9ern8wVj63rbkClBfdjofDTwngUAMCtVc4rlA+v6yELW1zgW/2hTd2CnIcF7RrAPMSMZ5lnA5h/gXPPOa9m071dc+jUpumupT3vpj1CWe+LK20rvPha/KmSypXE7epEVhw6YsdpxxrFNcEXn+dVWl9wdO6ki7QX7u7ZMt+Ocl5qTOjT8UDNCxUVsF7d31c5/GOm9eve9WUAfdXjL0wv9GJg0bUiiwTTG7Nwe+vbSWaWcFE/UF/RC00/AwDARmkegklE7TLOI+z9Kau98rh+0UhmhRj7iatype75oY9aZDLFtm1kHobttVlGfPHrfG21x0HTMgX3cwJrAADmcklCSz5ZBn+LS/O9fNrq0z7w/SyrvQZOofNj6JSrbX1hAK05t2R0UHbomipc4+VHlLld6JRhROZ+/zG/XE505xsnKfkrq3D7lCZtHZNOXaJLd/eE11Po4MLoZ3eg2kD8rzSAVu2KHZkFYvjHfVIGmMvL2UtTo6g/8Uwju6Rkrx+plX3BOwKuFENRGJTnXBFzM6NtA5ibiPHU828A8ypunpnm3mzmZFejFnlt2fG55UtUrwsjjanlhR1vB9/8O+c+cuic41VYCDz6q3AONe74Lx48PAFKf+t78Hm+86Q4XnDO5hOXNScGMqGH7gwWG2dUtHjMMVrh2b6/vMEhCCAWsiMMc1nqsKOU7X8RTU5benxuvyWqV8RIo2t5V+qdwBvr+F2uRhc1QaWeTz63CQJGXfmZ4f1D9WSftb4MFpyQXeDF+o7g0w8ER20PA3MiMpVJeXhFdvuXZddP+qOvz7x5hVTkMIbD1tY3zDF2wnJh6bGsN05RAIjHuf/hOFuQ/ob88iN4wdXuZFnbqrAD+0D1jfpWmVt2PA22qW/9TofHu1eeSOUeVkpJPrmc4SlUXatteEyXzUk9QPdlPWQrA91M8hQ+sYwWeGCUrPyr6pZXLKNRZ0ycW3gKF07SLINNGSnD5shzajoDOir/kIktrd9k3/S6t+pVZDLbXeKWFtUcDiFSV+VyZ9S0KMIqzW2TAj+PejIA0Gr+pmH5hf7++7hGbqxevH34AE//dUEOAcBrlU81ZlAEyL7r82VbOiDaVM7MF06WtRCGOV5aHQo96mI6N9xx1RwEOkR1tAurFw4Nn6dhWy/o+vVA8jF2PC2jZG/M1AKWJSJMg5E7G/6C4Y5f0eNp8UU7CgYARKrlA2jvDa7J1uakIdKPLuTPripJCyis64VQ+B43pwPQUxy6qcR/d0H03XF0eEV221dV31f6gqmWwmeW1am+gGOl2BTU0v/MlA7VLIsRXgpG7/Zys9rbqSrnx9ApV+f6aoHR7rADXgCodYGefw1xaVy5ttStqxEtj3wtr4QsxAJw5ZaNV9qNh3sg2f87AbJ68WtDxXqk72avvTQJzeo1Q5mgL/mtIO/vnKudxq1hHSvFoZZb8888hlbtsoyyPhLWsyOxZjQ0qqtk6qne6JMuCC35dB2bqHZ61XjZzwr16krsviXqW2e3Q+b5SI+gD55R1p4L8RbWPpKr1EJ93/VzkxPkTZkOv10qzxiVa4azEXfPtyNitXMDgEbxm9uVt6KuhcXKUtOiKf7lYOQuLz9b651PA2gYhRZW8p8o1fbRLQFSo4L37lj4zcaQ3elycOgqsa18/ZW4a0Gxslw3JcCs94V/EZIKADg0Nge2c2zYDAA4flzq6INNoHLZHTR0mb6EHHwvjAAor/WljlD7ArVFiVBuGEKv3B/DwBI2vevgZ9iqlTf7NlimO1LvCbe2Cxw7sByQvU+sA0vOHFy5j86YTOGN2BubmaWL5RDlAseNHHOI0aJGLbQhtBvUcIQ3LZJGjL1yApEFgSAvWmRBzG58dszPsC9+XZk6sYkhsABoO5jBENuzEFrb9HR2vBDIQ6gjrU6xbmCVrErDHzOzeMxJoxZy8S2Whhn34a4lQ6amQ+8iLujXi3a5MHKW5E8b+Y2mdx/Gd4hrv7r1+lPWRLlzK4ulF35a6o8CfcTI5IC4iO05XXKB2lt/Q5hmFlzo6vUBs2BVaoDxUd5ldPYpW38H5THtepfLn5rPFzhrcgycRrbNKR4oZi5VuDsSsbcYIJjGAouxjXX+Q8pnUpkj2MBP+3xboXFULn2JDobHsmD146mRVbT/Z8n4JgotKWevSqXE3r57nKevHQQ6RDkoCYU/9C/5I0ZeOfu9UXvaYuLPdAW/mwwAgI5Kb78QRv5PVLLdRUjrADBK5sepsm/cXx/LAWVvz9UxaVIE1k4sa4Pe2NYJ78pJQ/O49I7PGdKve/rXsDAsF65Kp1iq/w6RGvV4NhSKx9Txu2JDEK4fVbM2BjwjE4oCAGaWBTrXl5Matju9qlD/U6z3Th7Gq7l/yqRopv82cXKevLXY8ePOVTlPhp3Jg8711UaxyaCOeAEABsONAgAt3P3lkPdEb5AwU899J23e1xd/ye5nYJ22K8jgAj+N1L+VTZ8u9D7GmqvS2eVc+PoArwPgkGtS0/ZHnSqlYy3P1kTN4zPZhe749SK4sKUZM7raT7kesK9B66B89gg2dLtUulTVOMBSCFOQqk+qR2dYGNc0AfB1XT7ccL3AKl8YHtnfQAYjvBII/bnhKE8mb3PUUfnWtNCUP5fKJsXYDRHR9vadGwBWzi3yP0gM/IABfiV/7UjqUnrgNomiHS/YeTQAYHsAo1/L6huCkZslrgqsAdXKjg03nS+HVrvaHGPlghxza6L/VhZKav5rw+nP8Av+0005NBvnWp6LXbarIXrsOcH6YOCFx70VA0DOYq3G1gTZvf69fPJAY2B5/fVhUVhUC9PAHPRunWUAgMV3Iy+9C9jlqYvOlCd6QUDpsV5LHxLV5ZlTl8BNT0Tpo7MDXqRkaCCZLgpDt2mrMeR/8VFfeUwNtBvUaFMBM4NQ4vjhjx6BhYDudQGsSNu2U5Rf99IAWHy+9b55ala4LjzwhfDUsOaZ5xDOQ+HsG4bavPDqa+pvrwHhj3n3PwBqa+tvT+zVoBoNyjKH/qzSF3iW9qP0Y/Xaccz++0FOHBeHC9ra29WyAfjDpCPOZMQVrOdpq9z0NeZQFgDsPnwiCtCwuvbPhoYBXIP2/zTvO5gVX9FkGvKSPc4UX1LWv4ksDGgR4sY0TkflG27Ifb2Jar7w0YoWBNmvYM9TAf8rnONY0jCLAhhAOsuyeRoAht3RROfwyyuVoy3+gd7Qm/aEB/NEJLBSzo5B4pXyKp2/dyD0RmMW4Y1Q9L764MdK8oNxt8OtpaPAjmU5aDgWhSBVo2CzfprJIV2w71GQDAGm6CLDTLgRlhD8Vr9/qh8LEMW0Tl3x9fIJpuseL9tsUMBBeVornyvTD/dHnuXsS7LsDd8rb72iovxWdGuM5wVX/sKqcqcoqQDw9dpKJP7RPSnWnqWYUVbjSfn29eWgxpjlGwLRB0UGA1DyRx6Qt11Slu8SPS1jTJNP89epKufHsHOusTLb11dTn5m/TnhbUk/2hi2BbQ8tii5QgLHbDJQZpjC1KWS8sdvqQ1enC7JUv0gXb+vzjTZEO+dqW9BEYKdK6XRVOjZRnCilLza9N8dddVBvtdplWgwtVACQlPzlNfaePt97tSqjWxIAJZe4FRVPr/i2+rg6QHG5cH4NURxyAWAaWhyrq0rMQ8H4/SwMKYXPp1Nu2H+bNEuv0kn5MavtOSFUv3Bk9GAu8q2ouzDBAoDODYB6OxB8u7EduCQGHxHLV1TkuySP2sUFa3eNLUXMcoi1fygrhqfnlqA0dmns4MdzOFwOEx1IJ+Eb/MFXWIgBqAmeV7niCapOuQWHZuNYy5OFdGEXAwCVWuMr9JeC+6TPX1jIbvFseN2/ZfyGhhpZ4y3tX/AvrfY8y7mXqjSmtr3jlie6tsmiujiCpuQG9Y20P6FR2eC773H7HgMMjaIYDAzKxFT2LX9hQTG4NHPe1YXsZu/GN/ybx+dvd6ka45pa/aekDkqMW4LSgaefnNLXCSFVAMDSmeJW97oXQltkQPkwZa+ZwHlt3uSZxIEUqOgjG+YAD1lgrIdBJgD25AoYc0Ls0WnEqjaalZ6yVMxIHtrFg/JYk5xjWa44TUMA+4RDrxEmqhG7KY4Csm6mXrMCR9GRszzBE6z8O/rw3/TKRKLOB4h2PRntfUlI3Vxl1wP5iiG5J5m8n3dukHCrP/pnLf2lbcp6r+9Jn3dNF95JwDA4mt/cXJLANL+NAfs1FAvouotxbWrMNzYCmE0CIyh6GDSnPdrp7ySwc1ntJO1UGKaY1NhqUUcx1qHlGu2OvdoyCDko79K0ONbPHdpyVlMghREjmB4ANEC/5hE/la0egKRXKbRfVWbF8KuT3AAAbcoCoGN9OajRKJzZKozvsgaAHuQZRjHCAAw1FZv5O7+q7ILhzKLmGeKId54yHbPRr0Wizw6lvlhg/pJIvDylshzzdYzsVCkda9kBL6sVryriRxPBzXaPOaVIDO0gCikXZ2rpUN9qFoYBxI2ZXMT6bo2ZV+aGfp6DGgA5Kfg3F7UYUxoAvIVowD8ai65uWDrqi/6uvu2LFeUuye3goTo00TGddGieMpo7R3f9NOEdce6cJo2gs5OPHcE0S4+33tkv2EkR3R0ZSR1s87tm3hc5XA5TZiLbFEOPcBOXHjQgoMfn0NskHQtyqOWOedpH2DWnbos8crtnwYHlZStq0X0L0WWVgb8kn37HvqtBWd97Q6Wj+uVFyzmhB2PFs2lzS9fWXmbHUAgBpICpU0AwvdF61I0hZ/T4DZT2FRDQBsMP/9K98KDy0hW12L6F6D7lgb/0rX5716sxpp8Q0EKxpqthWA03YkJzasv9i+y9Gi1/WGbqCHho3e8Hg7mWiG4OuX25sASU5/XSrG5nN+LsWfamgwzHD+xLuPE317Jw417b3Kyuf6XFizJxzV78wsUna6+sYxOHcbH9mOhxrsgh7Ibb5ZFW/99RYZ2VHoh4aW3okLr5AD/lRnlmPky77k8MPK3JJ5eK/7i9kPXHvx9uTGlOT4qnCrKd9Im/abv2mlQm4pvcJgNmHjkIdIiaKWf+IYyS+cmO8rRdpIoncWV8fAEFmrVTFPrFXnFGV9teQxsRFO/ui7zZQsSeSmnoWJU8b2YzxyjoNbF+lIzfjE3ZZ9qpLMf6aq9GJyKtNdgpTYvi40lmhrTmnZVha+KdPHbGu5PC22aHlhm2gAVQxLAgmOXmvq2EWQPHKqVTLXfGKy6uVJaY5sKhzRc0yrDHs8yW3+R9Ny2IvEfTuqWfkKsdyYa+4WMRwH7LxDTTeJ4HZtzhb7nDHLJoSNehfv72XFFkFQA4ikIUNb58YMuEeZam66YLgBntf4pZnZQfS+Sr5FZJ3ueZ8sfz8prolDY/RcqUE9zq142N27ix4ul8wU6R0fUJnu6qTeac2fhnhgAwvatsnRadlNX5qHMtt6zkds7eEsMAgNxhUy8Im18SNv81kjhl+6kHG70rZGmtv2bbyWx5Uzq4v9pzZIllQe1t78i8x0rEVCtgIGgUXveW9iucejGV2+aC+2UON/i37/Uo2FbDaKrRc9LQqYfqif1r7ncC1V2rxrjx9IY/LdnQAmLWQ1x1pQowGtH2Oa409Ji/8RAJFkIGLHD1WTpKSMVWsoxlbnuzZSxvFogs2+9nvRQNrO7bAexjg6KRVYBrgBEgwFVUH/N+516WkrJMTDExms3rI/mGKRAKfmArw1KSFyvDxrZhY/AJZskVUm+Iie9Djf4VjZncQXnjgJpREoQaABCjpCwfatBbJr3ppuXtf2GFd98fc68WR36ULh4eEJ+m7ekcC2DBLtO+mqCl9zVJFTlWs7SkBdY1OgCIjGQzqsBziqkuMcHG8TkPc7Fq6hzn7CY6CHSIam/KToRaQvDfB5wWUJKV8lLOe/vUfScOGqo8nwbVXot50tWuR6KkF9zwn6tyDMiHQPePxSmbCtqW1TSuTX05qNHIZS7QLCjYCygAWAOaabBcvimu7e/8qnJWhm3Lml/gLHjnJ7Qx4W53DjP7F6x/NJ1d4ore4FauyaTPEnofbJ0yhI0uZWYuJzWcK6VNLXfGC7cEe//35D4j9WPDmUAg+Us3m4fA5IVtKHNqTbyj3zdq38voByrmsIdvHVb0xuStpJRO0pnXIoIFgMbzI6hykIreHN8BjWO6qTNsdw8ct1F+jAQWQt+N+co6df1w5gpX3394Zt8zDoCV1CzoGm+9/bppNlpvZxpO0B3jmFEWHKNpHHDpU9M5XQ6du8qpMtqdtWs2u84uBkBzwenbDw1TcplVVCBFDQiAVmG1ZkPVt/o3lWr7B0yA+M1r7Xq3/xijZ185FtaDfZrdKwUrh59m5bL8jvWenG4k9qvFw3ogqdpR/soRH7UyaWF4nXvHVvaggyv9z/Y++kuPj6OLBYoL6LzGlRUIoDFw6vbDohNq6BQAanl3qOHJtjwz0o54hzDEr3/Ou+i8sndJ9uwvFuQqBQVTZKVnf9yzrbn5FR2QHfpn2XVLf/Stlr4a9nA9CWBu0NOlNqLlIQsdxLAHuA6P8qoF2Iz2+sPT1/RnZoNudvkX3b0FICVpCoDaGr3SyDTnsh40rA3a4CCzeAG7z1VMcsTSERQiND+kvPR7w3Kzy74ouFWklpEBKHcQAIzV0uSkWxvlHzQsbC0vjJ6jWY35L/kGRXg51HP31NFrpkUAoH0r5RAjbuQYDZj71g2O4scekbVYfpAqHl2qvhyW8lg/Kl9aAsDYVKHm8r7EpM7LlIYjnmFgHJ4v7IfHo3SX/wl++PxMPh3xbaLQokr2fJV7Kjm+8NlOATvMQaBDVCdpE+EQIzfCFMAuhFhAtXasE2laD2aZt8T1UyrG+mk7Nx2Vt3jffVLlqvRIKRz8q8AgZCbrSoz1PS6O3ZjBdR63nCpfZmmKJ/H3Vm+kQ1kO9TUrqGXF7Blc+EUO9FRz59aZFxMz52ZaYYD5VeUsDKeUMP3Eub4YbFclg23Pd6yfnA3vdPlTz8f7jVv7o2+29Bv2OinLjYLacWXlHT+vYMsF2VF7ZyhaVhj9hOm+pce7gZZ+Xh+6Jp3fkAyvb+btkGtqmTPOOlRKx6vSAa9Os6mJyW9syRC4aC7FNvRj3I97CsvrFGVo/chaVsqdaYq/8oy/5Y+2jB4ENWwmlconCxXk7bm/4RkjzvuYWLoinc5EQ6+yIC7nL1KY5xLT3xo5w6aOyo+l1Fm2ZHs/gZ+G6jdkRj/C9z7a2Mlk+3idL9jFpeypfPhvjdZ7Tp1+KSGq9prQrCueM7RzDoD8817htHzmKib8iMTVsRXWDV30rKcdL4fOXaVzaZ0a266ziwGYLg6KBZfq82tuChgyn3rP+9bzLbMjFr99M7NipYFGvJsn3lUlKAeemu2ZaE683neA3odpKe/O5ZUDTslNRnFGz/JSz760K+t+6fXwpn1GVp6XxquD20YoWjLdAc2nM2WFBpgqDop5cUINbsRWwz3pz+06NbKDrT3prDUwmUDdGnnsT9whR5WTPYboxXqNS22Syk2fbCzdzE3mMHAY64Jo9HWz7QCjramv8wsLD2bEGM2oSN46OZBPljzjSF+rDplMzxKa1lFxjbrh+bHHT+ZVFrKGf1vTjhV6VzDuBONC2CiY6fcQAgCrVnGTxSUpV5wREdazZnaNtnX9pMXtlYfCPf2L7kVWojx6re7/ckya7WGwpnlW/cxCMW4iHlA5XrynJ7xmrPek3L+P+f8xl/v3bRmL5l8PRH6LR04ay0SJdyViKFv4l8GcQLFv+cP3iKPHj0VB/v5EQsvlPz1ciiBYEMTHErGHpk4DNAtu+XUQ6BDVImDaITTL127PHmjhsYvlgu2bPwlgTYp8NeFzvpWfJqf1VJLLRyPpNs/YrVVLjJOGzIvxpFrMn51LnWciQNFpXnw6NLnMYQiel5jyeSp7b0RoTgzZkjuWZU9JdKqvzpVi9+Li3VHXktzwJzULMcKLscTsbuj8qrIFTPeHDvVVMMtfGsofYFl8w8noHdp0NqTKUuS6Hm8BOOFl5fQtozXB9k7wiuEtp0KwNdh3Q8B+VLv5N948mqfjv4j1/zxmfrYw+t0ioiDz11jfT920W85dXcTP9EZet5sU/VY49tRQ6uqs67qYNLaPqm2uyYt2Whljpw6V0qmW28qZPZB+I5K4PZc9Z3ToMwgWeemPichzzTUJQcl9M10TAVXkXK+Gkvf67A2kjT/muXgvyOfOHh26BIEq53o2lvhzyzPeHYvtSnmY8sd+U9/++dHCxmRoE+p4wTbWjdlnAq7FueGLG633r9HEnc4PTzU066IBzLQADgd6vgdznyynr88jCOk8L/3e5bHTOVwODl3lzBKmhsyj2czFLjjrR+ShVDv2kpElXnrrwwPPvjfhXEzVsuszyisfcFJ+v8Ua3xhEkMZteiL50obZxe5aNbrWd89LKJ3gXnkSbb2tvHSf0dJV7XmKAuCupG5U/V+Kiq1D156oKNGJECAECIHZCNjv1Rgsb5zL+15nE/nfJ77pTra1WKoe/4lCj08XOaBtD67ZOLtD0FZMayCqSG89IL3DmW4PoixKrjCzj5e7QY1Wlcjx7iJQ8yb+2bu7hBO5hAAhQAgQAnsJASdXA0LEew0BMrm/+1992j/x1oadNw3pTKXr2ePdp8bOG0IkEAKEACFACBAChIAzgdkXUJzzk1hCgBAgBAgBQuDDT4AsoOxEHRNXYyfgkayEACFACBAChAAhMBuB5vNRs6Uj8YQAIUAIEAKEACFACMyDAHE15gGNZCEECAFCgBAgBAiBbgkQV6NbUiQdIUAIEAKEACFACMyDwK50NbBXV44v5C4rVPv38Bc+dAEKIjPW+hpxrJ2UL60wZ3kRzlTBeGF+6Dt5dRc8IzxVLjkjBAgBQoAQIAT2HgITD7ti/aR0ehWW7o4G102MjdiKG7hovyi64x+n184p1XoR0CElM+woba3I5dyceKt74gtyHfPSyIoYep+mLqvX91dUnvffFmspvWO+9yOCqee+naF+tCD67tirRbF+cKlo8e517hmvaJxQB2un5GuU5HvaxTReVQ5TPGvoXX0JiTX1BGaGWar5jvMJoeSAECAECAFCgBDYqwnQoVCoYQCkt4kuzVA9rKDotaNl+dhK5dha5dxc7kyde97NdfI2LJpbJ7oGeX6EpS2MPKaRpH0/DbX59O0EJ0ktXTmaOb9SW6EZIqBzvPiqV7TqleWA3eASh+2X/M/8w8F65ePZ9L+kSx7R9/bkZ3xnppwMgUg9PTP6v9KZTxdKJyiGxbu2dpcRALykUvZ4I4+MvdQUAG+tcBYM/EdQ6MTBLhUyJSxfnNe3ecUSNpYqysGyfKiiHKSoNC9ua2/XuLYM0g8tZi/UuFfG3ZRJK8gRIUAIEAKEACGwNxOYcDXskZIeEsVBuvEZe4p/zet70c3GqtpgOPTaLCO01a9qQUwVOX4HqkdcweebH61pi8ZghFe8vtVe78uS+J7AZRiwrJDf1xX9vxHv1vbjMTooO/Rvea0i8lg1s17/TFeDU3LXFdEbEjf50RRgHTs6/FlN+HMs+gefVFcLny7qKa97uJs1I6Ssqgv3BoSxr6UCrJ2RV9+IBDcDY7msxCGbaa8nUDnpaZ/Y+EgY9psIY8Mrxm6OuLOWtsiCBbrjDIdFsVtc8IjRokfy7oq3srYFTwIJAUKAECAECIH3n8Ckq4FDqhqDTImCiGLyDK1DAFH9RM31e7/QMn5PURFiJCEraCLG/sa32aOphyhqQq8fWS6eXVZowb15Fh8FJ+TqsbU69IQeFNm2XyNrlAcLvPhSIPi0gFaW6tV2rgajlj9dZ/7ibToHAECjcnlWe72n9z6RrUD9hGItaekhxvOsMLE+NMWWiRNJk08sy34GLC1kryrIQJDK9cKJiHbVlQM0Q9KrV+S0IZ97pO3ky5i62AobZtA0k2r9IFXvU5X95cqFuVJE8L7JdszG1cuf0JBgUmuljnNIE0qSA0KAECAECAFCYC8hwACXLh9XU5apeq9Wj/2KwXkAACAASURBVAixL/d4qqa6v8XsANrKcnkR9neaBYCWcm62tBxRGY4f4liolI7j4t/oDSGk7Wsw6/nZ92oAAAugfpbCfzPYqZBxjAbDjQIArZnfTe3ImdHVfsr1gP0lT+ugfPYINnS7VLpU1TjAOi2CAKBb8hk6f1PAm/ZJyvCo35APpQI/jo7Pl7CycbolTnyveax4iK1kXT6iWjlRNt+N9t3NKkfKBkPz7/hDWZNZK7H+ck6VvA84fQMQHVCtb/H3PqFlzq6Ld3fz0cKOppMIQoAQIAQIAUJgzyHAgDor/F1iXw2wPbkdK93uCgAQq+eP1t/2ezZ741/n2VoHbTEt3h8Xn1ZrB1jcGomjQOVEHbMAeKr5L1b4/+oNvTuL/2DL1Tg+DWH3D6xMmxOAZvkr2/OLAQAYCVj5/pY8BmAwmLzRz7lMi6HtbxBLSv7yGntPn++9WpXRLQkAZ1fD5PkRii5SyIuoKs2WRPezwIxaeKSxaEJhXGXZ8YWVJhmIjIRFvRWKl6xUhKGqvOcRVj1nJLeS80fSmUBf8glf5K5m4ra/0Kh8RJP+GGU2ip5Vo8VFidCWaaa2zUYCCQFCgBAgBAiBPZ0AY2/RGOZpANAKxG7g7fENYlx3+R72dfXtb5kGi3K5EJt4jKJqSL4gW6vywa/3CdUuLacpGeJ5f2QcM55b+yUGAF7O3FgVbox7SwCYFI0AwBACgCmkXJyppUN9q1kYti2b/WlVTDEVo/zprFJzuWUMihBiS/78sPxKsvdJFnhNq8Qy03wjRAt/8wAA9P2Aa63NEO1bVaqhnoc55RpWXMuC2Uo1j85XCsHejRBg2n2fmLoqX/9O2FXvkiFJRggQAoQAIUAI7LkEJiYesN6L2REIWIRYjND0DYxmwmg/XFqs+85k4hlouCBV4/33S2CJosa7fmQTgzlMabTDSFUYpsAwBQoCSBcbxxXKdphUmtYt/YRc5kg2dLuPRQD7LRPTjNxOytQwOi9I90ajf/AwLIIIAsT6fxbzDtmscMiwikyHtSFs+SGTA1ZCx1tFnjZNd70ep/DSUuGy0dT1w6NnqdNclLFicbyc/QgVumv88WCY8ofWK6P/q6S5pqpFzggBQoAQIAQIgb2QQPO9GtBU9zFMtZA7VPA/ygBm6t0/tJQTa8LvA9zMoRIi/ahSxScGVwPMAlwVw7/Ama8ODa8Lhh72uAqzrQJAhHgMmlrsSoAmL2xDmVNr4h39vlHbSdAPVMxhD99582mzdMiUcfmEkunXjcUWfKARnBM9OfvAWqDDjK+9VRDpPXr9/LQ55KIjqsFCeKAqF93RERf7jsdfpNu+MwMH5dxn69J/xaTJeSAoPBCWvpMa/pYauiPse3eWrbVNtckvIUAIEAKEACGwJxJozmr01KrLtHpM8D8oMTorVJTSyao17gFgc/9i6bRqLTl9XgMtLaZuGhzdRwg8IVA0QkLDQSlJ0Zsirng5e+2O0Y/X9M635shrYdo0ohjvvKuheXou7/UVWxBjxv24h7FoijK0fk1ZlUmfaYpPediZ3lJLprFD+j2P52VP8LcBQWP54YZfAa36aYXyylrpGFNYz87I0QiIVqv7GmbVF3rEF7wjFrstwGPa93sP2K8qL7RAu3KtJZXiKsP907h3x1TvRRZDv/Bzvlr2um3brs9UFrbL3F4JEkoIEAKEACFACOxZBJofkY+X0+fC4G1edmzpIyjnLy/UFpoYQUBjrDHcJinw+6BYmKo9tLSDdOodFz1QLpxWrSWk3m8GuhnLx6SghcXRfykogrvnf8Qk58kGVk7fMloTAGYQBpAyIdga7Luh3SxLq4IQaSflsufU1AiCRV56NBJ5TOiw9tGabfIYSwjIjeUYAICnNvr9ETkV6fu2v83sDgC4vzjyMSp8i48z7Ydl6p/MVEfCkedZ6FGy/zairI8nfylNLR0jEVDKVCdjsvDGphk4lz2zrXnJMSFACBAChAAhsGcQaLoaO6kNRMpnh7JWtP83rs4jZ5syzGMzOY8v9nhjO2qb+D0qCOuH1qzNHld5Nq0krbpKRut9vvfGX+GB45X0Zab/5qDQ9SaW2cog8YQAIUAIEAKEwN5BYBe5GgDYkx8AQjKUAoACJigxHV8Munc0DKIlIUAIEAKEACGwawjs/C6Jph6W/XAp+QMAUMVdR5UAJQQIAUKAECAE9nICzW2he7kZRH1CgBAgBAgBQoAQ2DMJEFdjz6wXohUhQAgQAoQAIfAhIUBcjQ9JRRIzCAFCgBAgBAiBPZMAcTX2zHohWhEChAAhQAgQAh8SAsTV+JBUJDGDECAECAFCgBDYMwnsSlcDe3Xl+ELuskK1f+9/uyVEZsxqeT0q1k7Kl1aYLSFdVyiNzGCrqM4Zo3LxI7LBdU5AYggBQoAQIAQIgb2NwMRjmVg/KZ1ehaW7o8F14y+eAgBbcQMXOcbhq+ucXjunVOtFQIeUzLCjtLUil3Nz4q3jHw9zAkIjK2LofZq6rF7fX1F53n9brKV0p6y7PY6p576doX60IPru2DO8WD+4VLR49zo309ndME7MVyiGYTCSEKIBxACzCLlN7VDZ3BhO3OLjnF+KKqP6hSX8thRM7Xb7SAGEACFACBAChMD7Q2DC1YDcM9GYXqxELBTR5QM1o0c3PMhcJtd5Kf7VuLvSQR+dc/8p4oobps804rrhNxGSQnc7+hmSWro8V+kFdJrjt/DCVt79sFvKjwyfhS2fhQHd9v0cOFivfLRYOkXBq5MDdwlt00xXESL1tGzuzJoawlRWcD8SCT/Fd/lmLbywbr4djq9rluOVawl35AYnPwO45eIqU/xPL7usKqe9obeabP21rMC4X+Vnn0HSaCbP8ZnpdpBzQoAQIAQIAUJg7yXQHA5tCyjuxVAYAMCa3DDkX/FxVVC/dHvW8oud/Iym3Sio635A5QRxSFV7BXepGdH2Vxb8tyT9LVHWAflswtN7rZdXWkJbDtFB2aFrqnCNlx9R1JbwyUNOyf1rTfhh1D35fVRgHZNOXaJLd/eE11Po4MLoZ3eg2kD8rxNzNpO5Zxwh5RDgv9PTnMDA2slVeH/UXUPGckWleWktO9NvwD0aftEvZVgwoKdOqfve9ox/8aTkjtzinlHEZIAVMWCepcYWnWr0eC6xlrlGlW4NS84wJ8WQI0KAECAECAFCYE8kMOlq4JCqelhhGw0Nhn+vEQ4tI8AHbhdmDqvjpkCMRITcFtJpyjLNAUXtqxtxmP5qyQhg9ulo/IlZPm6CE3L1QM2seqK3cx1LAYBaF+j51xCXxpVrS+1dDWgZCwx20hoAoFFdJVNP9UafdEFoyafr2ES106vGy3628wqIbZekycdUZZ5hz0ptP8ZgHonFX9VLixnaX8guoumyJX88o/zngtjr0/WFG4OxjbYA049orBauUEy/iWja9WDEcVUIa+cP50d7+x5s7NEwqPF5F4StpXVdBMTV2BOvG6ITIUAIEAKEQNcEGODS5eNqyjJV79XqESH25R5P1VT3t5gdQFtZLi/C/ulDalM2tJRzs6XliMpw/BDHQqV0HBf/Rm8IIW1fg1nPT/2KaTPX1F9YAPWzFP6bwU6FjCc3GG7U/lwqniVdi3RGV/sp1wP2Uot1UD57BBu6XSpdqmocYB22ngAAdEs+Q+dvCnjTPkkZHvUb8qFU4MdRTm8IZ2XjdEtc76AH0uJc+NaQS4fQ2adpKosZWtjc+DA9jQFlaQdX6wnDDKr6Vk94pJmI/BIChAAhQAgQAnsnAQbUWeHvEvtqgO3J7VjptvdkQKyeP1p/2+/Z7I1/nWdrHSzDtHh/XHxarR1gcWskjgKVE3XMAuCp5r9Y4f+rN/Suw3jclKlxfHou30lv7p0Yzw/N8le25xcDADASsPL9LXkMwGAweaOfc5kWQwsVACQlf3mNvafP916tyuiWBICzq2Hy/AhFFynkRVSVZkui+1lgRi080thEQmFcZdn2Uyu2Uri/XBaFGMAoZJgB04zrBs+KL0hcpywupXagqcZ3DBsUXQCGSPMGJ/7/bsZfQgeIs0zANCmSX0KAECAECAFCYI8lwAAA6WGeBgCtQOyGxnoHxLju8j3sE80u1JZpsCiXC7GJxyiqhuQLsrUqH/x6n9CyZ8JRCk3JEHdTUFspmPHc2i8xAPBy5saqcGPcWwLApGgEALY//4YppFycqaVDfatZGAYQ49knGjDFVIzyp7NKzeWWMShCiC3588PyK8neJ1ngNa0Sy3R+mNdYUTdjWuE8g80wTIWmiiw6Z3TogOjCH3na70hVec99AXGzx72JgYyS/aIhreXtPSJyILKjrc0kkBAgBAgBQoAQ2JsITOxuwHovZl+GgEWIwgjR08ZFM2HQKXbanIJtqMW670y6PYbhglSN99/PFq+sqGslodrN7ksAMIAIzD78d0ZKVRh78oSnIIB0kWGKzaQqTeuWfkKudiQb+oaPRQD7LRPTjNxM0PmXzgvS6oivCPTzSxBBgFj/z2J0xC4HhwyrKDqsDXGPJfofaxWNwRG0MOSaxrMlBcUMubhtzDjbphOD98uPHMdFfuFhmyEtWcghIUAIEAKEACGw1xBouhrQVPcxTLWQO1TwP8oAZurdP7SUE2vC7wPczGEPIv2oUsUnBlcDzAJcFcO/wJmvDg2vC4Ye9rgKbZyTKWwgQjwGTS2mRO3kickL21Dm1Jp4R79v1HYS9AMVc9jDO7/Zwi4UMmVcPqFk+nVjsQUfaOiREz05+8BaoMOMr41VXrW2UjMbm2Qtl71V1gyYCHO+O8IgyIiPO1iI6uePaA8tiL49RSosUNY+mgU9jU0cO8mCZCcECAFCgBAgBD4wAs0hsKdWXaah0WDvLyUGIaGilE5WuWcE2l7awOb+xdJpivsFf3D7lOEQLS2O/mPJfDfW+2uB4qtIaDgoJSl6E8hfUcheW+Fe9QcfdXP19uYhrwUV04hipqlF+3TdhGqenss9UxJixv24p7C8TlGG1o+sZaXcmab4q64mCej3PB6NcxVQ+VoDDDdMhlb91LJe4IxjTOF37Ub/Ci8MYgMx7CjD1Fso8XK6h3Vnp6g25QRalovnB+35JDNmWEGtdmIJBxHmVTTiJlMaU1iRE0KAECAECIG9kABcunSprXa8nD4XBm/zslbDiKCcv7xQW2hiBAGNscZwm6TA74NiYaqJ0NIO0ql3XPRAuXBatZaQer8Z6H50RAuLo/9SUAR3z/+ISc6TDaycvmW0JgDMIAwgZUKwNdh3Q7tZllYFIdJOymXPqakRBIu89Ggk8pjgsPbRmnXsGEsIyNS44+CpjX5/RE5F+r7tbzO7MzMzZcpnl5QFimwG+291d1pAwf2Foe8UzCpNFTlhk8Bv4/lB+4ke2lXOfISP/L67l5XNLJ2EEAKEACFACBACewaBpquxk9pApHx2KGtF+3/jarmjn12oeWwm5/HFHp/l9RuzC3o/UmD90Jq12eMqd11YopS60vD934jTuzE4vfYPGv2m25WbSo4yjQDN5qcGdl0ySUgIEAKEACFACOwhBHaRqwGAPfkBIBybFNlDjCNqEAKEACFACBAChMAHTWDnd0k0LbDsh0vJHyFACBAChAAhQAgQAq0EunjLVmtyckwIEAKEACFACBAChMBcCBBXYy60SFpCgBAgBAgBQoAQmCMB4mrMERhJTggQAoQAIUAIEAJzIUBcjbnQImkJAUKAECAECAFCYI4EiKsxR2AkOSFACBAChAAhQAjMhQBxNeZCi6QlBAgBQoAQIAQIgTkS2GNcDWgU/33T4AXaznx6bY62763JrVU7Nv1XRtl1zynvLSDwwsLQbVtSJzu/WXYPtWbnlMfaBYObbizoe8z1uodSJmoRAoTAHklgyniF9skNX1fU18QX/cAz3qdBpJ6WzZ1ZU0OYygruRyLhp/jxd2zzevWTueKxdd0NqLTgfiwUflqYfP22W6ucVygfXtdDFra4wLf6Q5t223s3oFm6blB+YUHvM919TnanawIvLAx/VXF/uzcwNN0otDQ//I2C/k5s0fe93YwLOFivfLRYOkXBq5MDd+3ka8hx/dLB4Y82RmIEqQrLv+MJ/i4gzvrRuy6AzM0uh2bTqSxGyfwkpf95QfLJRpvktcLXh0tyuO9m3/jL8gGAKs2OcnS1lessJuN4KfXNivDDZGhDa65OSuzG8HbK78bi2oieR6XYHx/s3APMLwqAWdt8m8a2c73NTIF4aW7w34vGRKOwuOA3+kNbpl/ObTDu0iDsr1fOK9r9pB9TeUF6LBx+vPHxhEB5x39mlGlfWzJdkS8l/ZmuNJhpcqdseHl22zdKVirY95UQbwFAa/nvDBX6KN+NC6PvgC67FHRIevBqFP5Sj6faqRwS/t+aQIur4VZyV9bgYEsIANYx6dQlunR3T3g9hQ4ujH52B6oNxP9KA2jVrtiRWSCGf9wnZYC5vJy9NDWK+hPPNLJLSvb6kVrZF7wj4EoxFIVBeXdew5RhRN7H2RBKL11WRM/3+mf4GUBS8ldW4fYpDB3aFzooO3RNFa7x8iOK6pBuLlFwXTj5czdNISteL30mN/IFZuAmL7OTeOZoV8dm06Uh0JIvGyl4PT0tfoaddcQXv843U4aDyXDUF366Mvy5ovvrjW50Zub3LaSD8u9b+fOrFIdc84uavc3PbGw72dvMFAgA8JmW7I7+fyHX2AuOMaTTu7OPal/NWDs9V4q5/LcHhDw09y9mL0llygM9L9Gg4on+qwtPaoTN49OpI3m+1F7Q9NC2Jk9PNHkOawwVluVEiB8CICYrUZpp8Rgcrq9xEdCST5bB3+JSS65J6eSIEAATn2+HZu3yTH1tJIwyI6EmGGhUV8nUU73RJ10QWvLpOjZR7fSq8bKfFerVldh9S9S3zr4amOcjPYI+eEZZey7EW1j7SK5SC/V918/N8T3l0KWW/memdKhmWYzwUjB6t5fTAIiVhm8qC9/uD28cv/LsO5Lr696v9gWN8sjX8krIQiwAV27ZeKV9F8Y9kOz/3dj0ANKPLuTPripJCyis64VQ+B43pzesg0hdlcudUdOiCKs0t00K/Dzq6e52Ae9bLi/k/bfOmIGAVu2yjLI+EtazI7EmQ8dfal2g519DXBpXri3N09VgjMo1w9mIu+fbEXHsOtdpNs3SGLApPrCwUjtWNynAzLEipmg9V7scmk1XHg/WV42mj6KD345IlTFFsHrh0PB5WqPnha5fDyQfm3q752Qy5J/yCR/Nlw4OxF6fuIedYt/ME7Swkv9EqbaPbgmQGhW8d8fCbzbcR9pUzswXTpa1EIY5XlodCj3qYhAA0Ch+c7vyVtS1sFhZalo0xb8cjNzl5TX7w8iOynduorxW+VSueJRqCJB91+fLTg47MxWePWR+leKQC3TuHByiMJilzbdtbDvT27QVCIAVsEDW5drOdfXpxAm+O9FvTMhoOYDCH/oGmuf8YNhYOVjYT8MvidCi2GGuGQMAq1YOM/i/9LjGuq/JiHZHHUxul7QZRnOujap8sBEcYo1DFH2j4Bpo6ZCcrq+GhEi1fADtvcE1eYHtYlBNPcnvXktg/P7bODGTTbrj/ybiT7WYwuhqP+V6wB5TrYPy2SPY0O1S6VJV4wBLIUxBquXr8HSGhXFNEwBf1+XDDdcLrPKF4ZH9DWQwwiuB0J+bY3yL+JmH+qpC/U+x3jt5GK/m/imTopn+20Qq4/GuzedPrAc3io2mjLXDZXOr15MCgPJEb5AwU899J23e1xd/yV5AgXV6rFc2j0vv+Jwh/bqnfw0Lw3LhqnSKpfrvsIXggWLmUoW7IxF7iwGCaSywmOJMddqGYPWImrklMPO78ObxmexCd/x6EVzY1YhqSzcYbhQAaOHJa7RtoR0CoSl/LpVNirEbmn5GS0IcVGqHGMxaca4OX4sM+3DOdjk0G3voneUP7Zsf/bTu+mVfcHI2Gwp/6F/yR4y8cvZ7ow47NdqbXJTcG7L5I+r4damr4TpaHv1aVt8QjNwscVVgDahWdmxhDqsfT42sov0/S8Y3UWhJOXtVKiX29t0z5nRi5dwi/4PEwA8Y4Ffy146kLqUHbpMo7KR85yaKlM+kMkewgZ/2+bZC46hc+hIdDM+Czil6fpXikAt17hwcorRZ2nz7xrYTvU17gQBbARP3lFK3lBAFmR2i54GQ/21m1uaxE/2GU+WMx1HIcgO62mYV2FpZrHik6LNTPewOIjuY3CF1Ixgz0PWmkF8pm4+6lUM14dUQXNrSuTeztr++ANZOLGuD3tjWSX67F1RTH/K7FxGwXQ3cW0pfYPluCrlUoLTq7jIthhYqwF4XuLzG3tPne69WZXRLAqDkErei4ukV31YfVwcoLhfOryGKQy4ATEOLY3VViXkoGL+fhSGl8Pl0yg377W63VXq74w2B6IOiPdtf8kcekLddUpbvEj112v20O3dVWfmd6K7ZS4nyYabwhIfFAFgUXaAAQ0EEoMwwhZarlNbK58r0w/2RZzn7Cih7w/fKW6+oKL8V3RoAFMAA0lmWzdMAMOyOdsq0DaNMdYnFrpv+MXqcKKUvNr03x111UJ+84tqKaBc41yz2nTSqXzgyejAX+VbUXZiUiQ/MbP1NBkCAKcg/F0ncOeafTSaY09F87HJoNrO6Gv5a5pySsT6SeH7GIhSCVM2u6Jl/s5iMaWEDh45UdVqyl6Jn+cPaP5QVw9NzS1Aa62x38OM5eKW8SufvHQi90ejx3whF76sPfqwkPxi3WxQA1NuB4NhwVRKDj4jlKyryXZJnTEhb5R2aKFAqR1v8A72hN+1bW+aJSGClnBVnUd0pen6V4pDL7Nw5OES1NoAZbb5jY6vPs7fpKBBA/tF44u+YztNQMOqrcrn/s8P8Xl9k7Wwu/7z7Dae6GY8zjy5Uwrz/xRmfuab0ypky/Wyym+WJzibPogH1jlv4WE3uh/KA4L6NVi6eTD/L9cXXyyeYrnu8doc88bc7QU0UQg72IgIM4LTiF4vg4d6A7ZO2NhYAsP0FNUwh5eJMLR3qW83CMIAY24kQ67s1Zl6ZG/p5DmoA5KTg31zUYkxpAPAWogH/aCy6ujFajPqiv6tv+2JFuUtyt3GUp7Bitk4O4fQgzzCKEQZgCFBvez1Kqnyk6V7N4H65FhD8r8wYiqZIAsClaXGsnzu05axmBIURI5geADQAt/qjf9bSX9qmrPf6nvR513Czu0FjYijDCAMmzU7pJ1mteFURP5oIbp7BsFn4Lv7VoXnKaO4c3fXThHdkii7wvWDyNjcFMYqo5QuzO/4JJH80tRfoXpX52eXQbGYpGmtnFPHfBWpFubTUE+56I+dsJkM2zYCgYVKgC1cDGEkdbPO7WuaPx7UO6LqLcW2abHjMJoERFD0MQMNVpbOTt8UwzdLN1tvRaIcmyhgGR/Obm3exmOa3MWC/jpJmj5hfpTjkml+Ug6IOjW1+vY3peFXWePGdMW1Y7hc9uHcwf5ocWtvcDt9Bz/n3Gx0ETgRbK3Ijn6/zdyf9M+au0AGlUq8Q+I8ZK7YTmScOHBhOpOl0UJbc2/KVTyFjuydamnLP6Xx9WYeWa7Q79mrLbR7YiQ62k3okfC8nwOCllfIi0xrYvvmihin2t+DTW36T9313ILKRpnVLPyFXO5INfcPHIoD9lolpRrZTwow7/C13mEMWDek61M/fniuKrAIAR1GIosbnnBsp8yxN100XALO5Gm1gjjk/hsv3LDt0YlV/xo8Pl611AXe5TdopQXZGKN7dF3mzZSTGFD22UIJp1/2Jgac1+eRS8R+3F7L++PfD43sdpkiZcQIx4gGltsgEAC+uVJaY5sKhzRc00tsMMzbDmxZE1k5JOUPcfAN8ldwqyfs8U/54Xl4TnXK7ozFsiqMxAMM8b2rbri3XYt7A6HwKmqddqlOzcdQD0q9EEv/lUr8wNPKPBekbYVeXDWY2k6FGQRa3bLJz1MKe6JvudU9mmFmfzRA86YQAYFdAZyFj4hyaaMROAcca/1hiq1nM2Olc/59fpTjkQp1r2SGqs9rOjW0evQ2Odn1VYoYbonDSsiCY5ZZj3v1GZ8MBwOZhudTVNfpPvfGnGlOwrYmhWT2rCl6Ne3Otoe2PnRm2zzMRihjpNS57mSrcGWfQVEfb4fqCZu0UhX6xV5x2qe4WUBO6koO9jwADNwWT/9vX7NOw+okdGU+g7w43k4fA5IVtKHNqTbyj32ePVVg/UDGHPXzrarlO2d6spJRO0pnXIoIFgMbzI6hykIreHN8lhGO6qTNsw0FxJmQu0CwojD0uYQ1opsFy+fEc3HNe/uxKrV8Eh5quB6SxnrwpDdpjw5T5OwBUnk+Daq/FPOnq1EnDCu++P+ZeLY78KF08PCA+PcUxbwqf+oshpQODbwJrRMItwd5JhkD92HAmEEj+0s3mO5U8VeY8zrAQ+m7MV9ap64czV7j6/sNjb06c+TdW/ny1mKdd3TSbmao2QpjNAo1o6bcRz40jmU9Kfb9p2WjWIcv04HYmYwFhnZ4yck/PNnnOjLLgGE3jwPQteAWeU0x1iQk2jk82mItVU+e45hhgJTULusZbb79umpOtd1J665FDEy1yrGZpSQusa/gvEBlJszXrnI/nVykOuXDnzsEhqrPeXTW2ufQ2XQkc0wdaegJROWZqr9JR1/n0Gx2FYf3k0dSndeGOZOz5qXOljSx4cam0L+O9XpzFB2oknoPJ7fRhXg6GRZ17mQVgqqvRmnja9ZWslJdy3tvbz7jsUlCtSpDjvY8ABTSaTXFc8x8jQ6AybIqlNQAw437cw1g0RRlav6asyqTPNMWnPOzYqEZbRtIwI7p6SCnz9dEK8kbubwzqiPM+JqJT0umPKnrE0A8opS9SmOd8rtZl2k6glhWzZ9QNn2XsW8qeW2de9E06y3mP7x2zdlax5hO9a6YuqSKWGwXqcWWlx7J8ph63bEfA4n33Sfjk9Mj5NTVumlFdB3um5AAAIABJREFUPbRcOEMZuzlE+1aKxypa1LR8prZf3eAoptjdgIwYJg/MqDHF19BbGbKszZDmxhg2LUUHZAd/sS1zSFuPoJmo+1+dZUsQGHzgpyFuRWb0I/qkPpxlxAwjrmv7V7IXVdGgW2p9siZQTv1887bPKpPpHQqdn13OzcahuImoqhS+3YNPzeRXtOCCGLkRpgB2IfuBo9Y/Z5MBNmImyLHdPYYD+ee9grucuaooL9aNhKYeWK3u29jiobv8T/Da+Zn8obrpNfWDC5nzVe4p//iWDgDA4lL21GbrPadOv+QTJ3rstso7NFHN5X2JUc/LlPYzLK+hnpwt7DejxuZUlV1USpsm6pBrflGttTbt2LmxzaO3cRAIzdrHc6UjFXWBpu0jl76Qyi/mfI9LU7uVafrZp7P3G3OqFGjVP7Zj+HMq+2DYv8PSFqmq/U83m7uD7HcKnFUx1/l929r0Tm3qy8HkNtbMCCqJ/nv9YsvGr/EUHa8vXD+lYqz3ekami5od1PQc5PxDTqB1zreNqfQbkcTtuew5o0OfQbDIS39MRJ5rZhGU3DfTNRFQRc71aih5r8/eQNr4Y56L94J87uzRoUsQqHKuZ2OJP3dzewrFu6OuJbnhT2oWYoQXY4m7W7Y0Ylpa7c59pQyemTFZh1j/z2PmZwuj3y3a+8n/Guv7qZvGgHkxnlSL+bNzqfNMBCg6zYtPh5q3tlb9zEIxbtqrITlevKcnPM19aQOjEYRYYQtdWKpOzL50SjgzHM+cNGHl9C2jNQFgBuMVw1tOhWBrsO+GQPcP4MGUP/ab+vbPjxY2JkONh4HxfrmhH+XsXa8Ky78V6Lkr0PoECk5qmgRd77a/C5mpczchM+1yajbdSASAXhOOvDA08oWc9PWoqJjla7dnD7TGC7pg++ZPAliTIl9N+BqTXs4mA2ipy3Rqi9AlVTgc6PkezH2ynL4+jyCk87z0e5fHVhvy9ycSWi7/6eFSBMGCID6WiD00SZJ9JuBanBu+uNF6/xq1N+RiAKCT8p2bKCXelYihbOFfBnMCxb7lD98jjh4/hd1cq7KbSplTVToIdIgC82vzu7i3oWjDKF6YzoctjCh2sxT6Xtjf1TsGZ+k35lYptFY9vW4xQLkopYytX9v3SC0vE+stlw6Fnh94Or0XZ2Z9TWkiu+ik4/UlyeWjkXRbW/VmAbWLVCNi9hoCcOnSpXuNsp5K6sd59vsLIu+28fHfNyvQQZnBL+mBLyf9zZnz963onS9IP3do+6l84stRsZtJpp0vb0+QECzv+GGB+Y+B2Juz3rXOV137vRqD5Y07/77XOSjw37Eq54Dng0lKKuWD4U5K3eMJ7LbOdzdYbh5Rrec9nvUfpJ9hP9O41ucb1sqnqTNmtHeDzbtWJLS0ZTr3bHeLWbu26A9MGtZWldWUz//23tTUZ6f137EqZ6fyAacglfIBVwApfs8l0FwN2XM1tDfiIzdCITl3nio8FLV3nn6wfxYfuN0vX5srPdcbGP6A/Z65kcC05/uLG2sBc8u396bGiXL2FOD/gb+bx1z3JjP/+1XlXlA7pFL2gkoiKn4wBPYGV0OQMz8arVG08HwstnrahsAPhhrcHOqzX4JO/vZ0AjDlT17p39O1JPoRAoQAIfChJrBX7dX4UNcEMY4QIAQIAUKAEPhQEvhwLWB/KKuIGEUIEAKEACFACOzNBIirsTfXHtGdECAECAFCgBDY4wkQV2OPryKiICFACBAChAAhsDcTIK7G3lx7RHdCgBAgBAgBQmCPJzDvJ1Bw7KTBjxxmjD3riUbC9/82UJn6oglhSeaMMyp8PvjUH4K53fWE6h6ixh5fzx+Igu5K6kbV/6Wo2M3nO8begrW5d+A3Hb9Zs3NGYO2C7UMHe/qvC3b52tCdK+4DzU2ZyseyuZMV3YeBwrh/k4w/P36l44WF4a+X6N/2JZ6eeJgLVb+8ZfTwsasX8n/q6/vTjO+Yf6DWkMIJAUJgbycwb1cDltaFXjPUyILqQLy9H+GKqB4eUxHVx4IWVwN7lxYPXllJRE3GZIqD3rdfCAyV5v12inmr0aHioLHiosHDe8edJqTT1bS04cXwuuHxLzFRYn3pkcWli1W/F1EmXRmR1j4T2ZTrUn+GWXK11MsZ7/5YyTXf1gn7hCMu5/GLtVdXN77d0kGxOQe/L2V1Ul7QKhflikephg8rP5PZQTHwq6h3qEtKczZ1787gVcsfL5QPr+s+DGWW+7sn9Mug2HzH//xMwysK6fM11+29PWsYIFigMnmZQ5VmRzm62jqdSXl+uMRNYUDphRuHuvgq4qRSOFivfLRYOkXBq+fyplRolq4blF9Y0PvMzHf1TwqffjS/XNOlkHNCgBD4AAhM9kFzLVxLe95Ne4Sy3hdX2o4hxdfiT5VUriRun/joFMChI3acdqxRXBN88XlepfUFR+dOukh74e6eLdW5lj+efl5qzF6WmhcqKmC9ur+vcvjHTOvXvevLAPqqx1+YXujFwKJrRRYJpjdm4fbWtyuCWcJF/UB9RS80/QwAABuleejwJcV2groIe3/Kaq88rl80klkhxn7iqlype37ooxaZ3X7NrgvLPlRJPEr2+lQFuAN39YgjFPYaWh9k5jTat8OBg6ZlCu7nBNb+CPPUa3zEF7/ONz0TBnDuH6lHB2WHrqnCNV5+RJm8xKeLbndOGUZk6hRou1TTw+aXa7oUck4IEAIfAIFGN8Rry47PLV+iel0YaUwtL+x4O/jm3zn3kUPnHK/CQuDRX4VzCABorLh48PAEKP2t78Hn+ZZvbk7TGy84Z/OJy5oTA5nQQ3cGi40zKlo85hit8GzfX97gEAQQC9kRhrksddhRyva/iCanLT0+t98S1StipNG1vCv1TuCNdfwuV2Oauu1OqdTzyec2QcCoKz8zvH+onuyz1pfBghOyC7xY3xF8+oHgqO1hYE5EpjIpAK/Ibv+y7PpJf/T11rvGsQSQihzGcNja+oY5xk5YLiw9lvXGKQoA8Tj3Pxxnp9PfkF9+BC+42p0sa1sVdmAfqL5R3ypzy46nwTb1rd/p8Hj3yhOp3MNKKcknlzM8haprtQ2P6XLrKkX3ZT1kKwPdTPIUPrGMFnhglKz8q+qWV6yxj9cycW7hKVw4SbMMNmWkDJsjz6npDOio/EMmtv4fe28CHUd15/vf2qt6V7e6tUu2sQOYLWYNBHIgwXiCCZBMhgADCVlmkuH/n4R/Tt5AZobM/DPvzWR5838Tsp6QmATi9wJJJhB2b4QQSHCGsBgcY1uybEkt9b5Xd1VX1f2faqmlUkn961ZZlmT59tE5ure+9fve3/3cqurbVdVdSr/GverzHFELhsYek1xDM4ialCitdGs0daVcFWj+9UD7D4Ou3GSEoV6aTn2gIPfqSOak34baH/HwKkKcmvn7kUw53Pc/feYDhymtcNdIPOjv/ZegoCIkKPm/rJ1cESnuLb8/UZ8SM5XU10ZLv+3v/yVfc8eVW46NnmNeW+FOTxz9mOGZqOTO17k9IT+XS11RpV8N93zDx+Fq5p+Pya9HpLWZ/AZNZ2jh98HwT3yCZd7YpHd2GStbEzmPu+OeTm92UhOl1+0rLaDOyol/jRfbdN1lYAaNP1Sbv1c9nZ/q8iq48pGR0RsVbDKgpB8P9D49fQEFbqEBeYTo/W1dXwzxMZz/u2yrU41IbvzvU3JIN5/N++mhQ+bv4FH8Y739/0ekgKEMNI6CcycqIUAIrAwCLEK48/Lope/UUIVPjDGUpPm7S8G32w2Ecm/6oxdX+tqK67pDyVGK8pX6OzDSxcNvAfMMs1u5Qf9BXfOEy13t1msruOPcXFvJ9+x+tH7r0QtPV1mNTf+x44+D7IbTSiFaQpePX7apakmjGDoYOgFpLAQ8Y7DmlRPK0Ckkltat0ynMHXp+cp5hHiVVefYZYEwhHaF5Z2FUiOtaS+nDaiwxlQElUJRqKGWa8yA9q+dr8zEtgScnafRavnNIVzDruUhaP6IpKuVbxwcDasZslwpf5w7EqqlDmu901r9J2ljWX9mlT7e7sLY4Zu1t7v4IUser8SRyreO6trglVHz9ZQMz7JqPSD1+pKX1fBGxftr3Diaxy8wfSB4z0lt8anMqleb1uTMuEL9+WTr361DnPR10eyH5ueTEXwprvmM+2lu7PDb2iar7x139r3FUeyn9mViUo/sfcNFVvu274fK/JGJbxJ6nOe3qWOJMvv1LbeY8Axny7dH4xVzbd/v8R6jqu5KxW1U0CjZfE3FfSX22b+B3qZG74pnd3f33qBP/li30+IJmLJZvyAj/3j3w7ywKyKm/G49+lBn4gdt8gquDF6MWz68yeyOeqXmGA4vZIZoU/EpvG0LGu2LHPkKF/1vEbc4/KcakQYkP96//GTZ8pcRXJ8yTHa29GpJHCFVZfgIhSsetj3LKG/myG7Pl5L/FtF/2db5k7j5UmTHnP8BQAlGt9YKsRQgQAstLwJxquLzmydPy0bbfPuPLVxHF65xeuzWh5Dnwdqr33OrAmeVXRl3iumI7g7SjviPmux3wojJvhV96C3FnRm/eWqp/kESIVjt6dHXEVTkzvnk9dfjZCHNpYsBnyHEGuTWJxpRHM9MYCbz4lD83mYZxAtIAEp+RjO4rRq+9GIttqk9CWHYPH6PpgOpjENKF1PSH45n1p0rU/vaBv2qfs7i2wLuJ99I48cfq9GPayq+V33gNtX/Id/Y5lPJm+Y3pezXo2vxF10Z+UWFu8m7oN2JPl4uXs2dvpHjXlDlOK29uq+SqSLjAffFW1nUW592j5+pzjQW0hRB3utAdQcZo5c1fVBWMqNeMs28T/O/kXHuVEkMJbvMNNvOSfOBVQ8eIcVG4dhqnYfK1acgve7oLqfS1eSWIEndj7662wF6+lfdjnPKGH/aYt22m/W0v5EoXV1TGLSIld0OJeaI//Dxvbk45X/t/lo58Ki//b5dHQSju6/hBeeTOWLrkLt+sun7Q55+obXSCnL9UFx7rCb1qnrpgnw23XVhK1PnNP0aTS3XB/RrHUiKnlYWXXGyc4itZLYAnpyn0G23BN1izgawr+KQr96l86Sdubxnya6jRWjWMuF3czD7ScNUWBYpJm+cpjRKFMM1kWNY2pzAoukhT9c2kuSkDkp+Ob70DOs2kacSaOVAllk3Pnqk3Gko4ajoNUiAECIGVSoBFiI6+5k/3Z4Onxz64Np0Y8h58JTA0PpkvPf6aL3t2OrCh0PU879lQYTA9vM9TcvYZjtLcHlQ+xAS6FToRfOtt/ozLUFWhaRajKq1hOvF6IL0mE9wQv/HOdGLQd+iPgcHoCUhjaiT0/vdFz+ue6okRa9uzY9b7hRiqiAjpKps54tn/29BQCdF+TJvXTChHN28KbPe5NMqr4wcXAM/Q0eSh2NAQMk+uoMlJiPlmMq4Xam8jalSvYNbtZSQB5Sbf8RbYltTJMBSi+sTz7xKnN1PsoXkalVQt+l9627uY8HXe4Hv01D519GW1lTsWDUbaEel5SYz+zwJ3AJU+NVLq6u19tPn3GphB0bwOYr4opkgj1jBxSYrSidUbRoauq+dHY4MVNS9CtYsXzH+FI8+PRP8mze7s7v59/daEtmqVZ4TB+mUCzAjDLNpYdwD+6wxTREiiKINh8rV3UR1Pf3BnErV5Ri2cinEMK1fbERoB7MzP/bkvHomfOzXy1J/Ca74cYOvbQetv02AbJ0ZsRn7RW51/KBe9GWJICBACS0vAPC5XhsNPbvOuOTf3jrOKkTPSkXfkB3b27tnHYYSMhP/tkey7+kvrzuTFLoxl7+HB2R9EFpIuRSGKRppKI1HzRcoRD6b4alegasT8aQMpR9uf+KFn7Xm5DWcVO85IR07PDezs2/3G4qcxmbLYpoQ6po73RlWvTSOmO0MPPbrOvFfD8sIltmwgL6MGAuho0iK0UuTP4NvdSH5Bzdo+ZrYSPN86FIOmsqOmClQ924W2hWvv7dpg5cBeyyxKw0Xz4hfO7Cju3c91X8B3bGQjl0vhTdzBbaXx9Hw5zbdM5dyPhX2MMrKprD0mmGMJvqipb0/PXsmMolzb+8Kv1vtoZkYz02fXKF1r15GOjHBVp5D19AllbbHxnY/Ykhml19FiirLeAFNLCtdnMmZt8mtJ1iZmJz5Vw4z3+/2SVNcUZjIOGSyXQuXuKkYz05f6Sivjf1Pyi55m46Fc9KaIISFACCwZARYhw9OuqWlx8CVx8Hfh7vcd2/zOas9ZJfebgSJGCLNDr7rf2V/ouiTLcaj4hm/c8XulwRbyaCBYTb/iy25Mb76FTg5L1Mb4RVXhjf/0ythMo1pPo+uqkc3nq91nFz372gqLm8YUWubgz9cfXAhmXJCiaSoSVk6/PDvydKD2JRIshqpUmi83ebOh6I4LOVbXhl+1vJfX2zZ084QF56MZpM95Y6uvNOc/1ccFXdWEjKQBVqQQLhjlyTvzFt6WHNU1TLMdDJdSx1O1rlCUGEBmMhzt9mF5tDo8Wj36LLv+U+6eENt5Oj3xu9rZBoQaJF89p1jNimIRIQobvaXS+VVmiJ96f53TleYLKoIQQ4Uend0x709uYPXaWGK9FPmyR74rHrtO7PlV7fRJhucUXenV0f7a7IAyqr3TfM1barBodsKcvFC62jctNUlH71V0Spo8J6H3q5rG8akmIQghOslP3oA6a1Wdd7/GZi7Ly7+Q3E6/gTXLcNErTcg7bo+qbfNzd5sGQznVTqMox2mQQEKAEFgiAiyitDVbjp3fTpdynFxB7oj5uVLJc0r9OKAeCRzOFs9u05AhDL4pTt3nyVa7zih1tKvBPsW8JyyYv+gaPZkQxg54k2q1e2Oxs11t662YUiB/8bV6PCaO7veMHeHOe2e+//mep37o9fNMJk3zbaqg8DmZQlR1YPOxCyLTaag0QpXciUjDm7B8Z2QBmA3hwG98627M+dYnPvA36VKBpkTNxbmf/2bXcP3mV+OcxMhnS9K3+iOvW+6Uo7r4rm6kHVRj893+VxrRjfNY7hzpoohQ0REXV155ovnFdMrDnfk3np40cvcyNELF19R8LWjBbf2qqh9Ujh5lT1vDnf4ZtndcVw1KDDPCiPzST6u6h3vH34ieilHJGVVEe4IIYVzJTt24ihCaJ/lfVXWsn5meuF7Ra+e/Sl+Wxd+Hura7LEQWQN1cVRf8v3TnPxMbz7YHfyeyhqH1luUOzv+Mi8HIeEd64sOa51tdvoOM+/vlkbtiqYO97QdopEi+l9jojfHsaNg7iqoXpdIbMZq8MqhzwlE6c2m28Pt2dwqr70pl16MpqWlqp2UTm4X2l3nUVUheX2Ze6na1+u2LudaU+ES7510TE3+Pgo97xQSFvJriZ72/lpxPy+Y2Yl1CYcNjYBphyTA4RNs+NrDmdSLMYnP+Nbn7g+StxvOWp3aH7/RHXp09+AbHT6Di5Tl5X0CQsS5R3IR5Z2jDoZx0bxA1b9NkISFACKwoAizCTOaoKy1V/AHFQ6NqSYi+7Xv9BffMUUgXjg2yZ11YNcZ9g9O/VSXK525OdE1fSxHUvnPUPsy4U55kSj7nfckZia92nZntOoOREp6XXmk/fPr4hTfG8O7g8DjNuDVPm+JX2ZzMIExnjrpSruk0+HEzDY957/zka+FpXHx57ryEF5X96KhpscaF0Bpt5Kj4VtFyHr5uX//PrRkPDmiIK0mKMWe1wf7Eg6XAxmI4pPM00spsLu45TZPq12GQkfetPcALeanNsBxbvWdI5Tgae6WsTJ9Dr7eGECofoF4V+a71jCBRWDfyKVUTcSktpRWtIqhazpWOGTJbVoqudAyXqHJVkdIxWjuixnUm1ENrY7h0WB15Rddq5gtuSzJPtBz7BZU7hw+vYSQvRRk4d8wo7FerkoENZuxVvi1McTxFYZx82ygcro4P60a9I/MkXzP86enoZ4YeKqVvqXq+E5RmNiZLx+1FrjAYLEXdHcbULR1aIrD2bb5dl8zvO72wVosV8pfJlY/mMaLoDCe86g3oPC2VM1dTa7evi+wVTOJ/7FMeiiffpwSHg5KM0I/Wy6PZ/J8VdJ5iBkMXf9ubPpeP6JJ5teTH63LX5Uo35bFBcwfD77rPl9rERXSJLfjW/Mnwa5Kk6on9tFiRvDqVOdCG81JQ180MX/R7eLnw12XDYE5/ap1/h5uvTzTtHWqlnpbwF73FKwulSyq6iFCZ4fdJQV2a3rFa8Zi7jpH29++ng5okzUxa9eItsdw680uwfSNtaGMRnVmkyqL/++2evF68KZ5fZxgc7sm0ofUldI9MlcTAD0PmuZZG5M3rR+X059JlHvXiNtwnU38nowlf5Mfe6YtR5u7wNi/kZu8O5p1GEv7Gabk/y8u35zCNmLeC4cckBh7KRlFzO0+WnEgCf6LVvPktO/IiBBZGgNqwYQMcQbmL7751fL2POfLEwPNvH+cxENG+0jlXpTaeptTeGZCh8Ief7X3pYHNbB2lcYkgPKT1w74hKCBAChAAh0CKB24Wxl2lnX7hqsQWy2uokYL3JbU4P3YUrPpzu8qsuHinHgq8daj4hmGNhX2Dk3a8/5t7Hax6vQet0Kc9WZz542Veeqp+ANBq0RBYTAoQAIUAIEAKEwCITgKYaFGUIvqpIsck/Bf6wJzD9qw3Hn4KhsvkWbqabbOj40/gmm97LrJaZuHiudPom2hisvPnbeW4yPf6xIQ4NCWiFO2KlsXDHztrPezRcjQiEwGojcLEu/a0WXG29Iv1ZQgLQVAMX/bu+OedxCUuY3GRTx5/GXqa8ek76qS+jfS+bZKjJr08s+Xicsg1S1cxp6ZzhGqAbf2v2lIVDOr7qCbT6Ja1VD4J00AkBaKrhxI/EEAKrlQDm2v5pfdtq7R3pFyFACBACJ4yA5YsSJ6wNYkwIEAKEACFACBACpywBMtU4ZYeedJwQIAQIAUKAEFgKAmSqsRSUSRuEACFACBAChMApS4BMNU7ZoScdJwQIAUKAECAEloIAuS10KSiTNggBQmAlEqA1+UOJ5Htl1Y+RzHoe7O18YYUdEpcyw0Vvy1WIfjvv/nyPf/rJiCtxIyA5tUDguIeytl9RemVLMnFtUQliOil6Hg+37xGmHo9JGZVrEsmtxUoI0wnR82S4fdfJI7UAcJ5VgC4jhIPl/LWZ7PtkvLt34CfinJ8un8cPgYaTAcaG1Oi9aXVfx7qv+5qfaAIMAWm+1KaWAVGA5MgQB8r5GzO5i8pqANMp0f10e/szYvNHfrSQxmpj6Aiv0VvM3JAtnqNUvZjKCK49ofCjLrbpr+SdqnjxWenYBxVpW0/XaywSdZRnUVtu7L64zM2mr0nhz/cG4rMXWmtwlKAW/iKZeXdZ9SA6JnqeDrXvEa3PH7Y62crzZFhbw8mBqNnhq1FbtpRIlRBwQMCcamiXx6M3V93bu8Jv0/r5qdgnokahv3Ov+dug+mWx6K2qe3tX+wHaeGd64o4xozjQ+buTQ3KAA+6ycV5i5K4C9ZpPGJdbf8YWwHAqQ7ec+nSBOtbqxynAEJAAGkAUIDkyxMqWZLZDCmxrE1OUdnYmcWs0nhvoeqnJD9E2T2PVMXSGt7pRrmY9ofvCXBHrZ2QTt4/HUwPdzzfZtE5ZvDio6Zro+Y3ImY/pqVFivJEvSnjmMwTWrohFLxGE+R6VODNG+cZRlF781Fh8jav9m33uONLOzCU+Gp0w+rufazIok+bzZIiQswNR06h525rpIykRAsdBgEZUtbC5xOyIRHa6xBEOdapY04tbCpr5C1HVwtUlelckssOUcIeKNaO4pWA++3XlS86gAP1CiN7f1vXFNf33tblyLbuDhqYLpRc/FpcPhIMHZw5vkDtgCEiAIxAFSM4MESU+3Dfw1Xb/K5IwLLqfbA8MGuWN008RbmDaNI3Vx7ABCXMxRIMSdkQ6twc8+wXhmOja3eaN4mq3Vn9IcwNTyLAWsvrwsnLia8NH7h8c+usSFgrjDx069NNDhx4aLwgI6TQ3yvMj9b8JLF9QFXYGpJkHP86HEYgSy4ULseenEf9+nk3y4gvhrkeE8vtzCjy7BjJ0diACosC25ustWbZSCXRkR398NLlhZo/HG5LDD42kV8CjwGjEK0ofLb1pPk5T35RMnC+EHvAxAxWFQ4hVK/20tM+8TKCfl0pczIW2+dm+isKfDJKzjQHoMkKoyvIT5vUN3PwiR7152BAh7Yp4Yq0nst1Ft3hGFTAEpHo68/wHogBpHqP6otajaEP3IKYAH3TBja3W5ipkWGc5z/8W8Qpa5apMPiR4X556Uu48VpOLmhmuQryaFPxKb9/dA/3bXZTijnx27do71679XMTyIOkpWvqFmbzX3fa87YJKQ5aTwqwo2sA0ZX1CGRPnqE5FEUETOEMHByLg8AW3BaZJxJVFIO71vakVrizXL5li5aKSdsTjjS5/mjSSdJ1mmTxC3lLyjhL/cNh/kGO52jPJJU1nGTaPkFtOfbzIPRLxv80yrK67EVr5kjO2QL+shq2dgDAjQEPcnY3dovm+F5LKLf/KOGAISNbkbWUgCpBsJtZqy1Hapel8u+B7sdl7IWi4OhlaedrKIA1zHrwpNrT90KEfHRm7Xvd+ozs41GxjBQ1XKV6KSbNsmmVLFMI0k6mV0ww182mwBp1W81tLzPMBd8E2BmDVFlWWXEeM4pa8KplRRmcp9cGiQRtGrdrYqLUMm43t/P72qNbamt+LLF1JBDDj2ePBF+dkTy0rRildoIm/9XK2DXs5Up78eI4RZZRuTZSiofBznLm/4do7H6Yo8xO8Id8SL8ZCkd0cZSAKYzPtlS85own0a9ENOSXzmQx+KhIctO/6UFNAhoAEOAJRgOTM0BKln5Uc/2RZ2N4RGLUsnbcIpLFaGc7LYXIhQKO2AnUg1HtPf/+XeiJ7mOJdx8avaPbsCsDwFMRrIW+ck832iP4drd39XQ+0Rxmc/zsdXk9m5PuDQz8vc52oAAAgAElEQVQYHL6rwL4u0ZimlXoA+U8ILB4B+g2fV5Zzl5h7Pe4vFdtE796W7gpavBTmd2KRzDKarlyZKFzAh/7RzxkI+zVdZxgZIcwwqq6+J1m8hAvdW5MCuoYZtoSQseKl+fvbbGmlcb+ahc6vNzbEp+Xz6zVt7cjgTbVQBmMUH3ow5f/amvCbjScfjQ2hQZk/udrSpTScSgNrFySjdxaZn/d07mrhKamNM1y1DJ2N12RUmeVHzIOLcEjivEdHt+bVF4N8/YzqPMYE7zxQEKK0wnUF9IdOX3JeucHC+aKouKf9XzztvKEzFFOm1A8eS2ZcnNzAgSwmBI6HQFXyP8+NXFlQnwvgi0r6/jZP63cWHk+7zWJZVBXEYSNxjez+QZ/f/DYXVs+VtVG/YN6SbUrxzUXXA/3+iWnJa0p4xUvNej6/rjXu1/wBzZY2NqSGgj1f8E+f2ap8aDTe1tb7Qw+XajzPML8v1DhDYFCANJfS0EwDq++diN6mig/0drzAgV2tJ904w1XLsN71ef43pjF3ZcwgRGPL9ynmrgJtUaci3johfFo2ewbr+5KrxXuoJuOgKJU2b0pyy9mrVPa/wqJeb4n8JwQWlQD/G5/wgXyx34XO16TH3M1/SmBRW29kRiPMep/1sDpNM1WlvyJvjsfer7t3esyrO5j1PONldYamq0q/Il8dj23VXLu8nHEySI16DC8HugwHNlIBQ5Xhojw/9cdxJQpVGD7KMfCZVcAQkBqlZ771OxplZ4aUXv7Q2OgnKtyv2gNjurKuUjH/VE0A7MAMVytDgAcwXrRauDmVvVQun6aoa8rFrbH4VbrwOw8Pv6sBhqcg3knylF68Lq/tD/iHW5oMTw1XoyhGr/ZWtbBa2ZSN/8NE3vCFH5UW4gtsDSerZJyTOHr/cHzTPGfbiGQdVCc0Ul7/Pq14Xabod/les3+FwYmhNSGnZfNEK/OHSPePkokPTIx8zKBSgufh7vCLU1d3mD+Gu7clE9dPjNxuUBnB/bPu8G9OGskZE6DLiCvFvjVRFBFmMT5rdGgzhY4E+77cBp2dRggydJQiYAhIQFNAFCA5MWSUwpayziL55qh8c91A54P39ofAuxedpVFvYJ7/gCEgzWNUXwREAVI9emH/GxpimjbU7EdyqXbdwDQ7Ibp/2h16ttldt6fkJtqEeE8uez7l/XcvO33WsUlATW4UJcrJf44VXYjO8NIfQr3/6Rfzrdg1XsfRgcjZ4atxEsermKfcGryIZAWzYBqYce/2JO/Ooed6XGWr01R5wYbzeCx4EbVhw4YFB50kAZcY0kOK+YXi24Wxl63fNjtJ8idpEgKEACGwEgg4PJYe969Zr4S+n5Q5ePPRb6a4r68Jv7VIp8+OeyjtZ1dOSqwkaUKAECAECAFCgBCoEdAuLpRTXu+BRZpnLAbVqashi2FFPAgBQoAQIAQIAUJgmQhQ2PAYRqiUvLEiPh5ZUbcek6nGMm0TpFlCgBAgBAgBQmARCYil+H9MFGlGfKGjY/fCfuJ2EbOY14pMNebFQhYSAoQAIUAIHB8B2dv9ce/xWZDohRAoezo/uX4hAS2ve9xDSe7VaJk1WZEQIAQIAUKAECAEFk6ATDUWzoxEEAKEACFACBAChEDLBMhUo2VUZEVCgBAgBAgBQoAQWDgBMtVYODMSQQgQAoQAIUAIEAItEyBTjZZRkRUJAUKAECAEWifgKkQfGMu1tR5A1lypBI57KGvfQKH0ypZk4tqiEsR0UvQ8Hm7fI0w9ZIgyKtckkluLlRCmE6LnyXD7ruWQEMLBcv7aTPZ9Mt7dO/ATy2OdgQydjRpo2DANoC3AEJCcGdajjA2p0XvT6r6OdV/3NZ9OAmkAUr2tef4DUYA0j1F9ERAFSPXoef4DUYA0j1F9ERAFSPXohf0HDAEJaAOIAiRiaCUAgAIkq4OtDEQBks3EWgWiAMnqQMqEgFMCTCgU0q6IjX5UlX7eEXnE71LKmduy6ojPM2a+Q+nvnhi9QxF/0RF52O8uV9K3ZdSozzO61JJxXmLkn1JK3iXgipbwBd5gp38FDciwF3Mf0n0IoV+yhTFKaxERYAikAZgDhoDkzHAqyi0nv5DRU7SuuNpeav4IDCANQHKWITG07kQAQ0ACGAISMbQSAEABktXBVgaiAMlmYq0CUYBkdbCVgShAmjRxdixFnFrYqvDP+sSKLRdSPdkIHPdQ0oiqFjaXmB2RyE6XOMKhThVrenFLQaOQKV1dondFIjtMCXeoWDOKWwrVJZYQove3dX1xTf99ba7c7BECMpy9Yqs10LBhGoA7YAhIzgwnoyi9+LG4fCAcPDg9HwPsnI4yYAn0C5CIIUDAKgEMAcnqYCsDUYBkM7FWgShAsjrYykAUINlMrFUgCpCsDrYyEAVINhNrFYgCJKuDrQxEAZLNhFQJAacEaMQrSh8tvWl+9tU3JRPnC6EHfMxAReEQYtVKPy3tM69W6OelEhdzoW1+tq+i8EsrIYSqLD9hnkrBtosBQIbOiMCGjdIA2gIMAcmZYS1KuyKeWOuJbHfRU9fAAK+aBKQBSIArEAVIxBAgYJUAhoBkdbCVgShAsplYq0AUIFkdbGUgCpBsJtYqEAVIVgdbGYgCJJuJtQpEAZLVwVYGogDJZkKqhIBTAjSSdJ1mmTxC3lLyjhL/cNh/kGM5XZMQkjSdZdg8Qm459fEi90jE/zbLsLruXlrJ2jfbB3UgQ2tU6+UWDW1pAP6AISA5M0QId2djt2i+74WkMkItJgmkAUjOMiSG1p0IYAhIAENAIoZWAgAoQLI62MpAFCDZTKxVIAqQrA62MhAFSDYTUiUEnBKYPEuAEWWUbk2UoqHwcxyFEcK1NypMUeaJBEO+JV6MhSK7OcpAFMbYPL2whBLQNyANIAqQltLQWVtAFKdkPpPBT0WCgy3OMmogAENAcsaQGFp3IoAhIAEMAYkYWgkAoADJ6mArA1GAZDOxVoEoQLI62MpAFCDZTEiVEHBKgEYyy2i6cmUicQEf2ubnDIT9mq4zjIxQhWFUXX1PMn6JeenElAK6hhm2tLQS0DcgQyAKkJbS0FlbjaPwafn8eq1y08jgQ4cPPzQ4tlnDm+JDDx5JnG1ODhu+GhtCG0BDO6fbBjEECFglMl4tHois0GxlwvD4GdqQkiohABKgUVUQh43SNbJ56SRunq9Qz5W1UVGoIqTVpM1F7mcR/8TySUAHgAyBKEBaSkNnbTWOooaCPV8Y6L+7f/Iv8hJD/SnUe09v8BB4kqOxIbQBOGMItEUMAQJWCWAISFYHWxmIAiSbibUKRAGS1cFWBqIAyWZirQJRgGR1sJWBKECymVirQBQgWR1sZSAKkGwmpEoIOCVAI8x6n/WwOk0zVaW/Im+Ox96vu3d6OPMyCut5xsvqDE1XlX5Fvjoe26q5dnk5Y2kloG9AhkAUIC2lobO2gCiV4aI8P/XHcSUKVRg+yjEK0GGnQwlYAhkCEjEECFglgCEgWR1sZSAKkGwm1ioQBUhWB1sZiAIkm4m1CkQBktXBVgaiAMlmYq0CUYBkdbCVgShAspksXtU4J3H0/uH4JmOuJZGsTFYIDWtKzsrm72rQUZcrXy1el05fnyv2Ua5HOyPP8ZMfhOkJlytbLW6tSWso6bHOyG5+8v6OpZQQV4p9dyT24WypE+sbCtkbMpl3Up7fSAxGQBrOvgsOGAJpAPQBQ0ByZmiN0jZlC66WflcDSAOQrG3ZykAUINlMrFUgCpCsDrYyEAVINhNrFYgCJKtD62XAEJAAfyAKkIihlQAACpCsDrYyEAVINhNrFYgCpEkHZ8dS4Hc1cIecu6zK7fW7J+znXIlkHbUVQgMYSmu2QJnasGEDIJ/U0iWG9JDSgxC6XRh7mS6f1H0hyRMChAAhsFwEHB5LXYXot/Puz/f4M8uVOGl3kQgc91DafqdikdIiNoQAIUAIEAKEACFACNQIkKkG2RAIAUKAECAECAFC4AQSIFONEwiXWBMChAAhQAgQAoRA7cmuBAMhQAgQAoQAIbC4BGRv98e9i2tJ3JaHwHEP5Skx1bhYl5ZneEirhAAhQAic/ATIIfTkH8Nl7sEpMdX4Wy2IWn2G/DKPB2meECAECAFCgBBYZQTIvRqrbEBJdwgBQoAQIAQIgZVFYDWf1fgTrd4ujK0s3iQbQoAQIAROWgJ/otWTNneS+HISWM1TjTzSyS93LefGRdomBFY4AVqTP5RIvldW/RjJrOfB3s4XbIdErNx0bOSd3v5/DPLz/Ij2Cu/ecqd33L/7tNwdIO3XCRz3UNb2K0qvbEkmri0qQUwnRc/j4fY9Aj35NFDKqFyTSG4tVkKYToieJ8Ptu5ZBwoFy/sZM7qKyGsB0SnQ/3d7+jMg0zbBOaWH/gS4jhIPl/LWZ7PtkvLt34Cei/Td1522J1uQPJNPvlSshg8oIrl+Hwo+6WH3WqsaG1Oi9aXVfx7qv+5pf0wIyBKRZDc6uAFGANNtjVq1xFDSUsyxmV05BhrMBzKo1xmv0FjM3ZIvnKFUvNje2PbWNrel75KmKF5+Vjn1Qkbb1dL3GIlFHeds8YxZ1qNKWG7svLnOzV9Gk8Od7A3GEBLXwF8nMu8uqB9Ex0fN0qH2POHWAnR0xq9Z4lBEgzbKYVYF2PUeGs9xJhRAACZi7lnZ5PHpz1b29K/w2rZ+fin0iahT6O/cyCCH9slj0VtW9vav9AG28Mz1xx5hRHOj83RJLWNmSzHZIgW1tYorSzs4kbo3GcwNdLzVJA+x4QxHosnFeYuSuAvWaTxiXKw0N7EL1monxG7Dv/u6OQ4yxLhf/9PiE0tf7BD+znltOfbpAHWv1MAdkCEgzzc0pAVGANMdmZkHjKGgoZ+LnlE5BhnMYzCwA8FY3ytWsJ3RfmCti/Yxs4vbxeGqg+/kmm9YpixcHNV0TPb8RuSpCqAmlmQGYW8p7I1+U8MwnD6xdEYteIghZhCi9+Kmx+BpX+zf73HGknZlLfDQ6YfR3P9ekucajDB2W56ZWXwLtekBb9XDynxA4LgI0oqqFzSVmRySy0yWOcKhTxZpe3FLQKGRKV5foXZHIDlPCHSrWjOKWQnWJJUSJD/cNfLXd/4okDIvuJ9sDg0Z5o2Ke1AAydIYFNKT3t3V9cU3/fW2uXOvuuNpbxQf9wd+LXJIT9gYDB7DarU2ekTFdKL34sbh8IBw8OHOggtyBDAEJcASiAMmZITCUgCE69RgCNKBBoYQdkc7tAc9+QTgmuna3eaO4at3Y5rc99fCycuJrw0fuHxz66xIWCuMPHTr000OHHhovCDVAgpL/xNjR7w8efnDo6N3psqeFHVOnuVGeH6n/TWD5gqqwMyCpCInlwoXY89OIfz/PJnnxhXDXI0L5/TnF/KDU+AWMMiA19kPArufQEGqMaMtDoCM7+uOjyQ0zby94Q3L4oZG0+SiwZX7RiFeUPlp6U6AQ0jclE+cLoQd8zEBF4RBi1Uo/Le0zLxPo56USF3OhbX62r6LwSyvZENGG7kFMobanAhnaolqswoZVlp8wr2/g5hc5ptujxL1utq8kh8zhx8FSqY/zvDxz5UW7Ip5Y64lsd9HNz6jWPIEMAWk6nbkFIAqQ5vpML2k9yjqU0+HzFE49hvNAqC9qEa+gVa7K5EOC92Vz1wZfpx5eTQp+pbfv7oH+7S5KcUc+u3btnWvXfi7iMW95NOTbo/F3Yc93+9Z8ti/yupq9csE3QuoXZvJed9vztQsqtIFpyvq0RybOUZ2KIoJjAowyIIGWs0TrrrcohrPcSWWZCMS9vje1wpXl+iVTrFxU0o54vNFlysfSLI0kXadZJo+Qt5S8o8Q/HPYf5FhO1ySEJE1nGTaPkFtOfbzIPRLxv80yrK67l1aypGte7rk0nW8XfC/WDqBAhrOjWq21aNjs4G1tjn4j3PsjJvPPIxOfnBi9J89/tzfy+tRUBXdnY7dovu+FpDJCLXoCGQKSNSFbGYgCJJuJtdpy1KyhtDrMKZ9yDOcQmFnQDC/eFBvafujQj46MXa97v9EdHGq+YZ16eCkmzbJpli1RCNNMplZOMxRGSJDzl+rCE5HQqzyb5aRnw20HZ9i3VKLV/NYS83zAXaitXpZcR4zilrxa+x1Bo7OU+mDRoA0D/llBYJQBqaX8zJVm7XqLYdhyy2TFE0kAM549HnxxTvbUWmGU0gWa+FsvN3Oa40S2DnpPvudhRBmlWxOlaCj8HGfub7j2zocpyvwEb8i3xIuxUGQ3RxmIwrj28XwJJUsH9LOS458sC9s7AqO1pUCGlqgFFBfdECEcKab/vIQOelyHBF5Tch/JlIK1jDgl85kMfioSHGz+ZjDTBSBDQJqJn1MCogBpjs3Mgtai7EM5Ez9P6ZRjOA+D+qJmeKkDod57+vu/1BPZwxTvOjZ+RfNfryN463ARaqtWeUYYrN/hiRlhuMlNFTOxtZJxTjbbI/p31M9cGpz/Ox1eT2bk+4NDPxgcvqvAvi7RmKYVW9zsKjDKgDTbo1HNvusdt2GjhsjypSdAv+HzynLuEnOvx/2lYpvo3buwDfgE5cwimWU0XbkyUbiAD/2jnzMQ9mu6zjAyQphhVF19T7J4CRe6tyYFdA0zbAkhYwmlqa5j7YJk9M4i8/Oezl381JtzpXEazoAtuiFVzX06XjrS2f99N4OR70Vv8dOjE3dy/f/Dz56Wz6/XtLUjgzfVcmUwRvGhB1P+r60Jv9l48gFkCAwKQGMpDYGhBDI8BRkCNIDxmowqs/yIeXARDkmc9+jo1rz6IvhFTYJ3Dm3z49b0S2+8M06vM12gtMJ1BfSHTl9yehGi4p72f/G084bOUEyZUj94LJlxcfLMCvOUgFF2tptPtbEkR9F5+kMWLRWBquR/nhu5sqA+F8AXlfT9bZ4F3Fl4ApNkUVUQh43ENbL7B33+uDkTUs+VtVG/YN6SbUrxzUXXA/3+iWnJa0p4CSWz+1h970T0NlV8oLfjBW5m19cap+EM2qIbMlW1D/Mv1r+aq7Out3h8e0Vl/NxQsOcL/uljWuVDo/G2tt4ferjUTP/m6QSQITAo8xjVFy2lodlmg6GspzPP/1OQ4TwU6ouA8aqvMv0fMwjR2PLNiGnFUiB4LTBQhucUXenV0f7aZ0HKqPY2Py00bYBPy2bPYH1fcs1z55VKm/eXueXsVSr7X2Fx9tfdpx2mCsAoO9vNTd8Gux7Qlj0tUj8JCPC/8QkfyBf7Xeh8TXrM/Ii7El40wqz3WQ+r0zRTVfor8uZ47P26e6fHvLqDWc8zXlZnaLqq9Cvy1fHYVs21y8sZSytRevlDY6OfqHC/ag+M6cq6SsX8UzUBTMMZXaDLzgx1XjxEV65JFU6r6l69+o584roy/abLPNCoDBfl+ak/jitRqMLwUY5pcmbV0aAAyQNdBiRnhsBQAoanIEOABjAotFq4OZW9VC6fpqhrysWtsfhVuvA7Dw+/qxG8VtqK5HuJrdwYz26s6r5q5b2J9MaWD9WUXrwur+0P+Idnf1pg9GpvVQurlU3Z+D9M5A1f+FFp9hrWDGplYJQBaY7NzAJg13NmOGPtpGSckzh6/3B8U/3+RYsHkSwwkBMaKa9/n1a8LlP0u3yv2b/CABha2130sjlzZ/4Q6f5RMvGBiZGPGVRK8DzcHX5x6uoO88dw97Zk4vqJkdvNn59y/6w7/JsllxilsKWss0i+OSrfXCeg88F7+0NDFJBhfdWF/YcMuVLsWxNFEWEW47NGhzZT6Eiw78tt0M8IYtb3vW7j1mT67qMxN6IyvLQ33PMz7/HMNIEMAQmgAEQBkhNDcCgbGp6SDBvSQKjhoGCaNtTsR3Kpdt3ANDshun/aHXq22TdQCN5ZrGnXT7o7jET6/zmaFGnu9UD7I66JK2at0bDSk8ueT3n/3cvaJieinPznWNGF6Awv/SHU+59+Md/QY1poOMrABjAdPLcA7npAW3OdFmuJecqtwYtIVjALpoEZ925P8u4ceq7HVbY6TZUBw3nWXqRF1IYNGxbJitgQAoQAIUAIEAJ1Asf9a9Z1I/J/gQS8+eg3U9zX14TfanL6rFXf4x5K+9mVVhsm6xEChAAhQAgQAoTAyiOgXVwop7zeA4s0z1iMDk5dDVkMK+JBCBAChAAhQAgQAstEgMKGxzBCpeSNFfHxSJNbj5c2RzLVWFrepDVCgBAgBAgBQuBEEBBL8f+YKNKM+EJHx+76b8OciIYW7knu1Vg4MxJBCBAChAAhQAgQAi0TIPdqtIyKrEgIEAKEACFACBACCydAphoLZ0YiCAFCgBAgBAgBQqBlAmSq0TIqsiIhQAgQAoQAIUAILJwAmWosnBmJIAQIAUKAECAECIGWCZCpRsuoyIqEACFACBACrRNwFaIPjOXaWg8ga65UAsc9lLUvu1J6ZUsycW1RCWI6KXoeD7fvEaYeF0QZlWsSya3FSgjTCdHzZLh91zJIRm8xc0O2eI5S9WIqI7j2hMKPutjJn88HMnQ2aoAhIAFtAVGA5MywHmVsSI3em1b3daz7uq/5dBJIA5Dqbc3zH4gCpHmM6ouAKECqR8/zH4gCpHmM6ouAKECqRy/sP2AISEAbQBQgEUMrAQAUIFkdbGUgCpBsJtYqEAVIVgdSJgScEmBCoZB2RWz0o6r0847II36XUs7cllVHfJ4x8x1Kf/fE6B2K+IuOyMN+d7mSvi2jRn2e0SWWsPquXImRAo+F2p72uVPVwkfSlZTPe7RJGs6YOOsy0NZSGk6l4ZaTX8joKVpXXG0vNXsEhtNRXiFdBvCe1Bme1MkDgwJIpMtWAgAoQLI62MpAFCDZTBZW5dTCVoV/1idWFhZH1l5xBI57KGlEVQubS8yOSGSnSxzhUKeKNb24paBRyJSuLtG7IpEdpoQ7VKwZxS2F6hJLiBJ2RDq3Bzz7BeGY6Nrd5o3iardmPtIIyNDZWAGGgAS0BUQBkjPDyShKL34sLh8IBw+29qu0QBqA5CxDYmjdiQCGgAQwBCRiaCUAgAIkq4OtDEQBks3EWgWiAMnqYCsDUYBkMyFVQsApARrxitJHS2+an331TcnE+ULoAR8zUFE4hFi10k9L+0RTOi+VuJgLbfOzfRWFX1rJ2jdBq1yVyYcE78u1D+tAhtao1suAISAB/kAUIDkzrEVpV8QTaz2R7S566hoY4FWTgDQACXAFogCJGAIErBLAEJCsDrYyEAVINhNrFYgCJKuDrQxEAZLNxFoFogDJ6mArA1GAZDOxVoEoQLI62MpAFCDZTEiVEHBKgEaSrtMsk0fIW0reUeIfDvsPciynaxJCkqazDJtHyC2nPl7kHon432YZVtfdSyvV+oY3xYa2Hzr0oyNj1+veb3QHh2of2YEMnREBDAEJaAuIAiRnhgjh7mzsFs33vZBURqi1kxoOR9lZhove5dVqSPBaCQCjDEhWB1sZiAIkm4m1CkQBktXBVgaiAMlmYq0CUYBkdSBlQuA4CEzeMogRZZRuTZSiofBzHIURwrU3KkxRCGHakG+JF2OhyG6OMhCFsXnlYimlWveoA6Hee/r7v9QT2cMU7zo2foVmLgbScAYFMAQkoC0gCpCcGXJK5jMZ/FQkONjiLKPWDJAGIDnLkBhadyKAISABDAGJGFoJAKAAyepgKwNRgGQzsVaBKECyOtjKQBQg2UxIlRBwSoBGMstounJlInEBH9rm5wyE/ZquM4yMUIVhVF19TzJ+iXnpxJQCuoYZtrS00mTfyiw/IgiHXN5HOzp+TZW25lUaTMMZEWddBtpaQkN8Wj6/XqvcNDL40OHDDw2ObdbwpvjQg0cSZ5uTw4avJcwQ2qIa5geOMpD8SW14UicPDAogkS5bCQCgAMnqYCsDUYBkMyFVQsApARpVBXHYKF0jm5dO4uaJAvVcWRsVhSpCWk3aXOR+FvFPLJ80p2+YQYjGmAIznBPV0gJnXQasl9CQGgr2fGGg/+7+yb/ISwz1p1DvPb3BQ+BJjiXMENqiVgbDlZIhoWElQDbRFg/LVmi28qIztPmTKiEAEqARZr3Pelidppmq0l+RN8dj79fdOz2ceRmF9TzjZXWGpqtKvyJfHY9t1Vy7vJyxtBKtFm5OZS+Vy6cp6ppycWssfpUu/M7D62AaYLcbis663NAOzBBoy5mhynBRnp/647gShSoMH+UYBbBb2gwXvcur1RAYMaDLgEQMrQQAUIBkdbCVgShAsplYq0AUIFkdbGUgCpBsJotXNc5JHL1/OL5p8seRZvkSyYpjhdCwpuSsbP6uBh11ufLV4nXp9PW5Yh/lerQz8hw/+UGYnnC5stXi1pq0hpIe64zs5ifv71hCCWsbC7n3Z7Nbs9mripV2xvV4pONJcfILFkAazogAhoAEtAVEAZIzQ2uUtilbcLX0uxpAGoBkbctWBqIAyWZirQJRgGR1sJWBKECymVirQBQgWR1aLwOGgAT4A1GARAytBABQgGR1sJWBKECymVirQBQgWR0WXG78Ywy4Q85dVuX2+t0T9nOuRLJyXiE0UOOhtGYLlKkNGzYAMpEIAUKAECAECAEnBFyF6Lfz7s/3+DNOoknMCiJw3EM5eYZiBfWIpEIIEAKEACFACBACq4kAmWqsptEkfSEECAFCgBAgBFYcATLVWHFDQhIiBAgBQoAQIARWEwFyr8ZqGk3SF0KAECAECAFCYMURIGc1VtyQkIQIAUKAECAECIHVRIBMNVbTaJK+EAKEACFACBACK44AmWqsuCEhCREChAAhQAgQAquJAJlqrKbRJH0hBAgBQoAQIARWHAEy1VhxQ0ISIgQIgSUiQGvyh8ePfWfw8PbDh+8fnph8XvSJbRsrNx09/K9p82mRq/7lKkQfGMu1rfp+ngIdPO6hZE1IlF7ZkkxcW1SCmE6KnsfD7XuEyZ/9RpRRuSaR3FqshDCdED1Phtt3LYdUH0pjQ2r03rS6r2Pd131TuyqQYT1qYf8BQ0AC2ryuHwUAACAASURBVACiAMmZIUI4WM5fm8m+T8a7ewd+Itp/9XdeWyANQJrXanIhGEUynNmJAIaA1BgvDpTzN2ZyF5XVAKZTovvp9vZnRAZ8sq/ZTmNDSHKUofnYxpWwidaSx2elYx9UpG09Xa+xSNRRvnY8BPrVSGrLjd0Xl7nZsiaFP98bMJ9h6ei12IMCbRtAW45yJ0HLRoCpJL8WLZZcgZ+EAweZZUtjTsPmM1C0K2KjH1Wln3dEHvG7lHLmtqw64vOMmW/l+rsnRu9QxF90RB72u8uV9G0ZNerzjC61NJW2W05+IaOnaF2ZebQHkOGczra0ADAEJMAaiAIkZ4bGeYmRf0opeZeAK1rCF3iDbWWqAaQBSCRDKwEAFCBZHVovNzbEyg0TqV4x8ItQ6Am/q6DkbskoEz7vSJNP0I0NoSMAkDBguEI20cnk8Zm59Hlc8JsBqUgzBZZRgT6BUpWXXvb5dwYCU39+T6VSDIptj7s53R6on5XLdwr+PRI8BQQYApK9sZk6tG04Mpyxblg67gdnNHQmQiMCmBH/4Gb7conrNWmn23w26qK8jnsoaURVC5tLzI5IZKdLHOFQp4o1vbiloFHIlK4u0bsikR2mhDtUrBnFLYXqEkuTpCi9+LG4fCAcPGh59wQydMYXMAQkoC0gCpCcGSJE72/r+uKa/vvaXDnAYrYEpAFIsz1m1cAokuHMTjSLWssVCC8lPtw38NV2/yuSMCy6n2wPDBrljUqTkxqAISAB+YJRK2IDYOXE14aP3D849NclLBTGHzp06KeHDj00XhAme2WolybH//XI4IOHB793NHpbUeWB3tYkneZGeX6k/jeB5Quqws6ANDl3EZT8J8aOfn/w8INDR+9Olz2WI1gjY4AhIDVyM5c33jYcGkKNEW35CFB0RvD8xsX6VNW9fFnMaZlGvKL00dKbAoWQvimZOF8IPeBjBioKhxCrVvppaZ95El4/L5W4mAtt87N9FYVfWqmWtHZFPLHWE9nuoqcu7dSWAhnO6WpLCwBDQAKsgShAcmaIEKqy/IT5ERY3+RxraQBIA5AsBvYiHEUynN6J7OBaq8N4rR60oXsQU2h2EhUwBCRrQ7YyHLUSNgBNCn6lt+/ugf7tLkpxRz67du2da9d+LuKpzQy0y2NjfyUzz3b1/+3aga+3sefFon8pL+jDoX5hJu91tz0/eUHFkG+Pxt+FPd/tW/PZvsjravbKFk6eAAwByTYQQNW6bSyKIdAWkZaegFGbzrYwp12y1Ggk6TrNMnmEvKXkHSX+4bD/IMdyuiYhJGk6y7B5hNxy6uNF7pGI/22WYXXdvbQSQrg7G7tF830vJJURsuIDMnSGEDAEJKAtIAqQnBlao6yUrMvnloE0AGmuz/SSFqNIhtPEFlRoES9C2qXpfLvge9H8FAG9AENAAhxbjGqSlqUBwBCQLAZzihSTZtk0y5YohGkmUyunGQojxCi5G0rME53h50Uux7CDvvb/dOmX5+WpEx5znOYuoNX81hLzfMBdqGmCnL9UF56IhF7l2SwnPRtuOzg3Zs4SoF+ANMem0YJZ28ZiGDZqiCxfTgKt72InPsvJD78YUUbp1kQpGgo/x5n7G669o2OKMj8fG/It8WIsFNnNUQaiMDbPxy6lxCmZz2TwU5Hg4BxyQBrO2AGGgAS0BUQBkjNDIAqQgDQAyZkhEAVIQBqA5MwQiAIkIA1AAgwBqTVD/azk+CfLwvaOwCjgVZMAQ0ACXJ1FOTNc9LYkRenE6g0jQ9sGB2t/Rz5dMgRN8wL5zZKMc7LZHtG/o35Hdlu1yjPCYP2WUcwIwy3cfAr0C5BmJdKwYt82jtuwYUtEWCYCVJznq0rpQtVo/fT2CU6VRTLLaLpyZaJwAR/6Rz9nIOzXdJ1hZIQww6i6+p5k8RIudG9NCugaZtgSQsbSSfi0fH69pq0dGbypBoPBGMWHHkz5v7Ym/HbjNJyBqzQ2BLoMtLWUhkAagEQyNBCe3rABUIC06AydtTUVhbULktE7i8zPezp38XOm53OsFz15wHBO4y0tAAyd7ZVAq+YHKcq1vS/8qoWceeYDiLFIlFa4roD+0OlLWhYiZH5+m37pFufphbbCieryfNsG0JYtK1I9WQhkfR3/UR3/v48NXe/v+VxYmnNv8tL3g0ZVQRw2StfI5qUT83tZWD1X1kZFoYqQVpM2F7mfRfwTyyZRQ8GeLwz0390/+Rd5iaH+FOq9pzd4iIIydMbSWZeBtpbSEEgDkEiG1m0eAAVIi87QWVtmFFbfOzH6f8n8j3q7n6x/Lx1wQ053c8AToAFEARJgCEiAISBVBCGG1B6dTXDc9F+SoVs7WOPTstkzWN/Trpk7yjI8p+hKbz2eMqq9GtD+lAT0C5Ca+DbYNpwbNmmPyMtGwFVK/VUW/66j59+CYn3TW7Zkag3TCLPeZz2sTtNMVemvyJvjsffr7p0ezryMwnqe8bI6Q9NVpV+Rr47HtmquXV7z+zNLKakMF+X5qT+OK1GowvBRjlHANJxxddYvoK2lNATSACSSoXXDBkAB0qIzdNYWpZc/NDb6iQr3q/bAmK6sq1TMP1WD7zNY9OQBQ6BfgAQYAhJgCEi64P+lG783Nv7BYqVT0yJq5fxc+v1yK2ciEKUXr8tr+wP+Yct5C0XyvcRWboxnN1Z1X7Xy3kR6o/UUR4NUgH4BUgMzczGwbTgzBNpqQTLOSRy9fzi+aZ7bbYlk5eeMBu4pywHB+7hXGmMs26JpDBha2130svm7GnTU5cpXi9el09fnin2U69HOyHNT513pCZcrWy1urUlrKOmxzshufvLqz1JK1m5rm7IF18zvagBpWKNaLwOGgAT4A1GA5MwQcaXYd0diH86WOrG+oZC9IZN5J+X5TZNv8ANpABLJ0EoAAAVIVofWyw0N2Urms+myy6ieXci/Lz/1d2WZ/i+/K2M74MxqraEhQoA0y2J2BYpaGZvoZL54TSGzifI87uEtb3n0iMdzDFfek0n/RTpzTaG01mCOuN2HW/iJmt5s/DbF9WDEO2GlTXFvubhgKXtTMnVDoUy5239NlQbYpr+rATAEpNnjYKmB24YTQ4t3w2LjH2PAHXLusiq31++excp0IpKVpzMaqF3OvUeXnvaJFatZE7z2Va31xkNpXQsoUxs2bABkIhEChAAhQAgQAk4IuArRb+fdn+/xt3ini5M2SMw8BPDpiaP/oLZ9tsefnUd1sui4h3LF3J/qpPckhhAgBAgBQoAQIAQsBChDOa+iySwnWxYud7GFr10td4qkfUKAECAECAFCgBBoToCppL46mhWlwP0hVwu/FdfccJHWIFONRQJJbAgBQoAQIAQIgeUloAtt/7QuWKKttwstb0aTrZN7NVbCKJAcCAFCgBAgBAiBVUuA3KuxaoeWdIwQIAQIAUKAEFgJBMhUYyWMAsmBECAECAFCgBBYtQTIVGPVDi3pGCFACBAChAAhsBIIkKnGShgFkgMhQAgQAoQAIbBqCZCpxqodWtIxQoAQIASWk4CrEH1gLNe2nCmQtheHwHEPZe3LrpRe2ZJMXFtUgphOip7Hw+176g9qoozKNYnk1mIlhOmE6Hky3L5rGSS8IXn0/81Up+dFOh+8tz80VPs6D5ChM8aAISABbQFRgOTMsB5lbEiN3ptW93Ws+7pvGltdnPMfSAOQ5tjMLACiAGkmfk4JiAKkOTYzC4AoQJqJn1MCogBpjk1LCwBDQAKsgShAIoZWAgAoQLI62MpAFCDZTKxVIAqQrA6kTAg4JWA+A0W7Ijb6UVX6eUfkEb9LKWduy6ojPs+Y+Q6lv3ti9A5F/EVH5GG/u1xJ35ZRoz7P6FJLaF0+fS4f/qeu9mcDgZ2BwE6fK8rQtccWABk6YwIYAhLQFhAFSM4Mp6LccvILGT1F68rMw2KcGS56hsTQuhMBgwJIAENAIoZWAgAoQLI62MpAFCDZTKxVIAqQrA62MhAFSDaThVWP+8EZC2uOrH3iCBz3UNKIqhY2l5gdkchOlzjCoU4Va3pxS0GjkCldXaJ3RSI7TAl3qFgzilsK1SWWENLbdJQQpGM8P1L7G+WYag0qkKEz6IAhIAFtAVGA5MxwMorSix+LywfCwYOt/YgLkAYgOcuQGFp3IoAhIAEMAYkYWgkAoADJ6mArA1GAZDOxVoEoQLI62MpAFCDZTEiVEHBKgEa8ovTR0psChZC+KZk4Xwg94GMGKgqHEKtW+mlpn2hK56USF3OhbX62r6LwSyshrLdpuCsb/dbQ0PeOHLs3ljlXm3oMM5ChMyKAISABbQFRgOTMsBalXRFPrPVEtrtouoVnVSOnQ+ksw0Xv8mo1JHitBIBRBiSrg60MRAGSzcRaBaIAyepgKwNRgGQzsVaBKECyOpAyIXAcBGgk6TrNMnmEvKXkHSX+4bD/IMdyuiYhJGk6y7B5hNxy6uNF7pGI/22WYXXdvbQSooSnOrv/v+6u/97X+7UOf0xJ/7ex5Nm1yydAhs6gAIaABLQFRAGSM0OEcHc2dovm+15IKiPU2kkNh6PsLMNF7/JqNSR4rQSAUQYkq4OtDEQBks3EWgWiAMnqYCsDUYBkM7FWgShAsjqQMiFwHAQmbxnEiDJKtyZK0VD4OY7CCOHaGxWmKIQwbci3xIuxUGQ3RxmIwtj8sLyUEkKoKLj2iUKU44dc/vu7QkPV/DUlc64BpOEMCmAISEBbQBQgOTPklMxnMvipSHCwxVlGrRkgDUByliExtO5EAENAAhgCEjG0EgBAAZLVwVYGogDJZmKtAlGAZHWwlYEoQLKZkCoh4JQAjWSW0XTlykTiAj60zc8ZCPs1XWcYGaEKw6i6+p5k/BLz0okpBXQNM2xpaSVb3zDLj9DYp+sUmIYtqsWqsy4D5ktoiE/L59drlZtGBh86fPihwbHNGt4UH3rwSOJs8ErKEmYIbVErg+FKyZDQsBIgm2iLx14rNFt50Rna/EmVEAAJ0KgqiMNG6RrZvHQSN08UqOfK2qgoVBHSatLmIveziH9i+SRbByhd7TboJMtgMENbVItVZ10GzJfQkBoK9nxhoP/u/sm/yEsM9adQ7z29wUPgSY4lzBDaolYGw5WSIaFhJUA20RYPy1ZotvKiM7T5kyohABKgEWa9z3pYnaaZqtJfkTfHY+/X3Ts9nHkZhfU842V1hqarSr8iXx2PbdVcu7ycsbQSpRX/PJm9RK6sUZTTS9m/iqZO4/3PuM1rP0CGYLcbioAhIDW0AzNcdEOV4aI8P/XHcSUKVRg+yjEKkN/SZrjoXV6thsCIAV0GJGJoJQCAAiSrg60MRAGSzcRaBaIAyepgKwNRgGQzWbyqcU7i6P3D8U21W+5m2xLJymOF0LCm5Kxs/q4GHXW58tXiden09bliH+V6tDPyHD/5QZiecLmy1eLWmrSGkh7rjOzmJ+/vWDqJQvr6fPa6XHZrNne5XFWltvs7g29PZoGANJwRAQwBCWgLiAIkZ4bWKG1TtuBq6Xc1gDQAydqWrQxEAZLNxFoFogDJ6mArA1GAZDOxVoEoQLI6tF4GDAEJ8AeiAIkYWgkAoADJ6mArA1GAZDOxVoEoQLI6LLjc+McYcIecu6zK7fW7J+znXIlk5bxCaKDGQ2nNFihTGzZsAGQiEQKEACFACBACTgi4CtFv592f7/FnnESTmBVE4LiHcurcwArqEkmFECAECAFCgBAgBFYRATLVWEWDSbpCCBAChAAhQAisPAJkqrHyxoRkRAgQAoQAIUAIrCIC5F6NVTSYpCuEACFACBAChMDKI0DOaqy8MSEZEQKEACFACBACq4gAmWqsosEkXSEECAFCgBAgBFYeATLVWHljQjIiBAgBQoAQIARWEQEy1VhFg0m6QggQAoQAIUAIrDwCZKqx8saEZEQIEAJLQ4DW5A+PH/vO4OHthw/fPzxxhTanWazcdPTwv6ZVcqScg6b5Alch+sBYrq35imSNlU7guIeSNXtI6ZUtycS1RSWI6aToeTzcvkegJ58GShmVaxLJrcVKCNMJ0fNkuH3XckgIIY+SvzGdu6ishnSs823/0h86XPtFWyBDZ6MHGuJgOX9tJvs+Ge/uHfiJaP9N3XlbpDX5A8n0e+VKyKAyguvXofCjLlaftaqxITV6b1rd17Hu677mx7RFzxAwBKRZPZhdaRyFA+X8jRlzHAOYTonup9vbnxHNJ+fBr1OQIQCkMV6jt5i5IVs8R6l6sbmx7altbPM8aGK2+6mKF5+Vjn1Qkbb1dL3GIlFH+drxcDablmptubH74jI3e11NCn++NxBHSFALf5HMvLusehAdEz1Ph9r3iFMH2NkRs2qNRxkB0iyLWRVo13NkOMudVAgBkIC5a2mXx6M3V93bu8Jv0/r5qdgnokahv3MvgxDSL4tFb1Xd27vaD9DGO9MTd4wZxYHO3y21hNxy4kvjxZw/+ECbFGVpGqPc1Ls8kCHY8YYiYGiclxi5q0C95hPG5UpDA7tQvWZi/Absu7+74xBjrMvFPz0+ofT1PsHPrOeWU58uUMdaPcwteoaAISDN5D+n1DgKK1uS2Q4psK1NTFHa2ZnErdF4bqDrJXOLAl6nIEOABoC3ulGuZj2h+8JcEetnZBO3j8dTA93PN9m0Tlm8OKjpmuj5jchVEUJNKAEjgvLeyBclPPPJA2tXxKKXCELW/CBX/NRYfI2r/Zt97jjSzswlPhqdMPq7n2vSXONRhg7LjZOEdj2grcaGRCEEFkCARlS1sLnE7IhEdrrEEQ51qljTi1sKGoVM6eoSvSsS2WFKuEPFmlHcUqgusYSw8mfJfDHU85V2/2siH2fZCY4t1zoJZLgACJZVQUN6f1vXF9f039fmyllCmhRxtbeKD/qDvxe5JCfsDQYOYLVbm/kYT+nFj8XlA+HgwZkDFWS56BkChoAEpAhFUeLDfQNfbfe/IgnDovvJ9sCgUd6ozNCY3/bUYzg/h9pSEK+wI9K5PeDZLwjHRNfuNm8UV60b2/y2px5eVk58bfjI/YNDf13CQmH8oUOHfnro0EPjBaEGSFDynxg7+v3Bww8OHb07Xfa0sGPqNDfK8yP1vwksX1AVdgYkFSGxXLgQe34a8e/n2SQvvhDuekQovz+nwLNrYJQBaf7xnVzaeNdzaAg1RrTlIdCRHf3x0eSGmQMq3pAcfmgk3bM86VhbpRGvKH209KZAIaRvSibOF0IP+JiBisIhxKqVflraZ14m0M9LJS7mQtv8bF9F4ZdWotXSRVXpj5z8V6NHv3XkyP8aGb+lqE6eFAAytPay9TJsWGX5CfP6Bm5+kWO6SUrc62b7SnLIHH4cLJX6OM/LM1detCviibWeyHaXeaqmldeiZwgYAhKQautRtKF7EFOAD7rmFb5TjuHx4xW0ylWZfEjwvmzu2uDr1MOrScGv9PbdPdC/3UUp7shn1669c+3az0U8KkLIkG+Pxt+FPd/tW/PZvsjravZKc+mCXvqFmbzX3fZ87YIKbWCaoic/GtVcmDhHdSqKCFoCOxEggZazROuutyiGs9xJZZkIxL2+N7XCleX6JVOsXFTSjni80WXKx9IsjSRdp1kmj5C3lLyjxD8c9h/kWE7XJIQkTWcZNo+QW059vMg9EvG/zTKsrruXVuKqSieuXJ1VDwU7/3tvzw981EWx6MdKBgWmYenkAopAl60uzQ7e1nXpN8K9P2Iy/zwy8cmJ0Xvy/Hd7I69PTVVwdzZ2i+b7XkgqI9Si56JnCBgCkrWHtnLLUdql6Xy74Hux6XshOuUY2pBaq83w4k2xoe2HDv3oyNj1uvcb3cGh5hvWqYeXYtIsm2bZEoUwzWRq5TRDYYQEOX+pLjwRCb3Ks1lOejbcdtBKv4Uyrea3lpjnA+5CbeWy5DpiFLfkVcmsGp2l1AeLBm0YtWpDO2CUAamhnV2YtesthqG9AVJfFgKY8ezx4ItzsqfWPKOULtDE33q51j7GntCUJ9/zMKKM0q2JUjQUfo4z9zdce+fDFGV+gjfkW+LFWCiym6MMRGFc+3i+hJKgGwwSnuqI7HYJExz/lj/yf9zGpXlZRAjI0Bm2RTdECEeK6T8voYMe1yGB15TcRzKlYC05Tsl8JoOfigQHm78ZzPRm0TMEDAFpJqE5pdai9LOS458sC9s7AqNzHOYsOOUYziEws6AZXupAqPee/v4v9UT2MMW7jo3P862KGbPJEsE7Q6StWuUZYbB+hydmhOEmN1XMxNZKxjnZbI/o31E/c2lw/u90eD2Zke8PDv1gcPiuAvu6RGOaVmxxs6vAKAPSbI9GNfuud9yGjRoiy5eeAP2GzyvLuUvM71Lh/lKxTfTuXdgGfIJyZpHMMpquXJkoXMCH/tHPGQj7NV1nGBkhzDCqrr4nWbyEC91bkwK6hhm2hJCxhBJN0wZNJ2ZOs1MpjmHK5nmXQuM0nAGrLLYhVc19Ol460tn/fTeDke9Fb/HToxN3cv3/w8+els+v17S1I4M31XJlMEbxoQdT/q+tCb/ZePKx6BkChsAoA3gBw6korF2QjN75/7f3LlBuVGe+766XHqVnt1rqpl+28TjDwBCOISFDEriEYHuBzSszIcBAQsjJkJtzhmRYuYvMzZCZO7NOziTMnJWTTBJuyLG5gO/CQHJICAH8gIFcyAnMTEIgDLHddre7W1br0VLrUaoqVdW+q9Qtd6la+qSubqvl9qel1dq7/vX997d/u6p6q6okFbmnhgYOupp3tdbGWciw1vUGry3xlnnXpHlwcR/xCoGJqZ159dVeV+2MagNDxLsEivl269RDb72FnlqXMFphV4G8MRBMW5Yl/X1/5+9zGTrHcGVGvelEOisK0uIKDUrAKDvbKxfaaLTrAW01yAwXdTeBijf0sjB5ZUF9KUzfX9Lf6fEv487C09g1nlTcnnEjtV3y/WAklDRnQup7JW0q5DZvyTal5LaiuGc0lDglBUyJdlAibvdJI3+RbPzKu3ASpl/VVF4oEaI1T8MZtFU35CrqCHW9Wvs8p86Lv3XRO2SVCwnHeoe+FDp1TJM/NpXs6Rn+H34hAx7aVj1DwBAYZQAvYGhGUfWqRPx21bNnuP/nAtjVWhtnIcNa1xu8tsBbF0E5Qlhq+WREnbpQQbxWKlmXoOjKsE7eqb4XZIzK8NIv27AG1JXp5lzuPD74VbHBnVcqa75b8km5j6j8v0Q99R93r3MxPxbY/MjmbK80G2iy6wFt2dPC+hlAwPVK0H1dvjgqkos174/Nt7jd8GAJ5QMv+HmdZbmKMipL25Iz1+i+A37z6g7l/c8HeJ1j2YoyqkhXJ2d2auLBgGB0VjJcwedE46MzM9dKarSiXpibuUXiXwl5FTANZ3SBLjsz1F2eI6y8PVPYXNEDeuU9+dSuMvu2aB5oVE6Iu1wLT0EoMUTmXHGBa3FmtfmgOMsQ6DIgAW0BUYxe/tj01F2y8JO+8LSunCvL5lPV5u/8b+Z5FjJshsL8f9F8A2DVwi2Z3GVSebOibiwXd84kP6K7f+F3wf/VEK+VtuINvsbLNyZz51f0YEW+KjV7ftuHakYv7spr74RD4/VTaE6vDFe0qCpvzSW/ksgbwejT3vo1rBlUy8AoA9ISm8UFwK7nzHDR2knJuDA18dB4cmuDs20oWYE6oZEJhN7SiruyxZAY/LX9IwyAobXdVS+bM3fujdjgw+nUdYnJTxlMxu3fNxh9deHqDvdv0cHd6dT1ick7zK+f8j05GH1lDST+lYEhkklfl5i8zSAFl/fl/sEfLpzhADJ0BgsyFEoz/5QoegjlKb1g6tg2hhzvHfnbHujsNOWDDw4at6Vn75uY8REm6/K+Hh16MrCSmeYqZ0gIYAhIAN6mUZxS2FHWeSLdEpduqRnort77RyPA3YtnJcManQavTfFSljXU3CfmMn26QVk+4fE9Phh5odVdt4i3jjErPjbYb6Rm/2Ii7WGFN8N9T4iJy+vWaFoZmstdzAT+McDbJiceKf03M0WRsFmX943I8I9CnnxTj1NC01EGd9hT4fYCuOsBbdl9Vq9unnJr8kDJCmbZNCjnO+RP3zdHXhoSLR99OuUJGJ5aZ9ULzJYtW1bdFA2RABJAAkjgbCcgFuLfyfvuHQplz3YSne5/IB//dkZ4YGP0ty1On7Wb2IqH0n52pd2GcT0kgASQABJAAkig+wholxbKmUDg3VWaZ6xGBxeuhqyGFXogASSABJAAEkACa0SAoYbfMCKl9I2y55lYi1uPO5sjTjU6yxtbQwJIAAkgASRwOgh4SslvJoos5/l5f/+h2nfDnI6Glu+J92osnxlGIAEkgASQABJAAm0TwHs12kaFKyIBJIAEkAASQALLJ4BTjeUzwwgkgASQABJAAkigbQI41WgbFa6IBJAAEkACSAAJLJ8ATjWWzwwjkAASQAJIAAkggbYJ4FSjbVS4IhJAAkgACbRPQCzE90zP9bQfgGt2K4EVD2X1w66MLu9Ip64tKr2UTXv8z0T7XnQv/FwQY8jbU+mdRTlC2ZTH/2y072DHpZ656W8lJdsndzRv9N7hcJIQIENnowYYAhLQFhAFSM4Ma1HGlszU/bPqW/3nPhBsPZ0E0gCkWlsNXoEoQGpgVFsERAFSLbrBKxAFSA2MaouAKECqRS/vFTAEJKANIAqQ0NBKAAAFSFYHWxmIAiSbibUKRAGS1QHLSMApAS4SiWiXz0x9UvU+1R97IiQq5eztOXUy6J82/0PpH0pM3al4ftgf2xfyleXZ27NqPOif6qxUcXl/GQwdCIcXniG/LBd7PT3P+AQdytAZE2ddBtrqpOFCGj4p/aWsnmF1Rex5rdVPYDgd5S7pMoD3jM7wjE4eGBRAwi5bCQCgAMnqYCsDUYBkM1leVVALOxXXC0GPvLw4XLvrCKx4KFnCVArbStz+WOyA6JkUyIBKNb24o6AxxJSuLrEHY7H9pkT7VaoZxR2FSoclnRWmXK7J2jNBpUsq7gNhrwpm4ZlsPwAAIABJREFU6GysnHUZaKuThvNpMHrxU0np3Wjv4fa+lbaTGQJtdQnDLskQaVgJAIMCSFYHWxmIAiSbibUKRAGS1cFWBqIAyWZirQJRgGR1wDISWAEBlrgUZYT1vm2+99W3plMXuyN7gtwGWREI4VV5lPW+5TGlizKpS4XI7hA/Iiuuzkr13dPfl80HfD0vVy+oABnWR7VbAwwBCXAHogDJmWE1Srs8mdrkj+0V2YVrYIBXVQLSACTAFYgCJDQECFglgCEgWR1sZSAKkGwm1ioQBUhWB1sZiAIkm4m1CkQBktXBVgaiAMlmYq0CUYBkdbCVgShAsplgFQk4JcASr66zPJcnJFBK31ly7YuGDgu8oGteQryaznN8nhCflPl0UXgiFvodz/G67uusZO0bq+Z3lriXw75CdSmQoTWq/TJgCEiAPxAFSM4MCaGDuZlbteCDEW+ZkPZOajgcZWcZrnqX16sh4rUSAEYZkKwOtjIQBUg2E2sViAIkq4OtDEQBks3EWgWiAMnqgGUksAIC87cMUsIYpdtSpXgk+pLAUEJo9R8VZRhCKGtItyaLM5HYIYExCEMpJYR0UrJ0z7gwlxvyhPabJ1rMB5CGJWoZRcAQkIAGgChAcmYoKNnPZenPYr1jbc4yqs0AaQCSswzR0LoTAQwBCWAISGhoJQCAAiSrg60MRAGSzcRaBaIAyepgKwNRgGQzwSoScEqAJRLPabpyZSp1iSuyOyQYhIY0Xec4iRCZ41RdvSKd/IB56cSUwrpGOb7UWelU3xitsKtA3ugJpmuLgAxrqyzvFTAEJKANIAqQHBnSzfn872nyzZNjjx49+ujY9DaNbk0ee+R46g/NyWHTB5AGIDW1c7ptoCFAwCoBgwJIVgdbGYgCJJuJtQpEAZLVwVYGogDJZmKtAlGAZHWwlYEoQLKZWKtAFCBZHWxlIAqQbCZYRQJOCbCk4vaMG6XtknnpJGmeKFDfK2lTHneFEK0qbSsKT8ZCibWTan2jm3O58/jgc+LiTQhAhrWo5b0ChoAEtAFEAZIjQ+ZY79CXNozeNzr/jL3GMf8eGf7ycO8R8CQHkAYgOcoQ2qLQECBglYBBASSrg60MRAGSzcRaBaIAyepgKwNRgGQzsVaBKECyOtjKQBQg2UysVSAKkKwOtjIQBUg2E6wiAacEWEL5wAt+XmdZrqKMytK25Mw1uu+AXzAvo/D+5wO8zrFsRRlVpKuTMzs18WBAMDorzfeN0Yu78to74dC45R8nkKEzIoAhIAFtAVGA5MxQ5YS4y7XwFIQSQ2TOFRc4BbBzOpSAJdAvQEJDgIBVAhgCktXBVgaiAMlmYq0CUYBkdbCVgShAsplYq0AUIFkdbGUgCpBsJtYqEAVIVgdbGYgCJJvJ6lWNC1MTD40ntxpLLVGyMukSGtaUnJXN79Vg46KYrxR3zc5eP1ccYcSnB2Ivueb/n7MJUcxVijur0kbG++OB2CHX/P0dnZTMvg3nkrcr4iOxQMIy1SAESMMZEcAQkIC2gChAcmZojdK25gpiW9+rAaQBSNa2bGUgCpBsJtYqEAVIVgdbGYgCJJuJtQpEAZLVof0yYAhIgD8QBUhoaCUAgAIkq4OtDEQBks3EWgWiAMnqsOxy8y9joP3S3AcrwushX/3x3Dx5jpIFdJfQIM2H0pIsVGS2bNkC6aghASSABJAAEnBAQCzEv5P33TsUyjoIxpBuIrDioZw/Q9FNXcJckAASQAJIAAkggXVEAKca62gwsStIAAkgASSABLqPAE41um9MMCMkgASQABJAAuuIAN6rsY4GE7uCBJAAEkACSKD7COBZje4bE8wICSABJIAEkMA6IoBTjXU0mNgVJIAEkAASQALdRwCnGt03JpgREkACSAAJIIF1RACnGutoMLErSAAJIAEkgAS6jwBONbpvTDAjJIAEOkOA1aQ/OXniu2NH9x49+tB44nLt9DdLlZsnjn5tVj0bDr1iIb5neq7n9EPFFk43gRUPJW9myOjyjnTq2qLSS9m0x/9MtO9F98JPmjGGvD2V3lmUI5RNefzPRvsOroXEatJ16dmrJDliMFm3+M+R6NMir1fpAhk6ow8YAhLQFhAFSI4MabicvzE79/6yGqZsxuN7rq/veQ8H/rCr2Q6QBiA5ytD84uHecv7abO6jEj00vOExT933zDfzBNIApGZuYJe7heEZnXzzQekqvPSC2ZmbFO/uoXN+zROPTvLV4yFAvpnUMzf9raQk1MuaN3rvcNj8DUtHj+YMoR22eVMQeaCt5oaodCMBTk5/I14sieHHouHDXPdkaP4Ginb5zNQnVe9T/bEnQqJSzt6eUyeD/mlz1q1/KDF1p+L5YX9sX8hXlmdvz6rxoH+q01JlR3z6j3XfIwMD/29PYFIv3Jouaf5glSOQoTPKgCEgAW0BUYDkyJAqNyQyw57wDyORn4bEgjJ3a1ZJBAOTLd5AAWkAkqMMiXFRavKvM0pedFNZSwXDv+HbmWoAaQCSowy7heEZnXzzQekuvPQP5mYvEnq/HfYWWa7AcypAHZQqLu8vg6ED4fDCM+SX5WKvp+cZnzD/jsgSrV8wlx9wh170wu8BmjOEDsuWdmxFiDzQls1ledUV/3DG8prDtc13cpznDR8/Mpe6XvMe8Jm/jboqjxUPJUuYSmFbidsfix0QPZMCGVCpphd3FDSGmNLVJfZgLLbflGi/SjWjuKNQ6bBEaGW4Qg+Hev+XR0gL7td7w+9SdVAz36sDGTrjCxgCEtAWEAVIzgwJ49k3suHrfaF/9brHPb5n+8JjRvl8pcVJDSANQHKYIWHf6TnnLzeOfqtHnAMs6iUgDUCq96irQVHdwbAu3fpK9yff/RnyUuob48cfGjv2ZyXqLpx89MiRx48cefRkwT2P2lAvS5/82vGxR46OPTgRv72ouuqHYGlNZ4Upl2uy9kxQ6ZKK+0DYOz93cSv5u6Ynvj929JFjE/fNlv1tzK4BhoC0NLHFJc03bIeGi9ZY6iYCDJt1+18R+aCq+rooL5a4FGWE9b7tZgjRt6ZTF7sje4LcBlkRCOFVeZT1vmWe4tYvyqQuFSK7Q/yIrLg6KxHG87qPHylJEfOfJu0tlUYE/y+rJ96BDJ1BBgwBCWgLiAIkZ4a2KNbQ/YQrtDqHBqQBSLa2rFU4qsK7EuZZFtriVIvFETAEJIuBvdh+1FoxtGdsqXd/8t2foebt/fvhkfs2jO4VGcUXu2fTps9v2vSFmL86M9A+PDP9WYl74ZzRP9+04YEe/qKZ+J9Ky3pzqL8vmw/4el6ev6BiSHfEk39E/d8b2XjPSOxNNXdlGydPAIaAZNlMWhStG/aqGLZoD+XOEjCq09k25rQdS4slXl1neS5PSKCUvrPk2hcNHRZ4Qde8hHg1nef4PCE+KfPpovBELPQ7nuN13ddZiRD2N9Hhh7ns30wmPpOY+nLe9b3h2JvV/1RAhs4QAoaABLQFRAGSM8P6KO2y2XyfO/iqOYmEHkAagAQ4thnVIi1LA4AhIFkM7MW2o9aMoT1jS737k+/+DAnDzfL8LM+XGEJZLlstz3IMJYRT5m4ocT8diL7sEeY4fizY9yNR/3BeWjjhYRmIZkVWze8scS+HfYXqGm4pf5nu/mks8isXnxO8L0R7DjeLtCwHGAKSxQAu1m3Yq2EIN4fq2hBo/xh7+vObf2tJCWOUbkuV4pHoS4K5v1FCGEIoY/5hDenWZHEmEjskMAZhKK2eW+igRAiNFWf/uEQO+8UjbpemzH0iW+qtsgEydMYOMAQkoC0gCpCcGVqi9AvSJz9Tdu/tD09ZljYsAmkAUkOr+YXOopwZOmurvai1ZOiMhiVqLZM/o/F6FWWAqjdMHts9NlZ9Hr+7ZLg1LWCBCxaNC3O5IU9of+1+555KxcW5x2q3jFLOPd7GzacAQ0ACEzsl2reNFRuecsZClxBgki5XRSm9TzXaP3l8mlPnicRzmq5cmSpc4or8VUgwCA1pus5xknmDCafq6hXp4geEyP1VKaxrlONLhBgdlJjK3N3J0vGB0e/7OEqCrwaKd08lPi+M/peQIDdPwxk4wBDoMtBWJw0X0qDaJen454vcU0MDB12t57VrkCHAq5G0BhmuNcNGGBaWATQW1ljr5Ls/QwBv9RYwce9I9FeWXcc88wHEWCRGK+wqkDcGgmnLQkLM92+nHrrF+dRCWwFg6OxAtODfaNsA2rJlhdUzhUAu2P/Nysn/fOLY9aGhL0S9S+5N7nw/WFJxe8aN0nbJvHRifi6Lqu+VtCmPu0KIVpW2FYUnY6HE2klcRR2hriO1D23qvPhbF90oqxyYoTOWzroMtNVJQzMNql6VmPpPkuvh4cFnax9LBtIjIEMgecDTWZQzQ2dttYjqAobOaJhRXZD8GY1XdrtniDqk8ylBOPVMc2x7B2u6OZc7jw8+Jy58WQAhJOsSFF0ZrsUzRmW4jW/vABgCErDZANuGc8MW7aG8ZgTEUuazOfqL/qH/2uupbXprlky1YZZQPvCCn9dZlqsoo7K0LTlzje474BfMyyi8//kAr3MsW1FGFenq5MxOTTwYMD8/00lJd3mOsPL2TGFzRQ/olffkU7vK7NuiSRBIwxlXwBCQgLaAKEByZsjo5Y9NT90lCz/pC0/ryrmybD5VDb7MDKQBSM4yBKIACUgDkJwZdgnDMzp5YFC6H6/uDv1PH71q5uRNRXlA02KqfPHc7DVSO2ciCKMXd+W1d8Khcct5C8UbfI2Xb0zmzq/owYp8VWr2fOspjiYjDTAEpCZm5mKAvDNDoK02JOPC1MRD48mtDW63RcnKzxkNOlSWwu7AMwHvNGfZFk1jwNDa7qqXze/VYOOimK8Ud83OXj9XHGHEpwdiLy2ceGcTopirFHdWpY2M98cDsUOu+as/HZRY91tedqSQ+3gm87Fc/qIK96tI/yNBoWLSANJwBgswBCSgLSAKkJwY8nL2ntmyaFT+sJD/aH7heWWZ/ZeQmLVtb3X2QBqAVGdRX4GihNLM9yZn/iRXGqD6lkLuhmz2PzD+V1p8xwBgCEj1SdXVmkZ1DcO6dOsr3Z9892c4T5RuLGS3Mv5n/C7Lvzx20u8/QeUrsrMfn81uL5Q2Gdxxn+9oG18AM5xL3q6Ij8QCCevuxgi/FYXeUu7mdOaGQpnx9f0zU9rAt/xejaYMnR30wA0baKt+01tmrfmXMdB+ae6DFeH1kK+OlemPkpWyMxqkT5q7Qvc+F/TIVrMWeO2rWuvNh9K6FlBmtmzZAsgoIQEkgASQABJwQkAsxL+T9907FGrzThcnbWBMAwL091MTX1F77hkK5RqoThateCi75v5UJ73HGCSABJAAEkACSMBCgDGUi2RN4gXJsnCti2187GqtU8T2kQASQAJIAAkggdYEODnz9amcxxt+KCK28V1xrQ1XaQ2caqwSSLRBAkgACSABJLC2BHR3z1+f21tirbcLrW1G863jvRrdMAqYAxJAAkgACSCBdUsA79VYt0OLHUMCSAAJIAEk0A0EcKrRDaOAOSABJIAEkAASWLcEcKqxbocWO4YEkAASQAJIoBsI4FSjG0YBc0ACSAAJIAEksG4J4FRj3Q4tdgwJIAEksJYExEJ8z/Rcz1qmgG2vDoEVD2X1w66MLu9Ip64tKr2UTXv8z0T7Xqz9UhdjyNtT6Z1FOULZlMf/bLTv4FpIbrXw8XT2Q2XVT9gZj/+5SN+LnoUfNAIydMYYMAQkoC0gCpCcGdaijC2Zqftn1bf6z30g2Ho6CaQBSLW2GrwCUYDUwKi2CIgCpFp0g1cgCpAaGNUWAVGAVIte3itgCEhAG0AUIKGhlQAACpCsDrYyEAVINhNrFYgCJKsDlpGAUwLmb6Bol89MfVL1PtUfeyIkKuXs7Tl1MuifNv9D6R9KTN2peH7YH9sX8pXl2duzajzon+qsxOjFu6eS57l7/+/+2I9CvoyW/9OMVAgExluk4YyJsy4DbXXScCENn5T+UlbPsLoi9rzmbvkB605mCLTVJQy7JEOkYSUADAogWR1sZSAKkGwm1ioQBUhWB1sZiAIkm4m1CkQBktVh2eUV/3DGslvEgNNEYMVDyRKmUthW4vbHYgdEz6RABlSq6cUdBY0hpnR1iT0Yi+03JdqvUs0o7ihUOix5yoX3Uf/jsdA7Lj7t8vw8es4T7vI1cwoHZuiMuLMuA2110nA+DUYvfiopvRvtPdxyjlEN6GSGQFtdwrBLMkQaVgLAoACS1cFWBqIAyWZirQJRgGR1sJWBKECymVirQBQgWR2wjARWQIAlLkUZYb1vm+999a3p1MXuyJ4gt0FWBEJ4VR5lvW95TOmiTOpSIbI7xI/IiquzEmtQlmHLi73kkgIzoCgeMI3F1ZdTctZloIVOGlbT0C5Ppjb5Y3tFduEKE5BcVepkhkBbQJpAFCCd0YZndPLAoAASdtlKAAAFSFYHWxmIAiSbCVaRgFMCLPHqOstzeUICpfSdJde+aOiwwAu65iXEq+k8x+cJ8UmZTxeFJ2Kh3/Ecr+u+zkplr3jcKO7Iq16zl8ZAKXNT0WANA87QGRFnXQba6qQhIXQwN3OrFnww4i0T0t5JDYej3CVdBvCe0Rme0ckDgwJI2GUrAQAUIFkdbGUgCpBsJlhFAk4JzN8ySAljlG5LleKR6EsCQwmh1X9UlGEIoawh3ZoszkRihwTGIAyllBDSSckQQt/tD/izk98fO/aDsfEvFvg3vSxlWQVMwxkRZ/0C2uqkoaBkP5elP4v1jrU5y6jm3ckMgba6hGGXZIg0rASAQQEkq4OtDEQBks3EWgWiAMnqYCsDUYBkM7FWgShAsjpgGQmsgABPJJ7TdOXKVOESV+SvQoJBaEjTdY6TCKEcp+rqFeniB4TI/VUprGuU40uEGB2UCGGS/r6/8/e5DJ1juDKj3nQinRXNX8hlm6fhDIrc3BDoMtBWBw3p5nz+9zRt0+TYzdWEOEpJ8tgjmdA3Nkbfbj756GCG0GbTHQy7JUOkYSWAm6hBaDvHXis0W3nVGdr8sYoEQAIsqbg940Zpu2ReOkma5yvU90ralMddIUSrStuKwpOxUGLtpFMdUFmuzBCflPuIyv+Lz6ODGZ6KWlbBWZeBJjpoyBzrHfrShtH7Ruefsdc45t8jw18e7j3SfJ5BQIZA8t3RZWgTPaMzPKOTBzYbQMIuWwkAoADJ6mArA1GAZDPBKhJwSoAllA+84Od1luUqyqgsbUvOXKP7DvgF8zIK738+wOscy1aUUUW6OjmzUxMPBgSjsxIhhNMrwxUtqspbc8mvJPJGMPq01/z/CWTojAhgCEhAW0AUIDkzVDkh7nItPAWhxBCZc8UFTgHsQIarniEaWncicFiaigBDQGpqhxtA20c2ZAgQWKZkXJiaeGg8udVYGoeSlUmX0LCm5Kxsfq8GGxfFfKW4a3b2+rniCCM+PRB7yTX/RphNiGKuUtxZlTYy3h8PxA655u/v6KRExFLy69PJ6+eK52vcWz39342I+YX+Amk4IwIYAhLQFhAFSM4MrVHa1lxBbOt7NYA0AMnalq0MRAGSzcRaBaIAyepgKwNRgGQzsVaBKECyOrRfBgwBCfAHogAJDa0EAFCAZHWwlYEoQLKZWKtAFCBZHZZdbv5lDLRfmvtgRXg95EvYz7miZOXcJTRI86G0ZguUmS1btgAySkgACSABJIAEnBAQC/Hv5H33DoWyTqIxposIrHgo589QdFGPMBUkgASQABJAAkhgPRHAqcZ6Gk3sCxJAAkgACSCBriOAU42uGxJMCAkgASSABJDAeiKA92qsp9HEviABJIAEkAAS6DoCeFaj64YEE0ICSAAJIAEksJ4I4FRjPY0m9gUJIAEkgASQQNcRwKlG1w0JJoQEkAASQAJIYD0RwKnGehpN7AsSQAJIAAkgga4jgFONrhsSTAgJIIEOEWA16U9Onvju2NG9R48+NJ64XFvSLlVunjj6tVkVj5RL0LReIBbie6bnelqviGt0O4EVDyVv9pDR5R3p1LVFpZeyaY//mWjfi27W/Kl4QhhD3p5K7yzKEcqmPP5no30H10ICxgHIEIgCJNCQ9pbz12ZzH5XooeENj3ns36nb0JbVpOvSs1dJcsRgsm7xnyPRp0Ver1vV2JKZun9Wfav/3AeCrY9pzTOk4XL+xuzc+8tqmLIZj++5vr7nPdz8UNY1WF9pbghtAPUedbXmhg4zPAsZ1gGtrzTHawwXszfkihcqlQA1N7YXqxtbgx+aqDc8W/HSC2ZnblK8u4fO+TVPPDrJV4+H9WzaqvXMTX8rKQn162re6L3D4SQhbrXw8XT2Q2XVT9gZj/+5SN+LnoUDbH1EXa35KDvbK6FdD2irLiesIAGHBMxdS/twMn5Lxbf3nOjvWP3izMxdcaMwOvA6RwjRPzgTv0317T2n713W+A+ziTunjeKGgV90WgI6B2QIRAESYGhclJr8YoH5ddB9UpIBi3qpsj1x8gYafGiw/whnnDuXvPtkQhkZ/qlrcS2flLm7wJxo9zDXPEOq7Ejn+r3h3T2eDKP9YTZ1Wzw5t+Gc18zxAh7NDaENwJGhwwzPQobO8FbOlyo5f+RbUaFI9fNyqTtOJjMbBl9usWmdtXhpr6ZrHv8rHqFCCGlBCRgRkg/E/tJLF995UO3ymfgH3O6c+Uau+B+nkxvFvm+P+JJE+4O51CfjCWN08KUWza32XgntekBbUK9RQwJtE2AJUylsK3H7Y7EDomdSIAMq1fTijoLGEFO6usQejMX2mxLtV6lmFHcUKh2WCCF9pcw9UxMPmuc5x757In5LqTL/3xPIsG0EdSuChuw7Pef85cbRb/WIc3VBYIVWhiv0cKj3f3mEtOB+vTf8LlUHtcUTDYxe/FRSejfae3jxQAUZQhkynn0jG77eF/pXr3vc43u2LzxmlM9XFttq6AsYAlJDq/mFUJSjDMnZx9ApXvf+2MDesP8dt/uERzzUE4jTinVja2x79uHlpdQ3xo8/NHbsz0rUXTj56JEjjx858ujJgrsKyK3k75qe+P7Y0UeOTdw3W/a3sWPqrDDlck3WngkqXVJxHwh7VUI85cL7qP/xWOgdF592eX4ePecJd/maOQWe/wM7ESA1Ht/5pc13PYeGUGOorQ2B/tzU/zOR3rJ4yKdb0uOPTs4OrU061lZZ4lKUEdb7tpshRN+aTl3sjuwJchtkRSCEV+VR1vuWeZlAvyiTulSI7A7xI7Li6qxECClxwpFQ7GujG//3jSPfDZArEjNXm29DoAytvWy/DHSZEFLhXQnz+gZtfZHjVJOM53UfP1KSIubw095SaUTw/3Lxyot2eTK1yR/bK7Ktz6hWPeEMTzVLCGEN3U+4AnxIAxm235a13faj2syQnH0MrTxt5TbxujX5I9l8xB34pblrg4+zD6/m7f374ZH7NozuFRnFF7tn06bPb9r0hZhfJYQY0h3x5B9R//dGNt4zEntTzV1pLl3WQ39fNh/w9bxcvaDCGpRl2PKiAZcUmAFF8SwuaVACRhmQGhg1WWTd9VbFsEk7uLijBJKB4Nta4cpy7ZIpVd5f0o77A/GOZtGwMZZ4dZ3luTwhgVL6zpJrXzR0WOAFXfMS4tV0nuPzhPikzKeLwhOx0O94jtd1X2clQkjZE3wu4D0h8Hne9XY4/K+s8p7qm3Ugw4bdbbmwTcNWB29rO+xvosMPc9m/mUx8JjH15bzre8OxNxemKnQwN3OrFnww4i0T0qZnmxkSol02m+9zB19t9Z8GMAQkaw9t5baj2s2QkLOOoQ2ptdoKL906c2zvkSMPH5++Xg/898HeY603rLMPL8PN8vwsz5cYQlkuWy3PcgwlxC3lL9PdP41FfuXic4L3hWjPYSv9Nsqsmt9Z4l4O+wrVlcte8bhR3JFXvWbVGChlbioarGFUq03tgFEGpKZ2dqFu11sNQ3sDWF8TApTzv+inl85J/mrznFK6RPP8fwFh8TTHmqRlNjr/P48SxijdlirFI9GXBHN/o9X/fJRhzHfwhnRrsjgTiR0SGIMwlFbfnndQIoSISv6T8clvHhvbMza2+9jJKzU6f6ETyNAZ0lU3JITGirN/XCKH/eIRt0tT5j6RLfVWkxOU7Oey9Gex3rHW/wwWe9NehvoF6ZOfKbv39oenFkMblwBDQGrsVV3aXtQyMjwLGa4AL/NuZPjLo6NfHYq9yBW/eOJkg09V2N3Puk3UDsBS76lUXJx7rHaHJ+Xc4y1uqrAEm0XjwlxuyBPaXztzaQih7/YH/NnJ748d+8HY+BcL/JtelrKsYourrwI7ESDVezSr2Xe9FRs2awiXd54A+5tgQJLmPmB+loqOloo9nsDry9uAT1POPJF4TtOVK1OFS1yRvwoJBqEhTdc5TiKEcpyqq1ekix8QIvdXpbCuUY4vEWJ0UGL04menU7FA/3/r901yDKXlT03E5/9by83TcAZs1Q2ZytzdydLxgdHv+zhKgq8GindPJT4vjP6XEL85n/89Tds0OXZzNVeOUpI89kgm9I2N0bebTz5aZ0i1S9Lxzxe5p4YGDrqaG9UAAYbAKNeiG7wChgtrLzPDs5BhA6y1RS3xlnnXpHlwcR/xCoGJqZ159dVeV+2Mas3F8op4LTDmi+bbrVMPvfU+dGpdwmiFXQXyxkAwbVmW9Pf9nb/PZegcw5UZ9aYT6awoSIsrNCgBo+xsr1xoo9GuB7TVIDNc1N0EKt7Qy8LklQX1pTB9f0l/p8e/jDsLT2PXeFJxe8aN1HbJ94ORUNKcCanvlbSpkNu8F8KUktuK4p7RUOKUFDAl2kGJVcu/b3j3RfwnqudgGKMyoNP566da8zScQVt1Q66ijlDXq7VPnOq8+FsXvUNWuZBwrHfoS6FTxzT5Y1PJnp7h/+EXMuChrUWGVL0qEb9d9ewZ7v+5ABrVAAGGwCjXohu8Aobm2svP8Cxk2ABrbVELvLXVqq+UI4QqY9dyAAAWyklEQVSllk9G1KkLFcRrpZJ1CYquDOvknep7QcaoDC/9sg1rQF2Zbs7lzuODXxUb3HmlsuZtUz4p9xGV/5eop/7j7nUu5scCmx/ZnO2VZgNNdj2gLXtaWD8DCLheCbqvyxdHRXKx5v2x+Ra3Gx4soXzgBT+vsyxXUUZlaVty5hrdd8BvXt2hvP/5AK9zLFtRRhXp6uTMTk08GBCMTkt8mijvz8sxXY/JxZsTs+fV4AEZOqO76oa6y3OElbdnCpsrekCvvCef2lVm3xbNA43KCXGXa+EpCCWGyJwrLnAtzqw2HxRGL39seuouWfhJX3haV86VZfOpavP31TcDAnQZkJq5mQe01c7wLGToDC+rFm7J5C6TypsVdWO5uHMm+RHd/Qu/C/6vhnittBVv8DVevjGZO7+iByvyVanZ82tHG+tqDcuMXtyV194Jh8brJ/mcXhmuaFFV3ppLfiWRN4LRp731ayyxA3YiQFpis7gAODg4M1y0dlIyLkxNPDSe3NrgbBtKVqBOaGQCobe04q5sMSQGf23/CANgaG131cvmzJ17Izb4cDp1XWLyUwaTcfv3DUZfXbi6w/1bdHB3OnV9YvIO8+unfE8ORl/puGQIod1R9T/OTv+3NCm6vC9GYs/qJ0cWUAAZOoMFGQqlmX9KFD2E8pReMHVsG0OO9478bQ90dprywQcHjdvSs/dNzPgIk3V5X48OPRlYyUyzaYacUthR1nki3RKXbqn1Xnf13j8aAe8NbGpICCDVGmjw2jTKWYZnJcMGWGuLmuKlLGuouU/MZfp0g7J8wuN7fDDyQqv7ghFvDWz1lRUfG+w3UrN/MZH2sMKb4b4nxMTldWs0rQzN5S5mAv8Y4G2TE4+U/puZokjYrMv7RmT4RyFPvqnHKaHpKDvbK8FdD2jrVD6rXjBPuTV5oGQFs2walPMd8qfvmyMvDYmWjz6d8gQMT62z6gVmy5Ytq26KhkgACSABJHC2ExAL8e/kffcOhbJnO4lO9z+Qj387IzywMfrbFqfP2k1sxUNpP7vSbsO4HhJAAkgACSABJNB9BLRLC+VMIPDuKs0zVqODC1dDVsMKPZAAEkACSAAJIIE1IsBQw28YkVL6RtnzTKzFrcedzRGnGp3lja0hASSABJAAEjgdBDyl5DcTRZbz/Ly//1Dtu2FOR0PL98R7NZbPDCOQABJAAkgACSCBtgngvRpto8IVkQASQAJIAAkggeUTwKnG8plhBBJAAkgACSABJNA2AZxqtI0KV0QCSAAJIAEkgASWTwCnGstnhhFIAAkgASSABJBA2wTOhKkGU8n+X0cnbq7+anzbHcMVkQASQAJIYC0JiIX4num5nrVMAdteHQIrHsrqh10ZXd6RTl1bVHopm/b4n4n2vehe+LkgxpC3p9I7i3KEsimP/9lo38G1kABaQIZAFCABhoDUJYa1NIwtman7Z9W3+s99INh6Ogn0C5BqbTV4BaIAqYFRbREQBUi16AavQBQgNTCqLQKiAKkWvbxXwBCQgDaAKEBCQysBABQgWR1sZSAKkGwm1ioQBUhWBywjAacEuEgkol0+M/VJ1ftUf+yJkKiUs7fn1Mmgf9r8D6V/KDF1p+L5YX9sX8hXlmdvz6rxoH+qsxJjyFfOKalQ6Lf80i8/AzJ0xgQwBCSgLSAKkJwZLkT5pPSXsnqG1RWx57VWP4HhdJSdZbjqXV6vhojXSgAYZUCyOtjKQBQg2UysVSAKkKwOtjIQBUg2E2sViAIkq8Oyy4Ja2Km4Xgh65GWHYkB3EVjxULKEqRS2lbj9sdgB0TMpkAGVanpxR0FjiCldXWIPxmL7TYn2q1QzijsKlQ5LVeSMV879+eTxPUeP/mB86q68Ov9rpUCGzgYKMAQkoC0gCpCcGc5HMXrxU0np3Wjv4aUTs0a+QBqA1MhpYRkQBUhoCBCwSgBDQLI62MpAFCDZTKxVIAqQrA62MhAFSDYTaxWIAiSrg60MRAGSzcRaBaIAyepgKwNRgGQzwSoScEqAJS5FGWG9b5vvffWt6dTF7sieILdBVgRCeFUeZb1veUzpokzqUiGyO8SPyIqrs1K1b+rVs+UTkaG/2LThH8Lcxcn4JyWDAdNwRsRZl4G2OmlYTUO7PJna5I/tFdmFa2BAclWpkxkCbQFpAlGAdEYbntHJA4MCSNhlKwEAFCBZHWxlIAqQbCZYRQJOCbDEq+ssz+UJCZTSd5Zc+6KhwwIv6JqXEK+m8xyfJ8QnZT5dFJ6IhX7Hc7yu+zorzfftcE/sJ6IrxwnvhqM/9mofnCt5wDScEXHWZaCtThoSQgdzM7dqwQcj3jIh7Z3UcDjKXdJlAO8ZneEZnTwwKICEXbYSAEABktXBVgaiAMlmglUk4JTA/C2DlDBG6bZUKR6JviQwlBBa/UdFGYYQyhrSrcniTCR2SGAMwlBKCSGdlKp94497OLNh88FNuHm+UukD01hYd5kvzvoFNNJJQ0HJfi5LfxbrHWtzllHNu5MZAm11CcMuyRBpWAkAgwJIVgdbGYgCJJuJtQpEAZLVwVYGogDJZmKtAlGAZHXAMhJYAQGWSDyn6cqVqdQlrsjukGAQGtJ0neMkQmSOU3X1inTyA+alE1MK6xrl+FJnpWbdo2AazaLg5c66DHh20JBuzud/T5Nvnhx79OjRR8emt2l0a/LYI8dTf1ibozXMs4MZQltUw9zmF56FGSINK4GzcAPo/i5bBwjLSKAVAZZU3J5xo7RdMi+dJM3zFep7JW3K464QolWlbUXhyVgosXZStQ/aRkWvvVfXNyhaRXBlwAxb9byx7qzLjb3m83bE0JEhc6x36EsbRu8bnX/GXuOYf48Mf3m490gNXEPbM7nL0CbasLPzC7u/y2d08t2PFzNs8zgPbIcoIYHlEGAJ5QMv+HmdZbmKMipL25Iz1+i+A37BvIzC+58P8DrHshVlVJGuTs7s1MSDAcHorDTfn/dkU9eUKyG9cl4udUOZfzUklsE0lkNhcV1nXV6MX1LqpKHKCXGXa+EpCCWGyJwrLnDKkqysCzqZIdCWNSVbGYgCJJuJtQpEAZLVwVYGogDJZtJmFTAEJMAciAIkNLQSAEABktXBVgaiAMlmYq0CUYBkdVjVsnFhauKh8eRWY6krSlYmXULDmpKzsvm9GmxcFPOV4q7Z2evniiOM+PRA7CXX/BthNiGKuUpxZ1XayHh/PBA75Jq/v6Nzkvm9GnnmZwPi5kzyrnT2gyr3enRgr5/XzS4DaTgjAhgCEtAWEAVIzgytUdrWXEFs63s1gDQAydqWrQxEAZLNxFoFogDJ6mArA1GAZDOxVoEoQLI6tF8GDAEJ8AeiAAkNrQQAUIBkdbCVgShAsplYq0AUIFkdll1u/mUMtF+a+2BFeD3kS9jPuaJk5dwlNEjzobRmC5SZLVu2ADJKSAAJIAEkgAScEBAL8e/kffcOhbJOojGmiwiseCjnz1B0UY8wFSSABJAAEkACSGA9EcCpxnoaTewLEkACSAAJIIGuI4BTja4bEkwICSABJIAEkMB6IoD3aqyn0cS+IAEkgASQABLoOgJ4VqPrhgQTQgJIAAkgASSwngjgVGM9jSb2BQkgASSABJBA1xHAqUbXDQkmhASQABJAAkhgPRHAqcZ6Gk3sCxJAAkgACSCBriOAU42uGxJMCAkggQ4RYDXpT06e+O7Y0b1Hjz40nrhcO/3tUuXmiaNfm1XPhkOvWIjvmZ7rOf1QsYXTTWDFQ8mbGTK6vCOdurao9FI27fE/E+170c3O/xooY8jbU+mdRTlC2ZTH/2y07+BaSABHIEMgCpAAQ0DqDkNjuJi9IVe8UKkEKJN1iy9Gok+LfIPfGahPF+gXINV71NXAKNpbzl+bzX1UooeGNzzmsX8vcZ1RrQIYAlItusFr86huYdgg6dqi5snTcDl/Y3bu/WU1TNmMx/dcX9/zHg78ZV/TtLkhJNXSafDa3LCr8NILZmduUry7h875NU88OslXj4cN+tNqUc/c9LeSklC/muaN3jscNn/D0tGjOUNngwJtG0BbjnLHoDUjwMnpb8SLJTH8WDR8mFuzNJY0bP4Ginb5zNQnVe9T/bEnQqJSzt6eUyeD/mlz1q1/KDF1p+L5YX9sX8hXlmdvz6rxoH+q09KStBcXABkurrScEmAISEALQBQgOTKk6h/NlThv+MeRnueCvkyl8IlZORMMTLR4AwWkAUiOMiTGRanJv84oedFNZS0VDP+Gb2eqAaQBSI4y7BaGzpJXbkhkhj3hH0YiPw2JBWXu1qySCAYmu2cD6C689A/mZi8Ser8d9hZZrsBzKkAdlCou7y+DoQPh8MIz5JflYq+n5xmfUP2pJmuwfsFcfsAdetELTwGBDRuQrA3VlymwbTgyrLdvWFvxD2c0dMWFEAHKed7w8SNzqes17wGf+duoq/JY8VCyhKkUtpW4/bHYAdEzKZABlWp6cUdBY4gpXV1iD8Zi+02J9qtUM4o7CpUOS1VSxqZ86v84cfwHR48+NnbsH6bTW6unOoEMnfEFDAEJaAuIAiRnhoRx748N7A3733G7T3jEQz2BOK0Mai3e0wJpAJLDDAn7Ts85f7lx9Fs94hxgUS8BaQBSvUddDYrqDoZ16dZXwOQ9+0Y2fL0v9K9e97jH92xfeMwon6900wbQHXh5KfWN8eMPjR37sxJ1F04+euTI40eOPHqy4J5HbaiXpU9+7fjYI0fHHpyI315UXfVDsLSms8KUyzVZeyaodEnFfSDsnZ+7uJX8XdMT3x87+sixiftmy/42ZtfAKAPS0sQWlzBNtw2HhovWWOomAgybdftfEfmgqvq6KC+WuBRlhPW+7WYI0bemUxe7I3uC3AZZEQjhVXmU9b5lnuLWL8qkLhUiu0P8iKy4OisRQmJzif8zWSL+6D+MjN43fM6P/J5U9dQQkKEzyIAhIAFtAVGA5MzQGuXW5I9k8xF34JfmyEIPIA1AAhzhqArvSphvsmmLd9qWBgBDQLIY2IttRq0hQ3vGlnqbyZu/emzofsIVWp1EBQwByZKRvdhm1Bri1by9fz88ct+G0b0io/hi92za9PlNm74Q81dnBtqHZ6Y/K3EvnDP655s2PNDDXzQT/1NpWW8O9fdl8wFfz8vzF1QM6Y548o+o/3sjG+8Zib2p5q5s4+QJwBCQ7CPRvG7dNlbFsHlTqKwBAaN61G9x6O9oXizx6jrLc3lCAqX0nSXXvmjosMALuuYlxKvpPMfnCfFJmU8XhSdiod/xHK/rvs5KhCr/25xUCUT/qdf/rts17fa+FvJPVSkCGTrDCBgCEtAWEAVIzgyrUXTrzLG9R448fHz6ej3w3wd7j7Xa3IA0AGkFGS6EtsprsQUgDUBajF9SahW19gyXpLy4oFXyp9bULpvN97mDr7aaawKGgHSqmaWFVlFdgJfhZnl+ludLDKEsl62WZzmGEsIpczeUuJ8ORF/2CHMcPxbs+5GofzgvLZzwWNrbJUtYNb+zxL0c9hWqklvKX6a7fxqL/MrF5wTvC9Gew0tCli4AGALSUp8mS+q2jdUwbNIOLl5TAu0fY09/mvNvLSlhjNJtqVI8En1JMPc3SghDCGXMP6wh3ZoszkRihwTGIAyl5vnYTkqEVIZVMu71ykt4AGksWbetBYAhIAHWQBQgOTOsRjHvRoa/PDr61aHYi1zxiydOtrypHkgDkFaQIRDaWALSAKTGXtWlraLWnuEKkp8P1S9In/xM2b23PzwFeLWi0QpUY+tWUV2N16soA1S9YfLY7rGx6vP43SXDrWmBxn1dutS4MJcb8oT21+537qlUXJx7rHbLKOXc423cfAowBKSl2TRaYt82VmzYqBFctpYEmKTLVVFK71ON9k8en+Z8eSLxnKYrV6YKl7gifxUSDEJDmq5znEQI5ThVV69IFz8gRO6vSmFdoxxfIsTooDSPYH4CZMMhN0/DtmabVcAQ6DJg3knD+TTKvGvSPJa5j3iFwMTUzrz6aq8LOP/b+QwBXA2lzme45gwbcphfCNBYiKLaJen454vcU0MDB12t39gAhqu+zc9n2M14zTdSjLh3JPorCznzzAcwJBaJ0Qq7CuSNgWDaspAQ8/3bqYducT610FZY9UFZ8G+0bQBt2bLC6plCIBfs/2bl5H8+cez60NAXot4l9yZ3vh8sqbg940Zpu2ReOjE/l0XV90ralMddIUSrStuKwpOxUGLtJEL4hEBGFfMeEdsDyNC2ZptVwBCQAHMgCpCcGS6JohwhLKXwkQ1IA5CWtLW4wFnUYvySEmAISEtsFhcsJ2ptGC7muqTUInmqXpWY+k+S6+HhwWdrn0tf4lG3ADAEpDqL+spyoroOr+x2zxB1SOdTgnDqmebY9g7WdHMudx4ffE5c+LIAQkjWJSi6MlyLZ4zKcBvf3gEwBKT6cVhSa7JtODdc0gIu6BICYinz2Rz9Rf/Qf+311Da9tU2NJZQPvODndZblKsqoLG1Lzlyj+w74BfMsAu9/PsDrHMtWlFFFujo5s1MTDwbMz890UiKM++dBj38u+blsabNaGVTk9xYK51X5AWk44woYAhLQFhAFSM4MWbVwSyZ3mVTerKgby8WdM8mP6O5f+F3wpgakAUjOMgSiAAlIA5CcGXYJQ2fJM3r5Y9NTd8nCT/rC07pyriybT1WD7zMAGAKSswy7H6/uDv1PH71q5uRNRXlA02KqfPHc7DVSO2ciCKMXd+W1d8KhccvsXvEGX+PlG5O58yt6sCJflZo933qKowlHgDwgNTEzFwPbhjNDoK02JOPC1MRD48mtDU63omTl54wGHSpLYXfgmYB3mrNsi6YxYGhtd9XL5pl27o3Y4MPp1HWJyU8ZTMbt3zcYfXXhaiL3b9HB3enU9YnJOwwm6/Y9ORh9ZQ0kZqrnnK8z6Y/PzXw1YzAMl3H7HvfOXzwFMnQGCzAEJKAtIAqQnBhSljXU3CfmMn26QVk+4fE9Phh5odVdgYQAaQCSkwwJIUJp5p8SRQ+hPKUXTB3bxpDjvSN/2wNd4ulkhl3D0AleTinsKOs8kW6JS7fUDHRX7/2jEfDuYGCUAanWQIPXplFnAl7+1YFhOZu5Lh2/UTMIy82YX4VXdwWkQY+ri4bmchczgX8M8HVzCVZ8bLDfSM3+xUTawwpvhvueEBOXN7NYXN6UIbg7LMbbSuC2AbRls1nFqnlCq8kDJSsYJzTM+QXDNJjImcaAobXd1S0zW7ZsWV1HdEMCSAAJIAEkQMRC/Dt5371DoTbvdEFkq0SA/n5q4itqzz1DodwqOa54KLvm/tRVAoI2SAAJIAEkgATOXgKMoVwkaxIvSF3EYOFqSBdlhKkgASSABJAAEkACDghwcubrUzmPN/xQRGzju+IctOAsBKcazrhhFBJAAkgACSCBLiOgu3v++tzeEmu7G3TNs8R7NdZ8CDABJIAEkAASQALrmQDeq7GeRxf7hgSQABJAAkhgzQngVGPNhwATQAJIAAkgASSwngngVGM9jy72DQkgASSABJDAmhPAqcaaDwEmgASQABJAAkhgPRM4E6caVLl54ujXZtUzMff1vC1h35AAEkACFgJiIb5neq7HsgSLZyiBFQ9l9cOujC7vSKeuLSq9lE17/M9E+16s/VATY8jbU+mdRTlC2ZTH/2y07+BaSMDwABkCUYAEGAJSlxjW0jC2ZKbun1Xf6j/3gWDrKRnQL0CqtdXgFYgCpAZGtUVAFCDVohu8AlGA1MCotgiIAqRa9PJeAUNAAtoAogAJDa0EAFCAZHWwlYEoQLKZWKtAFCBZHbCMBJwS+P8B18ngkb+haAMAAAAASUVORK5CYII=;" vertex="1" parent="1">
          <mxGeometry x="121" y="600" width="718" height="366" as="geometry" />
        </mxCell>
        <mxCell id="0Tt-LIvOdCL9mjun2moo-12" value="" style="shape=image;verticalLabelPosition=bottom;labelBackgroundColor=#ffffff;verticalAlign=top;aspect=fixed;imageAspect=0;image=data:image/png,iVBORw0KGgoAAAANSUhEUgAAAz0AAAC5CAIAAACNw8ZxAAAgAElEQVR4Aey9CZhcVZn/f87db+17V3dXdycmwRhWI4vgNhMCjCCbKEhmWEQdGJf/wx9nEBxwlPGH2xjFccCFB3EgowKyKQSYBP5sAfUHCQiISUjSW3Xte926+/k/t7aurq6q7nQWmuStp5/Uueee8573fM7pvt+859x78YoVKxB8gAAQAAJAAAgAASAABBY9AWrRewgOAgEgAASAABAAAkAACFgEQLfBPAACQAAIAAEgAASAwDuDAOi2d8Y4gZdAAAgAASAABIAAEADdBnMACAABIAAEgAAQAALvDALMO8PNReGlWfzyrtgJpOoL5u8bGrqPx/vmmLF2cvcn2YEvhGz6vhmC2kAACAABIAAEgMBhQKCu24wV+cz5+dIRqiFiKs7bNwZD/7uvomR/0sOmfHoydVZJ9hMqKTgeCQY28VRNQe1bM2RpZuI6yfHNQe94TYORyqWjE2dqllUTUwWW/7PT9yuvLYMRopzrlzsogig1c/N4ed/aPVC1FwTKjJSy5+ZKRyuak+Asb3vSH3zQxpiWj8RTKZyXzZ9QUT2ESgv2jYHAYwJNEPLmJ3+UkNiZ/dDF4DURT6Ka6VAK52Wsin6DGJz334f9O/GctUg4F/16QVgf8W+HSPBMtnAEBIAAEAACQAAhS7eZR6Ymrs2jVzz+/wpyeWz6Vb3M7GMkaf+yNU6JR9ep9g39gTcp87hM7PJJszQSfoHe11YoNXdZ1nx20FMXbXV7+I1A5GcOmjKNcCV3SWrqc8zId10MQYggbCwqMO0AFgSKaKskLefw/yjIloixMpe8ZCqRHhl4mkGIKGekcn2i5w6vkMb6UdnkumgiP9K/hUYFZ+h6kUzDIPqH4tGTeD5XdckuJb82Vcq7fb/wilGGogjKV4v2roUQjrkDTxYmrsg6/tXPG+29g2MgAASAABAAAoc5AQbRSu6SnPFq3/APnJY0QQjtEupQKDV743hqpYkw5h4eCJVyibMlTaDEu4YGn2ARrUtnpTNryoqf4BRv3+z3PypaQRpaTn93ovzc8PADXNUOkS8emzjaOXyDjyNa9utj0ishcWm2sEI3aIp/0Re828Ur9QY7f2GtuLZMbRoMPSFibJTPUIluls4oai962EbIjRyZHPtyWfyv4dBLexGnISvz+aW851ZhWn7UPFBpNs7SBLFR3ru0UPqAqlOI6S0jutGoGjSXFtKfyJXerRoCpmKCa0NfYOusFWpGK1w9kQw6+r8ZtBURwqa8NpX6aEkJmUSmuT12789CzlooqzMmhOYBqlNVzD8RCjdPTHqdp5aKAzpBDEZY+M3QSOMUPxrQjh/NrFLIFhs2KHaiNr7V06xceJ/G/2+/qFpBOuXvUoWSf+jbHq4NWq9atWYwv8ktnJnOHeft25uhbPgI30AACAABIAAEDmUCDAqXS4O0Y4OjLtpaO2ty3m8s87JG6crR2IfjiVF36Powr+uGwSJE5AuiU2tpz08i4Z2UuTyfvCoatQ0O3TNLA7UatNJEOjfLf39g5PsM8kjpa6eil9Ijt9t7LXoyqjxMiQ9Zlo1j08kTWf8d9tylssIhtin4CEYGQtWlvfYGux4T+cSSvsvrSHYv4ZNK79WY12zt+qO9Rk8aoXzsq0l1uy/4H3auiIwR2UjOihRivXxFNBmx9d1UFW0IkZFs4lKJ+8VA3ysMEnRticFk21ttP54PqPY6M495Xf5QtuDnXX/otEpOmYYD0cVZziNkHJ8tOO2hp6vrppRaPkETn2Olz01MHaWZGiP80ev/rYOzJN2Mz4xazTNZu2N7Mn1ihbxkb9fTzTKQAAJAAAgAASBwWBJgSEjTEctNWZdI8r7YrmuKJka45Br4fF99s7xGUSoiIuf5qU/MIIQ4K6LFS/m1Kn//iP/l6qX6ZX/ogcrox3Plh8OO6t6wHjCpV72+V6vrsDmb7xFb/rOF8t12Z6V7DVE3GFooIGSX0p8usfcMuf9aKjKqYUeoodvwG4GRzwW6m+h0htLl5Qb7RnW31szz5JjE7v9OIIwIhflnggN32eYI4vWgIRPlI3lJc/b/2Gev9XGSn9GaaYXWKhdNxY7jgv8ecliEqx/KWpWlkyybphFi2MlGfo/veYDqVpu8N777nwsGhaikzXPLgG9XB8mkn5wpBHjP87MkHaUWzirTT0fsxap5VlPCRF6bY37nCz/IYr+U+Uw86sDDbeq8rVbTM0IL2znzJFml7bBU2qQCCSAABIAAEAACyNrfRhFrsbEaqcJvBIa+4jNXJyfORo0VyDolPG4Ta1uXahleVRUZcef0Yh+zU2AESQ0gNDUHWDo5vXkOx1makbQAQuPdaxGMESKUKV2cKMX9Q5tZHECYVN3uXmnuM5SmBRATZ2crFPxXX+R2B4WJGZTzFyUnv4giP3Q112Q7WO5BYwJpERXt8Yhyh3pWlor1U2Opc1TxtgFXVT3XyuHdntBvlfg1e6Q3Xe4n3K5tXK+QZK1Ob1DYyF+/O3FMfWDxX4JLbvI0g6z4TX/kOg8RDPXIQubqMfXOof5npwcXIWQcmZr6TIXfEPFMtHfEPDqXGxS8tzRCrbxh0oh/tC+0uWoh5g79qrLnnwrS3XZHizpvrzVtFbNxBvk0nUKg26apQAoIAAEgAASAgKXb8gyDZS1EUAajCsNNIHPJbCWDkGJtLm//zC44OwchMlPykFY9YN2aaO337/WRaVo11A+nSiex/hvdrImIx9AJzezjLZ2YmDyi5E4eKwwb5SzXJnheV/Zcmy/1ubyxXj5a52ZbauZU72noXN9dSK21u55l8heky9tC9ZCVxYQWHxwYeVIpr8ll/3Esk/SEvxew9r31+PQGRWjnz4ZFsVFfoWvs68cVhhu3BobfIbLO0YmzCurzPq6+7kz096Winy/R9w2GN3HNPtUrYr34sSL6U9iValjWKMqkqJa1YJxmabqiiwg1ddvsWo3aFkiFwixpuemh5RwkgQAQAAJAAAgcxgQoK5BW0MsfqJjtF+SeVDI8J+ny8unHjunLZF3lOOvibW01I4LZCOwY6tB0MStyE1GaN2Uaw6qus1y6Z1s6L+wxy6eV2HtDbks8EfUYSZ8Q+LkWZHsaRYhgSkUm31szNtRYbzi9aCAmxqJhRWnZxD/DMSL4v90XuD3sLRYTny3qM1dkcYF3PNg3dG2fOJjLntC2yX+GGetgLlBUiuPGGz8JulufCI2sKGz9NFHXxCa+IHF3RgYe6fDsFbIsl1vJuDbapmW9wvNTZuVYubnbkPSpusqwLTq7Q62W3liTR6XwXCPTUgOSQAAIAAEgAAQOCwIUUmze39rMNbHo5fnyuxVlSUVaNkNmIc40eIQY0xRaLqSq6HmcV85PpFeruktXj8skzpe5TR5rC5fB8qOUdnKuuFQ3XFrltFRu+UyUy3LJ0yqa29BW5pLnVOgtblu3NcRaPcI4HnMyBk1RmjKsSGsT8bN02yYn29QFCJlHJ0d/vidxbEvWzDY7HJkMk0Z6SGvpVaMUZ2h9mhZWlaMKyU8VzVGHvfVGToYQChGGTAfYetBAmH/WJTjyiauy5WWqNqDIxxSLK1sUmMqyOYw03nubnzsyEfs7teaPubKQ/YCkhHTDrSurKhpHMdluQqvh9jxANYq2fFNq8VPp3MlSZZmiLqmUzoon/tbgX3BYt2Jgo/LxyYkrZPbhgGfSUN4ly9aPqjd36GGj9LGC/obHvafFN5NzbbSZp8bjZ0pqUFOPzsU/JTHPuMXGZkTUsda0R0Tr01GKneMG3unykAICQAAIAAEgcLgQsJbG2M39kWIm87Fs/G90g8F0irM9b7PWyOzF2A/iRWdNoKRG70jhsj30LwMu68ZGzD84MKCk0v8wkQuaOCPYNg70/a62w4ly/LrP84+p1Df2JAyaf8kb/B8y9bfTQNmnvOKy1MTFimEywgsha9d/B+k0XR4hRL8cHLgjlTwnNn6JibO8/d6B4DOtq61WYTIzUjWjfscDkxV20ZkVsoGF5javWkGyKjX+w5R1X4DE8q94++/2VkWMnr9mPH20YfBVIIPjO8/GVN4evKHflelBA+EJb/93cOqT+fjX0ibGdJq3/1p0znIJRz19/10Z+0wssyPi30EhZFTOymTDurWYm+Jt9/QHts3dw/mAam+ZUJSp5i7KpwOGSSgmJth/PeB/vHrzAa0Uz6gYDJI+FZU+1ahncL4bh/21GxcG87nV2Pn9xhNkGkWYZ8KDKJ06Oza+zkRFTny6b+C34rT3XWrVa2NDPkKldgmNVdqGUfgGAkAACAABIHDYE8ArVqw4eBCwlv36aH5HZOTuxh72g9d2h5bMYxOj16jeL0c8zb1ZHUpB1sEl4MtPrs8wt4z0bZ1WegfXA2gNCAABIAAEgMAiJXBYXxqp19zuCSV/ujxXvG+RDt6h6BZR1ublqNvz6mE9Mw/FkYU+AQEgAASAwH4gcHhfHQ3ee4eH+kgqFwHlth8m076bIAP55KnIc6cHngCy7zDBAhAAAkAACBx6BNp3iR16PezdI/yWf+jK3kXg7MEjgKOeyJWeg9cetAQEgAAQAAJA4B1F4ODub3tHoQFngQAQAAJAAAgAASCwqAgc3uuki2oowBkgAASAABAAAkAACPQkALqtJx44CQSAABAAAkAACACBRUMAdNuiGQpwBAgAASAABIAAEAACPQmAbuuJB04CASAABIAAEAACQGDREHh7dBtZmhm/fVd0zT6+YXTRUNzvjmAt+42doxcqnR5PYha/vHPHr3dUf3aOfaJjmb1zyFg7ufOnCelwv7d476AdgNJEuXB0580Z9e35pUTwW3kAxhRMAgEgAAT2M4EFX6tJ5dLRiTOrwotgqshwrzt9v/LZEy3vqezuKpZpNsbRxbfpAtXdsXfCGcq5frmDIohSMzePt7yrfZH5jvXcDaPl55YMPkXP1zNsyqcnU2eVZD+hkoLjkWBgU4c32c/XWrWcsTyfOT9fPkLTRUQlePtjgeATAky7jgwX8lu5gFHu2PaBy1yQh8RXKZyZzZ0qkc3zfbkL8VQK52XzJ1RUD6HSgn1jIPCYQHf6j9eB6ytYBgJA4HAgsGDdZsHBe7wDt7hZRIy+SuHC1NQ/o6Hr/fN6YuqUO3yD+3Dge0D6SBA25qWPD0jr8zRKaVpw765axinx6DrVvqE/8CZlHpeJXT5plkbCL8xb9s1yzFyVmvxKznzV67vVxuUx8auaxIBom8WpkbGA38q9H+VGYwfre+89NI9Njl9dxNtc/JQkz9dNopyRyvWJnju8QhrrR2WT66KJ/Ej/loXP3vm2DOWAABA4zAjsk25DOs3EWdZE7BTHG0r5Wqkc9vNTavbG8dRKE2HMPTwQKuUSZ0uaQIl3DQ0+wcgXjU+cpxBLdWDxlyORjWwNOHlPcvQy0xGT86sN9km/m82nP6RRW4ODt7hYE6FAOb0uW1qlaE6C85z4jD94r501EKK6t/VKeeK7eeGbw4EddYlDVqRGv1ZxXTfkm+w5yNiU16ZSHy0pIZPINLfH7v1ZyJlAiJbT350oPzc8/ABXrU/ki8cmjnYO3+DjiJb9+pj0Skhcmi2s0A2a4l/0Be928UqtIVM9OZM+uyhFDCSx4nP+wD0OTu3p/P9aFbEo576UyK1WDIMRtvhCG1xc3WB3/2ldOiudWVNW/ASnePtmv/9RkTHr5c2lhfQncqV3q4aAqZjg2tAX2DprAjBa4eqJZNDR/82grdi9IdR9UEL5qa+mJb9hsghduWuH9VhjzD0UGf5Vz5fSYq24tkxtGgw9IWJslM9QiW6WzihqL3rYvZN/DZ8pNfcPOf210PAPXHUCuwSxdrLHtHmCRd0YLnwCNFya/c0rhb9PZd8vawJmX3e7k61yvMu0sXB2maJV+51HuVeXu/5WIuuFwl0mdu9R7sawlxts737NhlfP6fbHobeHXc0h6g1v//V+Lk4K1+bmrduw8JuhkYZNfjSgHT+aWaWQLbbWEW2ch28gAASAwMIJzLpsL9hUVRxgAyGT835jmZc1SleOxj4cT4y6Q9eHeV03DEuiCb8ZXn4vMV3l5HdibbvbyFBZfXxo5IX0+NWJ7OaB4evU2LdyxUGXbxyhMs3ucIceFNgcNoeLqc/H4tnhyONsr7ZKTtdr6fTfVHw7bNUQC1FOKOu7Xc7oHD0kI9nEpRL3i4G+Vxgk6NoSg8nOUaV6mkjnZvnvD4x8n0EeKX3tVPRSeuR2O0WQ/sH45BWa/Zf9w9tYHChnropHWWr4FzaqFyiLjbo2U7mvb/AuHoeLqS8mojQzfLuN6iViiHxBdGot7flJJLyTMpfnk1dFo7bBoXuqgimUj301qW73Bf/DzhWRMSIbyVnBAKyXr4gmI7a+m+YSbaj7oKSdoZvshKmkvhXXHxgKV0MOuELPcQFjVHmYEh+yXDWOTSdPZP132HOXygqH2DnVasfx6SuXhyj7Pc6mbJ0u1Yt8T4bTJmanuk6A2UUbOaZ0STRxIuu9bci9G2vvT8XXqWiifrLrtEGo1xTtNsq9utzrtxKhLv3qNcrdGfZ0o1e/Gsg6fHf749DLww5mprM0hoshhA2y4NgsZRoORBdn/X5NtwEpIAAEgMACCSz4L1NLe5gYA+XMBSVj1GFPNPI1ilIRETnPT31iiqJyHNsM3piYKlG4EQRqVEDI4O3bWGaHwOqMfYuNSfCcbOieqk6pCK6NTnGMZQoM95rH8xKlHNGyH79jW4R2POkgJ+YlR7UFWim/Txeec84dvKEQQZhOsmyaYScF2/N2rk1gTns8I0W96vW9ymCEcM7me8RmnlIoCwjRSv7cMv37cPBpgc3TzFuuwP0244MFiW/U7eh87eR2b+hhG5ej2Tc9wYdE/ZS8ZbDHh5fya1X+/pD/Zc4C9bI/9ACvnpar1iLKR/KS5gz+2Od4k+cmeXGL2zHRIqVMK4pTuWgqdhwX/E7IkenRTONUt0ExKDrDMBlriHGZYaw0Q1da2moYmPEt6gZDMwWE7FL60yX2npD7rwzNGIZ9Rqn5H5CgpiGOj1rtkvfGd23YseN/duz8ebxcj/Ai1JF8L4ZzNN55AvSoxEuFkw3+9yH/Vo7JseLjQe/2Rune06brFJ1rlDt2udZmt99KhDr3q8coz8mwmxtd+9XA0vF7/87D1ibmmrOtZVvT+smZQoB3Pc8v1ECrMUgDASAABGYQ2Kd4G1mWHvtlGlGEYIp93R2+xcPNVGN43CbmZrTX68Cg6RJCIsYmTReqf/EMUv8vr00pfCKdXy2rboIIQqxJXm63NLst6lWXU4rmT9IdmxkyXC55Bc8f5+4v3u0J/VaJX7NHetPlfsLt2sb1DHFNu0EnLdFW++A4SzOSFkAoqyhhop47vutjjXMUMRlBdyLUEkaa7TxCiNk9va+ZHuWZmsHxhp3Z315VFRlx53QfmZ0CI0hqAKEJpEVUtMcjdlv4UbF+aix1jireNuCaavZjdhstOfMYlJbScyUJxggRypQuTpTi/qHNLA4gTEiv8GJvk7U94dX6+E1/5Cte87jkxMfb7bWT78Fwqnd7qPME6DVemsbR/FsNIUlofg+DVlVbEXtNmx5TdI5Rrtpu7/Ic3VpAv3rNw2Zrs93o0a9mrQ6J/TsPOzTQkoWN/PW7E8fUZxH+S3DJTR5m5pwyjkxNfabCb4h4GqHTlvqQBAJAAAjsK4Hpa/wCLOExz8B/uhgdU3mG6RhQUah5ih5r046B6nqBYKy3uION0ucmkyFn3/o++ziNCalcNhr1tRSoJWe3pYnup9nxvymqT3nICWXjDa8jP6vW7AxCiw8OjDyplNfksv84lkl6wt8LdNzpRWbG7kgry6ZosP6mY9uGoeDWFjFEKLpt7XW287MdswJHHXNnZra0Uz/RzCHdLbgLqbV217NM/oJ0eVvI3gyOzrQ9fTTPQZmuMFdKpmnVUD+cKp3E+m90syYiHkMnNLPgO2bzDI0l696IJEYVhptAZKhTdLkj+SaxptezcxCa1wRoWuiSwK1j2rzdpPe06T1Fe4xyzYeOXe7injXpOk7s7uXrZ2YTa8uZ7UbvfnVscb/Pw46tNDMJ7fzZsFjfJomQQs+8Y5To70tFP1+i7xsMb+Lautu0AQkgAASAwL4Q6HQlm789jWaiHBdjO4u2+dvpXZJSK+82xSf8jjHaushhUwsbrRe7HrW5Z1x8pFgaVsurdfF5+8w/sj3qIVzgHQ/2DV3bJw7msicY1aIYGYgIZr1pbKhDreoSGRGledk1hlVdZ7k0QjLPx5E6aDBJlm3+pGiqZrKXC0hf0mJwRNG1qsEeVTI8J+ny8mmv9GWyrnJcyqrDxFg0rCi1eypmGyGC/9t9gdvD3mIx8dmiPue8mHtQcDUyOs+BQkjnhT1m+bQSe2/IHbPUgnqMpE8I/PwWqWd3CE+IYs4of6Bi7tX1sxfDBU2A2Z41c7IcqxhKpDEVsKlFGmM3j2nTaYrONcrNpvcm0Xli1y10GuVeDOduuGO/ulbb7/Owa0v1E1SK48YbP4nWXZtEXROb+ILE3RkZeGRfn18zlxdwHggAgcOXwJzX54Wi4UyDR4gxTWHWlRsT02ESChHRtG45nPNDGCaFlBMKcsgwQnLpwlhm5UybPdpKO91/1ksfy5bcNte2eXXWXFnIfkBSQrrh1pVVFY2jmGz1ym+w/CilnZwrLtUNl1Y5LZVbPtP1ZbnkaRXNbWgrc8lzKvQWt022Nu25H7CTNfGp80tyWNdDqrw6n/mo1FR4qIfzR2STH20YPLfCPO+2VVpaZKxFZMKQRpQSIVX0PM4r5yfSq1XdpavHZRLny9wmj92qhflnXYIjn7gqW16magOKfEyxuLKhGKybIFg2h5HGe2/zc0cmYn+nzkTc0m4tOeegmCwXQ/IH81K/Ybh1dU6pTRjHY07GoClKU4YVaW0ifpZu2+S07iZufrz56M/e2nO5NIdvtfKqzXufzfyb2OSnc+WVirKkUm5RtFaRjuR7MFzYBGg6PzuhiK4tjHxeIrdKM1yavCaZWdXoWc9p03WKzjnKHbtcc6zHb2XHiV2r1XGUezCs1eriRvd+zWbXyNnv87BheO++sVH5+OTEFTL7cMAzaSjvkmXrR9Wb21j3zhyUBgJAAAh0JYBXrFjR9WSvE9ZzdyePcA9/zdu2pw3Zi7EfxIvOhp4gCJftoX8ZcGURwnr+2rHkMQZp3mhFEC7Zg9cNuELJ0S8bwX8K28X85I8KtuuGvCkp8aMY+enSvlewuSSf/GymtMRAJU580u8x01NDvnf9wIF7tNVw3jw2MfqVPHpqcMnP53VPvrkyG7s0L4d1k0dUirdtCgR/L9YDdf5y6h9ThfdopkHzL3n9f61M/S0/VH8OyGhhd9AtFrInKobJCC/4gnc1nwNCtPdl02cXpKW6iSg6ztue9AcfE6gezlefv1DZ0m9bns4eXzX4vD+0wWk9BwTr+WvG00cbBt8gbGAqbw/e0O/KIEQZlY+m0qeWlaCJM4LtKV/gdzamIc+MlbnUJ/Pl5ZqJMZ3m7b8Oh/5grYEZayd3f5Id+ELIVg336B+eGvuM5v5mxL+jl9LtOigN8iRSTF2eKa7QTAozL/QN3eaYI96JTeVvU8lzSnLQxFne/mgwuHF6h58Vgjs6see6kvjDJeE/9XKs0b5VQzshk/5YUVqiGwymU5zwiidwp5MTu09R1JPhAidAi0dtSU4trktmPlDRBIp9xRN4XY59SLBmlKVWu0wbhHpNUYQ6j3Kvydb1t9Kd0bJf7zGxrc50HuVu87CHG3P1q41c83D/z0O2HP9xrCQgwpgEYUrHaLdv6KZZf+iaHljRbCnxX5P5tkdSGpzvxmH/rr2K97YahTQQAAJAoAOBBeu2DrYWaZazEP3PNPu9JcHXD9gfUEtmjeZ3zPfR6osU1KJ3Sz13fOw0fuDLIVvLLR2LwutDdQIcqv1aFJMGnAACQAAILITAPOMWCzG9SOroJxYraafzzQMm2hZJPw95N7ChHKFyT7vFxSbaDnny0EEgAASAABBYNARabxVbNE7tF0eq+3VMfzl1niz8LiQ01gr3i20w8jYQILTze8ucb0PD0CQQAAJAAAgAgcVC4NDVbUI58cNYiaKFZ/v6Ns/n9ofFMiTgBxAAAkAACAABIAAEOhI4DPa3dew3ZAIBIAAEgAAQAAJA4J1G4NDf3/ZOGxHwFwgAASAABIAAEAACnQmAbuvMBXKBABAAAkAACAABILDYCIBuW2wjAv4AASAABIAAEAACQKAzAdBtnblALhAAAkAACAABIAAEFhuBQ/d+0r0gTZQLx8aPcw7Xn1O/FzUPVNHq804Lrw8N38PPeu6cWfzyrtgJtRciYf6+oaH7ZpfZO7/a3pewd5WhNBAAAkAACAABIHCwCCxYt1nvuZo4U0MEYY2ipwTH//p9m2e8lehgdeGgtmMsz2fOz5eP0HQRUQne/lgg+IRANd9yY73Ui+XftLsf8Lnesl7mRU6I7bqmOOvV5thxy7L+F2ZJsnl1hXKuX+6gCKLUzM3j5XlVWWSFsJ67YbT83JLBp5rvO5vDQzNSyp6bKx2taE6Cs9UXhT1oY1pfXdrFAPFVCmdmc6dKZPPMt1lgUz49mTqrJPsJlRQcjwQDm+rvAieeSuG8bP6EiuohVFqwbwwEHmuf2OaK9MSNGfXPfe/6ngtC1l3YQzYQAAJAAAjsfwIL1m2WK3iPd+AWN8Pr6ups8vKorgz3P7tPBvd///arRXNVavIrOfNVr+9WG5fHxK9qEtO4bGPhvsG+52kzoEinZZJfk5T1keArNH4tMPQvPoQRCedj/09ZvLXfM2HJNSq1MNFW7Q9BePq99Pu1hwfHGKVpwcYL1OfVItFWSVrO4f9RkC0RY2UueclUIj0y8PQck808Njl+dRFvc/FTkjyzIeOUeHSdat/QH3iTMo/LxC6fNEsj4RdohIhyRirXJ3ru8ApprB+VTXUm3AEAACAASURBVK6LJvIj/VtaJKZdSl9ZxGNztD6zQTgCAkAACAABILAfCOzbtUenmTjLmSw3yupH7UmvlsmzjqoeMdWTM+mzi1LEQBIrPucP3OPg1Kq72JTXplIfLSkhk8g0t8fu/VnImaj1pEstSs3eOJ5aaSKMuYcHQqVc4mxJEyjxrqHBP5fGv5vjv70k1Hj3KDkyuec62f2VIV8UIdTFIEKIVwp/n8q+X9YEzL7udifnoaIoNfcPOf210PAPXPVIzy5BbBkCXGC5KQZNccJrNu6LY7HLs85rA0KF4SZqhWiMMB3nuPF5tFVDJcq5LyVyqxXDYIQtvtAGl/Ve+d4fWpfOSmfWlBU/wSnevtnvf1RsxqXMpYX0J3Kld6uGgKmY4NrQF9g6awIwWuHqiWTQ0f/NoK2IUK/x6u5KoJxely2tqobH8pz4jD94r501EArlp76alvyGySJ05a4dV1rin3soMvwroScUzD8RCjdbm/Q6Ty0VB3SCmJ61EPWGt/96PxcnhWtzM3Qb1opry9SmwdATIsZG+QyV6GbpjKL2ooclWPjN0EijLX40oB0/mlmlkC22elvYKF2WkN4MBtTkVF+jHHwDASAABIAAEDgoBGZdthfaKjYR0uuXNv2D8ckrNPsv+4e3sThQzlwVj7LU8C9sFEJkJJu4VOJ+MdD3CoMEXVtiMNl6k11rmZz3G8u8rFG6cjT24Xhi1B26PszrumGwqOR0bs9kT6mQ12uXVVJ5f8nY4XVOWTa7GkSmdEk0cSLrvW3IvRtr70/F16morq6697+vXB6i7Pc4mzKoa1FC2//XwdxQLg37hbd6S4uuNhBC6tpM5b6+wbt4HC6mvpiI0szw7TaqV6CKyBdEp9bSnp9Ewjspc3k+eVU0ahscuqeqikL52FeT6nZf8D/sXBEZI7KRbIkh1RzBevmKaDJi67upKtp6jlcv18s0u8MdelBgc9gcLqY+H4tnhyOPsyjtDN1kJ0wl9a24/sBQuBrEwhV6LxjxuvyhbMHPu/4wj119GsPFEMIGaQRF6z4zqjxMiQ9ZWIxj08kTWf8d9tylssIhtk0ZU6bhQHRxGpT+oURyqSP8NRu6qNdI9IID54AAEAACQAAILJRA2wVtQWZoQ31/JreCdrxY1Qe0kj+3TP8+HHxaYPM085YrcL/N+GBB4qvGKWtHHJ1k2TTDTgq25+2cVs3vXQshpFGUiojIeX7qE1MUlePYIkKEcT4nmu8rSkLVCF8pHW/annOwBKEeBnmpcLLB/z7k38oxOVZ8POjdPnfHSVDTEMdHLY1B3hvftWHHjv/ZsfPn8XKnd2jhGMcSXffPbbZXie3e0MM2Lkezb3qCD4n6KflyrZvd6vBSfq3K3x/yv8wxBYZ72R96gFdPy1VrEeUjeUlzBn/sc7zJc5O8uMXtqK7Y1o2ZVmitctFU7Dgu+J2QI9Noo9t4Nc53/q4Iro1OcYy13HjN43mJUo5QLJljUHSGYTIUNhEuM4yVZujKvGRbnfmduyfPMZy3DPh2zatW3b22sqJuMDRTQMgupT9dYu8Juf/K0Ixh2Nt7o5+cKQR41/N1jUgGcvGLdddP/GIFoTab7VXhGAgAASAABIDA/iewT/E2siw99ss0YggpCp6fDAZeqoYlREUJE/Xc8V0fa7hLEZMRdCdCCsK7PaHfKvFr9khvutxPuF3buHoAqWethiGEx21irnlkJej/67T9fbJ4tGn/E2WuKpZZW+BP1U71MMhoGkfzbzUEF6H5PQxaNcNshwO6Gl+p/oPf9Ee+4jWPS058vEvQpaaH9+1l9szu6e3w9CjPMJIWQGi8g2v1LK+qioy4c3pMmZ0CI0hqAKEJpEVUtMcjzlgvbDGlYv3UWOocVbxtwDU1LUm6jldL1Q5Jm1L4RDq/WlbdBBGEWJO83KHUXmVZzK/zEMFQjyxkrh5T7xyqb6bERv763Ylj6gOB/xJccpOH6TIs9RYJxggRypQuTpTi/qHNLA4gTEhbJePI1NRnKvyGiKcWi2WV7FVZ8uiAz4qhtpXdq65AYSAABIAAEAACCyQwfY1fgAE85hn4Txe9LBO9QqXibP1qb13RsG3DUHDr9OUfEYqurYcSWnxwYORJpbwml/3HsUzSE/5ewNpH1btW0zmFal8oLNqdW5OJUyTz/9oq7y+TrX32YrV0D4NBqwBuvfLOZ5t/nqGxZG2oT2JU3bVGhrpGK8mAoiJ2Xtvmml2bT6LV527lW6jXizRzSHe94S6k1tpdzzL5C9LlbaE6Qyu02GW8urVukTVKn5tMhpx96/vs4zQmpHLZaNTXo8L8TlUYbtyarvwOkXWOTpxVUJ/3cablofNnw2Jzp6FC1wR2L6MyTauG+uFU6STWf6ObNRHxGDqhmem7c4n+vlT08yX6vsHwJq7GjywrFJbr+tLxty6s2qYJQYld/512f3dJ8LUm4l7NwjkgAASAABAAAvtIoINucyH6PSY3l12iRL0p2h4ad7JjjoozkVmjBUfd1qJnmc4/p1eQ0BfvvgMpJ6L7PWijlP5i1nwXF9xKz6MWkSe86bIjbIjTu42qXpJHB2IfN91uShZ8+H6/t/bUjR5uJNGKbcQQ+KBZs2RIunP5TmfIEK0F1m6fPYF3/wErI1ToNaGm10jWPfQG9umiiHD2Lz49ZasbxEb5PezQM57gmGgJi9pHci55nRbKonvWQ0EaJVq/2eJbvgJhw2a9s4ZdGHrF5ouJYtMgovM7fHLcFjLrwgIl8IqXiOHmgmZ9WHW3MLTN7psSRZOoW4PJo/gAJfJ6a0NW2ki7R153u38ScJS0wmXJ8mkk9FvbDPUze7zabbQcU0qOePRf9wf21KOOZdmVG3UMmGJd3Rg484bPyIsN/i1155UkStybEsSg2cCbaKq2jvWN0m5fKWHva4JSuNJTSm4p4m+LBKMMQkTt44ae9vTJYjVQR7T3ZtJ/y71n/RHeP7fc+rB98Pgv9DcniPrhZM7hDD4q0gWGnh6Ujg5AJhDYzwT+QqkFtG/x/P3sEZgDAkDgIBHAK1asaGvqJFO8Sxlsy4RDIAAEgAAQWCQELuEn/0BVFokz4AYQAAIHk0DXlb6D6QS0BQSAABAAAkAACAABIDAngQ7rpM06/8lk/kjDf+maPCABBIAAEHg7CZxoiF/S932v6NvZBWgbCACBfSTQS7f9ka5AKH4f+UJ1IAAEgMD+JDBrf+r+NA62gAAQWPQEYJ100Q8ROAgEgAAQAAJAAAgAgSoB0G0wEYAAEAACQAAIAAEg8M4gALrtnTFO4CUQAAJAAAgAASAABEC3wRwAAkAACAABIAAEgMA7gwDotnfGOIGXQAAIAAEgAASAABAA3QZzAAgAASAABIAAEAAC7wwCoNveGeMEXgIBIAAEgAAQAAJA4EDoNrP45Z07fr2j+rNz7BNK85WOC8ZtrJ3c+dOE1Othc7NsYy37jZ2jF/ZqnSzNjN++K7pGm1UZMoAAEAACQAAIAAEgsOgI7JUUavWeVC4dnTizqnhMTBVY/s9O36+8tgxGiHKuX+6gCKLUzM3j5dZKiyyNZZqNcXRxlnjFeu6G0fJzSwafanuF/aLpwII8JL5K4cxs7lSJbI6M3C3U3/KOEMKmfHoydVZJ9hMqKTgeCQY28VRVbhNPpXBeNn9CRfUQKi3YNwYCjwm1V86TFanRb2S1JjyD89047N81bbU3LLI0M3Gd5PjmoHd8XlUOpvMknIt+vSCsj/i3N7vXuzdwFggAASAABIDAwSCwYN1mOYffCER+5qAp0whXcpekpj7HjHzXxRCECMLGvC7GB6OLPdqYcodvcHc4T2lacN+jhB0M77esvffQPDY5fnURb3PxU5I80w/jlHh0nWrf0B94kzKPy8QunzRLI+EXaISIckYq1yd67vAKaawflU2uiybyI/1bqnLWrRtlR+j/+EWjao5gOj7vQafU3GVZ89lBz2zRxkmp60vC+pCjOO3lQXYex9yBJwsTV2Qd/+rna72b9gVSQAAIAAEgAATeNgL7pNuQSrNxliaIjfLepYXSB1SdQkzv6xytS2elM2vKip/gFG/f7Pc/KjJmvf/m0kL6E7nSu1VDwFRMcG3oC2yd5SGjFa6eSAYd/d8M2lou7R0RYlHOfSmRW60YBiNs8YU2uDgFIUTki8YnzlOIJTOw+MuRyEa2Xj2Un/pqWvIbJovQlbt2XGkV4B6KDP9KQO9Jjl5mOmJyfrXBPul3s/n0hzRqa3DwFhdrIhQop9dlS6sUzUlwnhOf8QfvtbMGQljLfn1MeiUkLs0WVugGTfEv+oJ3u3jLjZ6fbga7e9hbNFFvePuv93NxUrg2N0O3Ya24tkxtGgw9IWJslM9QiW6WzihqL3pYgoXfDI003ORHA9rxo5lVCtliwwgZXgMlRXGM4xrD1yg49zdZmc8v5T23tsT8mpWwoS3R2JnDftCdx/wmt3BmOnect+8lCLk1xwYSQAAIAAEg8DYTmHl5XKgzxCeV3qsxr9m43qINEfmC6NRa2vOTSHgnZS7PJ6+KRm2DQ/dUr9+hfOyrSXW7L/gfdq6IjBHZSM5apsR6+YpoMmLru2lu0YYQUtdmKvf1Dd7F43Ax9cVElGaGb7dRlhwZXn4vMV3l5HdiM3a3pZ2hm+yEqaS+FdcfGApXA0u4QmMrhojIUFl9fGjkhfT41Yns5oHh69TYt3LFQZdvHKEyze5whx4U2Bw2h4upz8fi2eHI4zU5SKRzs/z3B0a+zyCPlL52KnopPXK7vbYQ2RV5N4PdPexqqnZCY7gYQtggbTqEUeVhSnzIGgLj2HTyRNZ/hz13qaxwiG0Tl5RpOBBdrA0KMbw66c9Ff5wzKcxM2pwP+T2vMr21Y8NDIp9Y0nd5HclGxpzfB9/5rN2xPZk+sUJess+vU3P2AQoAASAABIAAENhXAvuk28gxid3/nUAYEQrzzwQH7rK1SYJ273gpv1bl7x/xv1wVNC/7Qw9URj+eKz8cdshE+Uhe0pz9P/bZK9V6k/yM6qa1Daty0VTsOC747yFHZsbJrgfbvaGHbdbSbc4TfKi8Z12+fLfNWbNvYqpE4bZYkUHRGQoxVj4uM0xmpnA0ePs2lsECq1f4LTYmgTk5p3sIGseoIrg2CnU3XvN4XspNHaGQx9naJZ961euraZqczfeILf/ZQvlue92Nbq53M9jbw27WWvPbZIioGwwtFBCyS+lPl9h7htx/LRUZ1bAjNFO36SdnCgHe8zxfNYD5R8MDfyF0msaCVlmbSv3LpP6doeBrc0wByxFKl5cb7Bv1fXJ117Ce/8pYepkVDTUFIn1vV5ogNOqL3OyZEc87aM4TWtjOmSfJKm2HpdLW6QNpIAAEgAAQeBsJ7JNuw3/1RW53UJiYQTl/UXLyiyjyQxfbY2OYV1VFRtw53SizU2AESQ0gNIG0iIr2eMQZa3gtZFSsnxpLnaOKtw24ptqu3i3FZiaZ3dPigB7lGUbSAgiNzyw0/yODpksIiRibNF2o+mCQevjKphQ+kc6vllU3sUJzrElenrZLJ6cDUTjO0vNxo6fBadP7niLYiiZSpnRxohT3D21mcQBhQtqG0TgyNfWZCr8h4ploNFnibX+upVnu5/1kcDR9etn/mnNu4UZpWgAx8bqorZsjjPPWYTuDEF9O3FwUbg67cgjpFN0mrBuNN2odOOcxG2eQT9MpBLqtjTocAgEgAASAwNtFYFpCLcQDhWGjnHV34QTP68qea/OlPpc3Npel2aKrmVO9p6FzfXchtdbuepbJX5AubwvZ59rZ1tmIFc3pembOE9hAdU8JxnpLcWyUPjeZDDn71vfZx2lMSOWy0ahvugBpxVy/G3P6bIfUXAY7VFlwlkzTqqF+OFU6ifXf6GZNRDyGTmhm+k5gor8vFf18ib5vMLyJa47VjAYJw41TJGIYGM2x/mvtGCQmjyi53RJVYCzNx1MYYTrLMNkZLXQ+OJDOY4XCLKluguzcOOQCASAABIAAEDjIBOYOjszXodpVuP1aPLN2huckXV4+LXn0ZbKuclzKKsbEWDSsKNzMKs0jIvi/3Re4PewtFhOfLerzc1xfojRvbDVGFF1juXTTYo8ErsbM5i3xKLXyblN8wu8YozGx1nO1sNFa2Yi0uDGs6vpcbsxlEFmL0wj1im326N3MUzov7DHLp5XYe0NuS3MT9RhJnxD4+r4/oq6JTXxB4u6MDDxSfzjIzPrVI2yoAyaVYmqitEOB1iyCKRWZfCuh1tN7kz6QzhPBJCplDSh8gAAQAAJAAAgsDgLzkz/dfOUMrU/TwqpyVCH5qaI56rAnWooy1hoiYUgjSIWQKnoe55XzE+nVqu7S1eMyifNlbpOnuqEN88+6BEc+cVW2vEzVBhT5mGJxZcttDirL5jDSeO9tfu7IROzv1HldT4/IJj9a0dyGtjKXPLfCPO+21Ta31aI+DtPyUDStu0dbPybLxZD8wbzUbxhuXZ0pwloL1tOEYVJIOaEghwwjJJcujGVWzvRuWS55WsONcyr0Fret23JwzeKcBvfWww5ON7II43jMyRg0RWnKsCKtTcTP0m2bnNZNstiofHxy4gqZfTjgmTSUd8my9aPqPEJYL12Qyp0kyUsU5d3l3Oei6WWc+zH7vOaTyTBppIe0mYwa/ijO/k8PuucTbLNE5oFznmh9Okqxc9wf3fAavoEAEAACQAAIHAQCrQt4e90cWZUa/2HKelqbxPKvePvv9lr3k2I9f814+mjD4KuKbXB859mYytuDN/S7Mph/cGBASaX/YSIXNHFGsG0c6Ptd/WEQeMLb/x2c+mQ+/rW0iTGd5u2/Fp2znMJRT99/V8Y+E8vsiPh39NYJ2LYhJC5PTXxSMUxGeL5vYEP1zgms568dSx5jkNpdBxeOvfVJhEv24HUD7lo0zmQ9P+vTL8/Evp21bpZ8oW/oNkevlkzWfUdQ/Wxmcn0KlTjxSX/oEWNqaNp19imvuCw1cXHVjRdC1g0cnTVLo8pcBlEnD+eIdbHl+I9jJcFS0uTIiV2nYbTbN3STlzMR/XJw4I5U8pzY+CUmzvL2eweCz1QnBq0Uz6gYDJI+FZU+1fCt9nzd3RStadmL4umAQUyKfcvu/07As7N3uLVhwWSFXXRmhWxgwbplZD6fg+88NuQjVGqXMOOuiPm4CmWAABAAAkAACBwwAnjFihVtxk8yxbuUQYTQJfzkH6hmeKqtFBzOj4D1/LbR/I6Z7yeYX9VDuJR5bGL0GtX75YinukS+GHvqy0+uzzC3jPRt7aXYF6Pn4NOhSwD+OB+6Yws9AwLzJQDXpPmSgnL7kQD1mts9oeRPl+cZbtuPTc/PFFHW5uWo2/Mq/ILMDxiUAgJAAAgAgYNCAC5LBwUzNNJGwOC9d3ioj6RykcWo3MhAPnkq8tzpgSeAtI0bHAIBIAAEgMDbS2Cf9re9va5D6+9oAvgt/5D1GrHF+MFRT+RKz2L0DHwCAkAACACBw5sA6LYDPP6E9f7bcu8BbgTMAwEgAASAABAAAocDAVgnPRxGGfoIBIAAEAACQAAIHAoEQLcdCqMIfQACQAAIAAEgAAQOBwKg2w6HUYY+AgEgAASAABAAAocCAdBth8IoQh+AABAAAkAACACBw4HAotVtRLlwdOfNGXXBDmIt+42doxcqPZ4zQZZmxm/fFV1TfxPn4TDe0EcgAASAABAAAkDgnUtg4feTkvcm9nypoIvVl1kRhGXGeetI358WrLPeBoZYptkYRxdn+Yz13A2j5eeWDD5VexPW2+DbHE0uyEPiqxTOzOZOlcjmme9vwKZ8ejJ1Vkn2EyopOB4JBjbVXyFPPJXCedn8CRXVQ6i0YN8YCDwmTL9Qy6EUzstYZ/0GMTjvvw/75/mqK4TI0szEdZLjm4Pe8Xm9HetgOk/CuejXC8L6iH/7rLkxx8DAaSAABIAAEAACB5DAwnUb3hpaekWILE2P3VRy/Nuwf9e8rr4HsCsLMD3lDt/g7lCP0rRgjzhdhxoHO2vvPTSPTY5fXcTbXPyU1PZSe+OUeHSdat/QH3iTMo/LxC6fNEsj4RdohIhyRirXJ3ru8ApprB+VTa6LJvIj/VuqctYuJb82Vcq7fb/wilGGogjKz3sOUGrusqz57KBntmjjpNT1JWF9yFGchnqQnccxd+DJwsQVWce/+uHRu9PDACkgAASAABB4uwksXLfVPTcRRhgZLf2w3sg5VvljWFySLbxH1e2IedMd+LnfnqmWoXXprHRmTVnxE5zi7Zv9/kdFxqye4pXC36ey75c1AbOvu93JVhFgqidn0mcXpYiBJFZ8zh+4x8GpLY12SWJRzn0pkVutGAYjbPGFNrg4BSFE5IvGJ85TiNUCFn85EtnI1g2E8lNfTUt+w2QRunLXDuvBsJh7KDL8KwG9Jzl6memIyfnVBvuk383m0x/SqK3BwVtcrIlQoJxely2tUjQnwXlOfMYfvNfOGghVaUivhMSl2cIK3aAp/kVf8G4Xb7nR89PNYHcPW3nNNk294e2/3s/FSeHa3AzdhrXi2jK1aTD0hIixUT5DJbpZOqOovehhCRZ+MzTSsMWPBrTjRzOrFLLFhhFR/i5VKPmHvu3hWke/Ubj3N1mZzy/lPbcKHXzGhrZEY2dOzIPuPOY3uYUz07njvH0vQcit92DCWSAABIAAEDh4BGZeHvdbu0S6MMXcOjB8K4vtcvqrE/FL+CU/clCEyBdEp9bSnp9Ewjspc3k+eVU0ahscukfAyJQuiSZOZL23Dbl3Y+39qfg6FU3UHdI/GJ+8QrP/sn94G4sD5cxV8ShLDf/CNucVVV2bqdzXN3gXj8PF1BcTUZoZvt1GWXJkePm9xHSVk9+JzdjdlnaGbrITppL6Vlx/YChcDSzhCo0RIgiRobL6+NDIC+nxqxPZzQPD16mxb+WKgy7fOEJlmt3hDj0osDlsDhdTn4/Fs8ORx2tykEjnZvnvD4x8n0EeKX3tVPRSeuR2O9U7otfNYHcP5xg9jeFiCGGDtFFjVHmYEh+yJJRxbDp5Iuu/w567VFY4xLaJS8o0HIguVoNtlFo+QROfY6XPTUwdpZkaI/zR6//tvMS0pZtPLOm7vI7kHC5Pnz74zmftju3J9IkV8pK9g7ic9gxSQAAIAAEgAAQOHoG2a/j+a3i7x/dHFhOESoLzT5y5RLbuMOCl/FqVvz/kf5ljCgz3sj/0AK+elisL1qnCyQb/+5B/K8fkWPHxoHd7wxlayZ9bpn8fDj4tsHmaecsVuN9mfLAg8Y0CPb63e0MP27gczb7pCT4k6qfkrbZqHxNTJQrXQn2NPGRQdIZhMlY+LjOMlWboSuPCbfD2bSyzQ2B1xr7FxiR4TjZ0T1V/VQTXRqc4xlr9es3jeYlSjpi+JYJ61et7lcEI4ZzN94jNPKUw7Uaz6bZEN4O9PWwz0vGw0Zv6SVE3GJopIGSX0p8usfeE3H9laMYw7O2V9ZMzhQDvep63DLCaEiby2py6wxf+ZmTwdhc+IR69rGy2GW+3UT2mdHm5we5o2SdnhTX1/HW7dv18164fJ8pCJfW9avqGXPuNKW32D5zzhBa2c+a7ZHWxbnHsiBYygQAQAAJA4NAmcIDibYie4pq717GGEU0sdeNVVZERd043yuwUGEFSAwjpmsbR/FuN9UpC83sYtKoKX1SUMFHPHd/1scZYUMRkBN2JUFtAqHG++c3snhYH9CjPMJIWQGi8eX4vEwZNlxASMTZpulBVEAaph69sSuET6fxqWXUTKzTHmuTlaeN00hJttQ+Os/R83OhpsGFsf3wTbEUTKVO6OFGK+4c2sziAMKmOV4t548jU1Gcq/IaIpxYE5Q2TRvyjfaHN1dGMuUO/quz5p4J0t91RaanWMUlpWgAxcbbJxCpFGOetw3YGIb6cuLko3Bx25RDSKbpNWLcZPIDOYzbOIJ+mUwi2uLVRh0MgAASAABB4uwhMS6j96wHWu9ubcbmuFmvkWPG55sdo5FqZ2LZhKLi1kWNd5ik62yy6N4nWJvamnuWEgeoeEDyjg9gofW4yGXL2re+zj9OYkMplo1HftHXSirmmZ3u7MZfBadP7npJpWjXUD6dKJ7H+G92siYjH0AnNlJumif6+VPTzJfq+wfAmrk5AoyiTopLTwSicZmm6oosIzanbMDF5RMkto1ltiiowVviXpzDCdJZh5jO+B9J5rFCYJdVNkE0UkAACQAAIAAEg8HYSOGDrpB07leE5SZeXT2s6fZmsqxyXQijLsYqhRBpb3LGpRRrFZJ6PI3XQYJIs2/xJ0VSjbMemapn6EqUp/4wRRddYLt2jePMUrsbMemurZmGEKLXyblN8wu8Yoy3piU0tbLRWNiItbgyruj6XG3MZRGgvPWxxtj2p88Ies3xaib035I5Zilg9RtInBL6+74+oa2ITX5C4OyMDj9QfDmJZUHh+yqwcKzfDYaRP1VWGnVZ77e1MHxNMqcjkWwlNn9y71IF0nggmUakZ/5fYO+egNBAAAkAACACB/Uxgn3Ubhax1wXmaUUXP47xyfiK9WtVdunpcJnG+zG3y2CsIKaJrCyOfl8it0gyXJq9JZlY1rusG737ATtbEp84vyWFdD6ny6nzmo1JTkPVCckQ2+dGK5ja0lbnkuRXmebetGQ3CxHSYhEJENK27R1s/JsvFkPzBvNRvGG5dnSnCWgvW04RhUkg5oSCHDCMkly6MZVY2nK+VWJZLntZw45wKvcVtm3FL5yyTcxrcWw9ntTCdQRjHY07GoClKU4YVaW0ifpZu2+S0bpLFRuXjkxNXyOzDAc+kobxLlq0fVecRMjnXRpt5ajx+pqQGNfXoXPxTEvOMW5xr5dpq12SYNNJD2kxGDY8UZ/+nB93zCbZVV1cPmPNE69NRimXm8d+DhuvwDQSAABAAAkDgwBJoXcDbu5as5+5+sWDYrIWkzM1vZSu087Y5n7uL+QcHBpRU+h8mckETGwNmvwAAIABJREFUZwTbxoG+39UeBkHZ7h7oM5OZ/3c0JVDsK57APbbYh+ouMc+HI3I2fXYqep5uIoqO87Yn/fMIhGDbhpC4PDXxScUwGeH5voEN1VtQsZ6/dix5jEFqq3wXjr31SYRL9uB1A+5aNM5kPT/r0y/PxL6dNSnMvNA3dJujlzQ1WfcdQfWzmcn1KVTixCf9oUeMqaFpnuxTXnFZauLiqhsvhAbuss1xM+lcBlEnD5sbCqcbbk2x5fiPYyUBEYaQIyd2nYbRbt/QTV7ORPTLwYE7UslzYuOXmDjL2+8dCD5TnRi0UjyjYjBI+lRU+lTDlsH5brQe18c8Ex5E6dTZsfF1Jipy4tN9A78Ve1FqGEAmK+yiMytkAwtMZ+3WLNpIHHznsSEfoVK7BK4ZUWz4At9AAAgAASAABN4uAnjFihVtbZ9kincpgwihS/jJP1DN8FRbKTicHwHr+W2j+R0z308wv6qHcCnz2MToNar3yxFParH20pefXJ9hbhnp2zovLbpYuwF+HVIE4I/zITWc0BkgsCACcE1aEDaotG8EqNfc7gklf7o8z3DbvrW2gNpEWZuXo27Pq/ALsgB6UAUIAAEgAAQOFAG4LB0osmC3FwGD997hoT6SykUWo3IjA/nkqchzpweeANJrEOEcEAACQAAIHHQCC9/fdtBdhQYPKQL4Lf+Q9RqxxfjBUU/kSs9i9Ax8AgJAAAgAgcObAOi2Azz+hPX+23LvAW4EzAMBIAAEgAAQAAKHAwFYJz0cRhn6CASAABAAAkAACBwKBEC3HQqjCH0AAkAACAABIAAEDgcCoNsOh1GGPgIBIAAEgAAQAAKHAgHQbYfCKEIfgAAQAAJAAAgAgcOBwKK9L4EoF46NH+ccvsF3UB9YX31MbuH1oeF7+PbXniOz+OVdsRNqz63A/H1DQ/fNLnM4zBnoIxAAAkAACAABIPD2EFi4brPec/Wlgi4ShBEiCMuM89Y533N10DuJ9dwNo+Xnlgw+VXun1b44QDnXL3dQBFFq5ubx+bw/fV8as+ouyHniqxTOzOZOlcjmmS9pwKZ8ejJ1Vkn2EyopOB4JBjbV3xNPPJXCedn8CRXVQ6i0YN8YCDwmWG/N8uYnf5SQ2l7eqovBayKexByd6+YGWZEa/UZWa8Z5G2/Nsl5bGillz82VjlY0J8FZ61VmwQdtTO01U5QunZ3KrJFkv/UmLtv/Vz017zeHkqWZieskxzcHveOz1HinfnRzHh0AhiSci369IKyP+Lc3oXTyCfKAABAAAkAACCC0cN2Gt4aWXhEiS9NjN5Uc/2a9sHIx8qQ0Lbj/nuxKEJ7X2+z3E4m9d948Njl+dRFvc/FTUtub641T4tF1qn1Df+BNyjwuE7t80iyNhF+gESLKGalcn+i5wyuksX5UNrkumsiP9G+hUcEZul4k0wNL9A/FoyfxfG6ODvZwA7l1o+wI/R+/WFNdBNPxWgNEWyVpOYf/R0G2RIyVueQlU4n0yMDT1hTVTo9NnUtcPx/o20Gb78onrpyKKUOR33Nz+FE7Tam5y7Lms4Oe2aKNk1LXl4T1IUdx2lIP5w8EQxxzB54sTFyRdfyrHx7zOz0MkAICQAAIAIFOBBau2+rWTIQRRq2RD2upcazyx7C4JFt4j6rbEfOmO/Bzvz1TrUHr0lnpzJqy4ic4xds3+/2PivWYCq8U/j6Vfb+sCZh93e1OTusFhEz15Ez67KIUMZDEis/5A/c4OLVTh5p5ofzUV9OS3zBZhK7ctcN6xCvmHooM/6r6GvtAOb0uW1pVDe3kOfEZf/BeO9voBRbl3JcSudWKYTDCFl9og4tTmna7JfbeQ4RQNzd6O9/NBYSoN7z91/u5OClcm5uh27BWXFumNg2GnhAxNspnqEQ3S2cUtRc9LMHCb4ZGGjb50YB2/GhmlUK22LBBsRMt2oiVC+/T+P/tF3uT7+EGQobXQElRHONmLX9j/olQuOEGmvQ6Ty0VB3SCGIyIFtHIdr/vxWoUMOXzfCSXtE5xrVOkWbUtQVbm80t5z63VcW87hw1ticbO/CU46Awxv8ktnJnOHeftewlCbm0jBIdAAAgAASAwg8DMS9aMU/tyQKQLU8ytA8O3stgup786Eb+EX/IjB0WIfEF0ai3t+UkkvJMyl+eTV0WjtsGhewSMTOmSaOJE1nvbkHs31t6fiq9T0UTdB/2D8ckrNPsv+4e3sThQzlwVj7LU8C9sva5yaWfoJjthKqlvxfUHhsJbrHVSXKHrV/oyze5whx4U2Bw2h4upz8fi2eHI4/UVQXVtpnJf3+BdPA4XU19MRGlm+HYb1TNstxAPEULd3OjtfI+R0RguhhA2SBsaRpWHKfEhS7sYx6aTJ7L+O+y5S2WFQ2ybJKVMw4HoYodlZeP4bMFpDz3dtm7ayZtubiBieHXSn4v+OGdSmJm0OR/ye15l2uUXr8sfyhb8vOsPtR2EWPijnbmyLPmdzhQmvnJ5iHU80UmHdfCFyCeW9F1eR7LDuc5Z3Zw/cAyzdsf2ZPrECnnJ3o6is4uQCwSAABAAAocpgQOk2xDa7vH9kcUEoZLg/BOX/bCsUg6BkfJrVf7+Ef/L1Wv/y/7QA5XRj+fKD4cdRCqcbPAPDfq3WgEe5vGg9/hy0lYdFVrJn1umfz8cfLoaX8m7AveXd3+2IP2PzdGmOVoH0aDoDIUYCpsIlxkmM1OIVATXRqFe/DWP56Xc1BEKeZytXzW3e0MP2xiCUM4TfKi8Z12+fLfNWWm1PjO9MA8RQt3c6O38zMY7H7Vd/0XdYGihgJBdSn+6xN4z5P5rqciohh2hmQz1kzOFAO95ftYtF5RaOKtMPx2xtywpdm66NbfNDYT5R8MDfyF0msaCVlmbSv3LpP6doeBrdZlJ3hvf/c8Fg0JU0ua5ZcDXWHynXg1G7kxGvz5e3spp7zbst0V8f2lTpq2ttqQpXV5usG9UA3XNbKznvzKWXoYQIqZApO/tShOERn2Rmz0zooBtzh84hoQWtnPmSbJK22GptDlKkAACQAAIAIHZBA6UbqOnOGtje/WDNYxoYh15VVVkxJ3TjTI7BUaQ1ABCuqZxNP9WI5ZDaH4Pg1ZV64uKEibqueO7PlY3iChiMoLubNccjdPz+LYphU+k86tl1U0QQYg1ycvTtZjd05d5epRnGEkLIDQ+XaA9tWAPe7rR3sq+HBNs3T1CmdLFiVLcP7SZxQGESXVQWswaR6amPlPhN0Q8jUhn86R5dC43KHhvaYlyYSN//e7EMfVhxn8JLrnJY4nd3p8Sb/tzrQTL/byfDI6mTy/7X3PWVBh+0x+5zkMEQz2ykLl6TL1zqP9Za7aQUClzQRltd9t24MqybP6iLP+jQH3lvXdzlKYFEBNvKPJaYcI4bx22Mwjx5cTNReHmsCuHkE7RtXsguhk8EAzrbWE2ziCfplMIdFs3/JAPBIAAEAACVmDrAFHAenfDbWEMa/2yXtiKzzU/zTsArEz8/7d3JlByFPf9r+pzeu7ZOXZ2dnZXIAnLYIyDwZjEmGchwFjIQhAQIYY4BkcEJ//nQHzgGB7GsWPiIzEhxhEOYIMcGzDI2OYKkAgsbEPCZa6gc6/ZOXrus8/6v57dnrt7Zmdn0UqqfXqa7jp+9a1P/brnN9XV3dYdY/6X9HLaNzlBpmtFF7kBlcKnZxMBx/B3hm3TJESo/GeTkSFTI43C2gv2p7APGe1N95hSIUlRET/MF06jvTe4aBUgtyIjkqrfFovk9/ORawrkA6PBJ9vWjUE5f34evBB08g3tIdKxfZzj9BSBrEXqelK3T0Qx0wQKKwoEC5ehyxQzrfkku4ejHZMzG3Pi7iEGSdlt8eKB4Ph2G4mAc7ejsG0meg09/jUXbT4umuMglQVEpcFzqqKIHKVFiiwBASTTFNWLLy0HQ50QFAhIo4ZbQPQM/IkJYAKYACaACTQQ6O1iU0OFJW2mWKYkV9bUYzp5dUUWGYYHIM3QgiKEa7cGqFJYL1Zh2RgQRxUqQdO1fzxJ6GVNJcHqdFrz1zshlt+lck947VOkFilCVQoqjSXkVUItaFQmBFmimaRpI/0p7CZDi2e1ucBGaaYyTDJl1nJQLZ5doO8PuKJa2Cu+tyTPWFhpvg4S10dnPlNi7g6HfrXwcJBGY2h1JrOOcj7ausiP4BlmWv8X19cONtY034aKGFIJnuoY8CESAKIaypCSOIaYPfokqEJZX2fQqorYfOm7c1MIEiJQ2ZXLcF42sqhIJJp+t3TuD07FBDABTAATOKoJLHm+jQDahcYewz+Rcz/OzmyJJ2N+115CPTaX2FJhngzbtKVjnPM5KnJBPDPjd8wA6dRk6ngE5qpjo7Cuh2y5q2NzGd/QbyyUqsrhcmmYdj1m7fh93zSeKs1EQeFD2dLv3WwJKRykoyREFMWDwqm5ypsOGkjljyRT6xB4taHecenEeYxvNwNG8vzmMrU7ZG1c3EYhRABELTy4TqvWn8KuMjqKb5C5iE1E2R9zpN5dJghJGFeV4zL8Rtl6t4NWtZsYylvm5i6U2AcC7llFOHY+HCaoWYaaX/oGlcL5OfkNr+tg66zVIgTMF4Vy4cKMPGO1xEjIyuUzk8nVjPvHNs19CDF/SV6Z5Ng4SSqqeEI2+RGF3WlnFO0+YMseIn9OMj/pscYJdaSYOr9MvBaw9BK4qxSVBOWAhECnsFJwjPy5o9deLCNDJA3LgLdQvfSoV7m4HCaACWACmMARSKD/uE177u5f5RSrNiOS+vq+dJl03N71ubuQ3RkKCXzyEzMZvwpTFuujoeFfzC+ZIqz3hobVROpvJnkLQb/i9t1njZ6xQJzaHQxX0slNfOQCWQUEGdMeytrT5IRKu7cPy59MRb+R1m5g/M3w2O12UqVdd/rFq1Kz3+FBgeGe9gZ+pcyN1UYXWncEuDX8zMWColKW3cOhHdUbV6GcvXY6eaKisNWIbXR67yZIZG3+L484U6AfhV1kANBRvPnMEV2M3RYtWLSwEp0ws/9sCA4Mjd3sYVRAvugP3cknPh6dvlx7dK3t/pD/merok0L+3LJCgdKlkdKlOoSGx+GC0WzmZOj4tqP72jW9NjCSgQhSktJbY0mfglSC3mfz3uJz762Gg4ggVDGzNZv0KSoiqKjF9pOQ9/Hq7RGIcn4/pF7Gp74wGbMBmGa45/2j9zu6R+3aw3xpy34ytbaiQEuv+o3ELx9DqFSOE4n9lqa7Imow8QYmgAlgApgAJqATgGvXrtW3Fz5PU7l7hFEAwOXs7O+IxommloJ4FxM4DAioJ8UnrxU914XdjYvzVpTwoezsd1LUdyeGX+px4npFqcdi3jkC+OT8zrHGLWECK5UA/p5YqSODdQ2IAPGayzUjZM+pmM9UDqi1PswgYUO2EnG5X8UHYx/0cBVMABPABI4uAvir4uga76OxtwrrudNNnMlnwisxckOhbOIs4L7bjZ8AcjQ6J+4zJoAJYAKLJND/+rZFNoSLYwKHjADc5x3TXnS2Ev9gxB3e5l6JyrAmTAATwAQwgZVHAM+3rbwxwYowAUwAE8AEMAFMABPoRADHbZ2o4DRMABPABDABTAATwARWHgEct628McGKMAFMABPABDABTAAT6EQAx22dqOA0TAATwAQwAUwAE8AEVh4BHLetvDHBijABTAATwAQwAUwAE+hE4Ci4n5SQSxcm+PUl0YVAibL/KBx89h3sNZTSN03mXh8bv6/66P+mMVDz1+2Pnjr/cArIPjA29kB7maYKXXeUDbMHLqZDnwlY9Ze7dq1yhBQ4tKOsQ0THpGb+LkP+eCz0NK2nDeQTCZdMTb/PMf7locPwnQodxC8bqIHQ7mLksBbfpW84GxPABFY8gf4jGDVcSG/OFE4UJAeCae3FU/6dVkpd6DEaKuc+ls6cVUJPhSfunX+TlZaF3OXcBensqWXRjYikxfaoz/fYwvvC+8vqShidkIptEbg7R0depoBFAbn+u9y1rUUWIBzfWWMnECDE1Neni4usfOiLE3JpE59aX6p4tRdnWf+76gD6GzY7O4AnO3trvNQS0sic/9qwWzLOinfv6woZZVgh6ShD5o+oaezOQ9l9TMxKvHOgoJz58mTx16tG/4s0E7SYvHdO/GJU4bKYACZwlBDoO4hB0vElKWP33uqnC0hZl0lcPhdPToR2aQbVkxLTn83Dl53sXKnSBBIJ5/KZYc59p8eShPJ70onLIvHsxMhzJAD9ZTVZ77iDhmRFttifsdASAKDv/na0veREBKCy5Je1L1lFfwakc6Jzm5HzjtDwHlI9NhvfNhcVxsK/ZMwcIOcIXM+heo+RfEYschrLZgBQjLN60LdSRnnOFfyyqwe9h00R42N5aV14x0ARkuQf9POW3zHxS2OMa2MCmMARSaDvOAayTwSCNSSzHsdZhXxIRoCCABBveEau9zIxlPt8pjlug5afjk3otdhJn3TKZOp4AT1nhaC/LN1W+ydVSnw9XvAoilVFJJi7J68VkezBq0Yckpi+YZpfpwIImYdDgUImvqkkWQjunrHRJ2gAVPH0VHJTvhRWQInmfu313WdnxPkGTLLaFdRTIFfJ/HU8c7KgKJTluaHADicj1HM7b5FyaWMytb4oeBHkWdtTXu8jXG06Uz0ml/zjTOFdomKBRNTi3DHse6ltKCkp99mZhN8+8vd+ax4AqFY28Px5BSGgogrJHLR5tgccPUxldZYHkBSW0Nveod9Wp0v5IfeZmYTmAIyZAygEPaMFdgt/dCX3fon9zxFOw2uSpZdv/1wpo4wqW6dnLhCqISnkfjgRflSfVNQulE+Vnw9yq9K5d4uyDVBvuXx3eG2pamdMRpkVcn/Kpz9YkSyQft3lStSjXTMXHfAomxzL7YPRkGIo3hgU0fdRCTofDoHs3JeSJa+i0gBs279He/AyZH4eHv+P6vS/EXkzGZThKGtdNz45DHpQGkDjTUwAEzjqCLR92fdBgJUrZ6RzXtb5O315lkQxUQCggsyvFxGqYgdkvtP1i/6yGsXL3NA3wh4A1A/GprZC/+cCNm3JFyRFABDj+cpqD60Utk1GPxyLT7oC1wdZWVYU7btW/lBs9lOS7Ycj4y/T0FdMXR2L0MT4XVbCNKux5fZtcUOq/MDw6D0sDOb5v4pHSGr8B1bCbBYAVS6KzG0g3d8PB/cS6pps4upIxDo6dl/1KyeQjX4pIb495P+WjckDZaKiJNoYQrn4qUgibB2+uRq0AYAm0vErSsxdoeFXKGCRpVUKlW5X2nsKtDxvo7YVS16Hg4doqFgco+1P6BfEe3MA5ZR0zmEL7NJDnIbGTbIaSgGwUkYZWn46vuZ+pDqLiVui2sRu0x8qXcJT3wuNf4+GtkrySzOxy9lVt9oJZDLKaunySPwDtOf2MdcBKH2Qj10mgpkFoyYuOuhRBqC3oWzqLjARbwxK7fOoBEaHQ9IRuNmGqDL/DzH5obGgNqkPYJmsxr/G5E1lmIzyOzoozbjxHiaACRxVBMwDqy4o0B/E9u/Ys+fuA7MfVxzfDQ3tb5wSqNZtS2i0KJ+eyvlY52492mvI6y+rwUA1REtRVIqiihAggkxXt1MkrEVLEkGIAHGM+9+GOJ4gMgydB4AUspuL5C+D/l0WOktS+5y+B63Kh3Il1jSrueEOe297Ag9bmQxJv+X2/5yT/zBbtHQoVU9iS9kNIvtgwPsiQ+Uo5kVv4CFWPDtTrYWEM7MlyeG/bcj+FsvMstxzLvtMA2hVm1orb52Lvo/x3xKwz8/raPNZAAFIJmg6SdGzFutuG9MWX9QF9LBFvOoP302mb5qOXhmd+WKOuT0ceKXNnRp0tZokxNzGIrnLbavOhDblmmQ1lVtho6xCokBAfYlnk9K33UPP05rvFSyOFxh1VUUkADAZZbaUO11hfxnwvsRQGZp73O95W7dn4qLLMMp6qwCYDGW9UHXLRPx8SRNQiz0qgfHhoBCkdgbQRgQW5w9/iixXu2FCfl5hRxkm4g/VoMxLwv9jApjA0URgSfNt8C1v+ItuZFHEE3Kpz06Jd4+N9HyrpnICP3dlmd0RduuzCDXs/WXVqi9qA05buUxDDU4QgkjcPL3/fD2RQCplkR0AVIyzul30pA4s3HsBACAnWYoqST4ApvUm2j89oshR3N766FB7LZSlJPoAmAFSWAQH3VzzFei6DRHKZ0X5j4vc7SHnXP3LFh5wB34mxK49WHrL6XrC5XyZMZ3wq9sz2kKBQuqiInjbZd0Dy6vT2a1p9lbfwuU/ozoN6eqJmcyoxfNdfYqut6yGUovYfGdG2UQQOceQ+g8GKEFAIm3PZJRlSWJIdp8+E4lI9iAFjq+2YOKiAhj4KJt0yjDLYyzesE5TxiLGS+h2ODQZ1ndMyDecjlpl6LU7fK78QekgGidhApjAYUmgHhn0I79MMdOaBXYPRzsmZzbmxN29PKcAye/nI9cUyAdGg09qy6Ea/vrLajCw2E2BaApftK9TaN0x5n+pQZc2XQeANkNmkLXYRrUba3uo0yBhoXQtBRlbcOX4DTbns1T2omTx5UB9NguR3M7QxNNCcX0m/RdTqYQ7+E2ftu6tvz8oZbfFiweC49ttJALO3Y7CtpnoNfT411x0T12T8+fnwQtBJ9/WPDTOaivba8KhGmVdHzR5LEttTPXCtZmt+twwAKB2/4qJi2p+NdBRrkla/EZn8T3a6X285g2aHA4mLRqTX6jUIsPE1GEyKCY9wFmYACZwuBBou7DVr3BEAkCghlsFjQwhcX105jMl5u5w6FdsU8wE+ssyaqiv9ArLxoA4qlAJmq7940lCAcAkq1tT8iqh9rWrTAiyRDNJ0zoplinJlTX1b3t5dUUWGaYa5VBRGowLQsP6/iZbyOL9xrDvB0FPPh+/Ki83jzDMsfadw2OfH+ZGM+lT9Yd2NNXvbYeUxDHE7NHnERXK+jqDVlXEtoV2Hc2h1ZnMOsr5aIdFfiZZHU31k2gylCZZ/bRkWsdklNMMLShCWB8gqEph3Rl6UDiwUTaVb5hpIt6wjmmGaZe7HA4Aar+RWn5MmJA3FWKYaapwvtYhHhRD6TgDE8AEDjMCzd/qvYsnxPylyczppfJqQVxVLmyMxT+isL+xM/oXTWdLUClfODvzqQr9sM89qwjHViraP1FmtZsY+snq3ExvqYyqsABQqmppmCBSWNdDNrQ+NrelUAnKckCsnJxNnVfSoi6TrK4NHpdOnFeWXIq0LpPYXKZ2u6zlhjoUQgRAFKpNtACRcz/OClviyZNF2SmL70vFt1SYJ902rRZkn3Va7Nn41enialEKCZX35vPrGriLNJ2BQGI9t3uZE+LRj4rz3VPX5dJ/VBICsuKShePLEkNQ6eYJB082sn3fwU+WGnA0iGzZVBjLHqJyTjK/WlIcinRcLnF+mXjNamkQ0lKjvguVwvk5+Q2362CzAK1zxln1+ovZeidHGSLVrmpDyanaPYxd/0xGWeCcz1GVC+KZ4yXFKVXWJ1LH68Ni6ocDHuWuXehYwET8fHkTUIsdr66Hg0ozUVD5ULY0oiguWQwqGkcT8vMKO8owEb/EQemIESdiApgAJtCJQL/XSRFBqGJmazbpU1REUFGL7Sch7+P6HQZ0MXZbtGDRYhF0wsz+syE4MDR2s4chhPy5ZYUCpUsjpUt1OQozdMO4d6qvrPY7IXSrZp+2fPSfYnnHfJzET97Jw6It8LmQs3p/JbU7GK6kk5v4yAWyCggypj1SeP6ij0mWWXPa1dUAt4afuVhQVMqyezi0Q7s7FUA5e+108kRFYatKRqf3boJE1ub/8ogzBdmdoZDAJz8xk/GrMGWxPhoa/sXCUjA44xm5BfIXZ2M3JlUIySRr+wnnaFMAI+7hH5Wnroym9oS9ewgAlPLGVDooqywgeNZ634jv5aaoHYUFwQa51zssOGuzDQCinN8PqZfxqS9MxmwAphnuef/o/Y6FVVxGDjC/Zn80mzkZOr7toPRQpG7fJKteqLetd3KUoZz9/FTivYo26wwAuGRq38UAFmz+L4ZctftCOqg2GWXCem9oWE2k/maStxD0K27ffdboGQsmTP1woKMMADAfyg6d0m6OMBRvAqrS51HZ5XBQaff2YfmTqeg30ioBqd8Mj91uJ5ExeRO3MRGfBEsZlM4UcSomgAlgAp0IwLVr17akn6Zy9wijAIDL2dnfEY3zQi0F8e4RRUDcPD11Nhu6LmDtdpvFEdXto6wzeJQP6wHHJ+fDeviweExgIASaZlwGYhEbOSwJQEU4TmR2uTgctB2W49ebaDzKvXHCpTABTAATWLEE+r1OumI7hIX1RwCRjm+ubr/Y2p8xXGuFEsCjvEIHBsvCBDABTKBXAni+rVdSuBwmgAlgApgAJoAJYAKHloDZfNsHFO7QisOtYwKYACaACdQI4HNyDQXewASOWgJmcdtfy0NAf2jUUQsIdxwTwAQwAUwAE8AEMIEVQgBfJ10hA4FlYAKYACaACWACmAAm0IVAh/m2Nwnxcna2Sz2cjQlgApgAJnCICLxJiIeoZdwsJoAJHGICHeK2HFDwY9sO8bDg5jEBTAATwAQwAUwAE2gj0CFuayuzghOglL5pMvf62Ph9+qsa6mLV/HX7o6fOP5Ifsg+MjT3QXqZeupctZcPsgYvp0GcCVrzsrxdeuAwmgAlgApgAJoAJDJRA33EbKl8xOfMxqVEMfDVwzD+4Ft501JhxaLYJx3fW2AkECDH19eniodGwpFbRUDn3sXTmrBJ6Kjxxb/31U2gtP/mVtFRbmjj/orDmV36pa5MzN6TE3w8f+03nQkGoVs5J8BsLFS8iEhb7r/y+J1mi/U1TbZIHK0MNF9KbM4UTBcmBYFp7h5h/p5Waf/9VW9M9JgxWYS9424Uhdzl3QTp7all0IyJpsT3q8z1mWTgWeiDfOl6e7Oyt8VLLS05lzn9t2B1vb7ynlAErBACwYv5iPv1HZdEOiJjF/qjX97QSI8inAAAeWklEQVSlq0eZOIAZeUIubeJT60sVr6q5zX9X3ab6MlwTgz1xaStkYrA/hWa12lpvT2j1jfkSdiF3QUrzN6+CFMbz1XHv3urbfo2cbRk8qiZ1MAr79ag+ZQBgdN4ARgxrLfW7sThQxgrNjmVjbeZ+aETDpC2TLGMVZjkDV1hrrDP5WnbzhtkZwOg83/X46njAdq3VLKy213fcplmAU56R25x07bu/TK2YoK3aQQSg9kL4w/JPPSkx/dk8fNnJzpUqLT1wyUrRHvial5t/iTuCZKy5m7ZSclseTjUNrvKHschlom3HiO8tQn1fKvrJWbUwEfzN/As1Wxqo7w5aBpKOL0kZu/dWP11AyrpM4vK5eHIitKtJar35HrYGrRCArng7qELCuXxmmHPf6bEkofyedOKySDw7MfKchrc7+fbxyjkC13OoPqpIPiMWOY1lMx3a7i1p0AqhUrhqNr7K6vuXMVscyO/OJq6IRNXx0H+ZD6WpAxiTl86Jzm1GzjtCw3tI9dhsfNtcVBgL/5IBwNRgb2iaS5ka7Edhfx6li2r3DQCArZS4ca6QdQ3d5eEiFEEgkF3wFUNnG7xHDVphnx7VpwyT84YhQ72pPj8XOZTGCs2OZTNtxt7bV1v9yjCROGCFeksdyeuZbZ8mZwDjLpsfX0YHrHmtNmW1BPOTbK2YwYZI0jMM0zJZQojpG6b5dSqAkHk4FChk4ptKkoXg7hkbfYIGQBVPTyU35UthBZRo7tde3312ZmGJrUmWgYBqMuQqmb+OZ04WFIWyPDcU2OFkur6siZRLG5Op9UXBiyDP2p7yeh/harM+6jG55B9nCu8SFQskohbnjmHfS22gKCn32ZmE3z7y935rHmg/0Tbw/HkFIaCiCskctHm2BxwNUyPohMTUdUXuX8cD/1ubKDPrFPGGZ+R6LxNDuc9nWuI2xaOABMdNtZGftweVwp/FS2/5fWJiblhvAkr5DUXiydHAExyESvFcEclq4dy89Ft3PezWyzZ+DlgGgOwTgWCtgVmP46xCPiQjQNVDlFpubxuDVgi64O2sClp+OjahZ7GTPumUydTxAnrOCruS7zheCkHPMLo9AOhK7v0S+58jXP+L0Qet0FLOn4LstwVcb2hDRz3rH7GIk+dlhWe87PzPibr6xi0zBzAmj6SwhN72Dv22OoXJD7nPzCQ0t2Hg4D1q4Ar786gqtI6+AZDwUT5X8I59w820oDZxtsF71KAV9ulRfckAwPC8YcKwNkPR6NE9bi92KE0UAuNj2VSM8fFlTMOsrT5lmGgctMJqU53Jm6gwOQMYd9ns+DI+YM1qmSgEbeGIWeHe8lTG85XVHlopbJuMfjgWn3QFrg+ysqwo2lUf+UOx2U9Jth+OjL9MQ18xdXUsQhPjd1kJ0yzzhsUNqfIDw6P3sDCY5/8qHiGp8R9YTa/XoMpFkbkNpPv74eBeQl2TTVwdiVhHx+6rXosMZKNfSohvD/m/ZWPyQJmoKIm2SSkoFz8VSYStwzdXgzYA0EQ6fkWJuSs0/AoFLLK0SqHSzaoRBAoALTFuc5GmPYliogBABbWGeUjxyGgkE7ktoxKQmrU6fu51v1qPe+Qz4olj7MEbrWBrw2mGEivjBPdzrYPKScnEB2jvnbbMFRWBAbR5jDtYGY09ZOXKGemcl3X+bmnrDgessAvexh4YbhOqYgdkvuo23ch3Hq9m08op6ZzDFtjVct20udCi9paukFARAYlyvVUyTsOgIFgA2+OihFYHMCEPLc/bqG3Fktfh4CEaKhbHaPsT9ZUDCyJaDda19bnVarA/hSa1uujq7BuEWDxV4n5Nlz49M/ceSZUoy/Me78+qv367OVutvUF51CAVLsGjFi0DAGB03uiZYQ1mLxuDVNjSXuOx3JLVtGvqh0Y0miwAYNKWSVaLEcPdZVHYmbyhhuaM1jNAc65xl5uOL5MDttleU63mrJa9JcVtaDU/eS+vW4TcvRPhR/SvFokgRIA4xv1vQ1wKAMBo4QcpZDcXyV+O+3cx2o/0rNP3YPHAVbnSj6122TjLPLAAALztCTxspRAAGbf/58WDl2WL91odDd8oukL9ky1lN4jsgxPeF6tqX/QGHipPXpgpPhy0V5BwZrYkOUZuG7LNW5hl9WrVT1WbWitvnYu+j/F/NWDXulb9IwACkEzQdJIEgKLbnqMC3/BNfNqnl17MZ+tMFGQfCYbeRGSShBapvIHnPzcr3zLmf00DjEKZ2J/Izm8FuTIoN1bkZIUiLTntCkvyzwv0fWOu/yvkKVGxAdAV77zYRmtaSl8yqqbQH8QO/G1OIQCRsLq/GxpqXpm3GDTNZQej0Kxfze0Z7smnp3I+1r27Go+akjccr0bbhJjbWCR3hW35xtQlbQ9AYZmzHlDT5+ZcB1xMGajBYmpLQSUYlQOgW9xm4ABm5IlX/eG7E5GbposvMdK7FNvt4aE36z9oDAz2j8jAYH8KzWqZSDT0DVoSgqiyIUP9Yii4k4beUurKWMQOx39gI0ydrd7WgDxqwAozfXpUPzIaftKClvNGjwzrNLtvDVhhc4NNx3JzVvNeb37YQqPZhElbJlnNNkz2Bq/QkLyJimqWwRmgqZphl1uOL5MDttEPW2o1NdW6s6S4DU43rW+DmVZrcNrKNa7I4QQhiMTN0/vP13UQSKUssgOAinFWt8CCOqAvAAeAnGQpqiT5AJjWm2j/9IgiR3F762qpvRbKUhJ9AMwAKSyCg26u5dpkzYgI5bOi/MdF7vaQc67u4/CAO/AzIXbtwdJbTtcTLufLjOmEX81cXxsF1vr7+Yo0c8cIGp1MnlP0vuYgaCF9dRo9EhraBwFo9AgAENSSCLX0J/FCzDv2FA19ACK0UAgq2esPxN+r773pX3WzW4uDzf/6kFE1CN/yhr/oRhZFPCGX+uyUePfYyLP1sTBvc3G5/Sk0qqUFq91BKSfwc1eW2R1h90xVrAl5k/Fq6Kd6YiYzavF8t216qaHMojYHo1ClXd8blrfx09t5KADA24Z+xxGrETF/tJqCMnQAY/IoUEhdVARvu6x7YHl1Ors1zd7qs+m/mgwNLopLQ2FDg/0pNK5l6FEmvsEqKgnYR4YDT1WPmqgr8B/lg3+ZK91rs5s4W0PvBuNRA1fYn0f1J8PkV31vDBtwdtscuMKGBluPZfNzlIkfNtg02uzQll7UJEsv0tvnYBWakDcHBYDhGUDvh0mXW48vkwO2wQ9ba+kNdfxc2vdlx/Vtje0I2pLZ+p+2Da07xvwv1SMegAgyDYDFOKtev+etxkaNKjVIWChSS0GtYU/dhivHb7A5n6WyFyWLLwfqUyCI5HaGJp4Wiusz6b+YSiXcwW/6tHVvy/2HKGaaQGFFgQCuzuXWyPIx0/suqbZKIgTi+3+UdP3jKv//kaSoiB/mC6fR3htctAqQW5ERSc1PjSDSsX2cq72NViAXfX9JjzJeqyIuU8y05njsHo52TM5szIm7h1pXSQ6c26IU1lpvqKV5chdQSH4/H7mmQD4wGnyyOqMMAKgYkkcm4zUPSjsm5Pz5efBC0Fmb165p62djkAph3O77qt3HqAoJyTIUt0zxaStdqsoyB9WLAzSSB1J2W7x4IDi+3UYi4NztKGybiV5Dj3/NtbA6sxeDi8LVi8FFKay13ljL2KPMfGMfQagE0bB4AyZpkizLHAB5Q2ertT8oj1oOhX14VJ8yGr4v62Tmt4wP2NaSve0PXuFCu52OZe2aS28n8xY/7NIXg7a0WiZZXYx2yV6yQjPyr8EuoMzOAKZdbj9jS8YHbM0P22uZ0lla3GZqukNmhWVjID+qUE9wtRhpoZhJVgdDTUnyKkGBlvn5IWVCkCWaSTYVaN1JsUxJrqyRwZ6Fq7ry6oosMkz1q5GK0uAPBYEBndeAI4v3G8OurEjcOBO/ihv7rqN2N4P2JZtj7TuH7U9Z5/45lj7VY326bWFcq5Ql70NFDKkEr93JC/cPjf6tqxayVi6ciXs84X+300kIZNZyUI2fXbDeNe6Kageb+N6SPONg9Qe5EDzTsAx+8ap6lNFmGJEAEKjhxsm2EoNK6E9hQ615IcagkLg+GvmEaLkrPPwsXXdvY/Jm46X3Gq3OZNZRzhvN12vqpbt8LotCIBKal9tKmY+I1P/4LfpKeWNQTSoNHaCRPCWJY4jZrU+rK5T1dQZdXhFJF932JEVDg03NLmLH0GB/ChtrVVV0BGXmGxLLzqm5kyrqS9z8pWI0LMoiRRdB18NcO/IH5FHLp3BRHtWnDJPxNz5gTSqZZA1eodaYwbFc1dHRo1oVtvlha4H6vklbJln1+n1uLVmhGfmqpp5AaZFw45dUly53OL4E4wNWR9Ohlp7V8XPZ4jZGVVgAKFW1oPpKK4V1PWTLXR2by/iGfmOhVFUOl0vDtOsxK2mSVYtEOvYAAHBcOnEe49vNgJE8v7lM7Q5Za2GsdqsbQgRAFNLWMcybEjn34+zMlngy5nftJdRjc4ktFebJcHVBG2SfdVrOScavpny/sjFlpPhESbQ63tIjMJGmM1oY5LndW745Hv0oO/qINrOirstlvZR1D0MJQF5XlhiCTde/uwEA6omJ6f9X5G4bD7xSX5dj1CGzdCgXLszIM1ZLjISsXD4zmVzNuH9s04yKJB3RdQKkFCHgSCZCV9uj7I85Uu8uE4QkjKvKcRl+o2y920H3fp9Ei6b+ZBBi/pK8MsmxcZJUVPGEbPIjCrvT3nRbnCcbuYUXnxuZuNvaRLBFQNfd/hSa1DJpESrlLXNzF0rsAwH3rCIcOx+8ENQsQwnG5M3Gq9oYVArn5+Q3vK6DnUgsCtRyKCQVaUSFApLDpdzFqZzqHNnZ9nusBZqJA5iQVxjLHiJ/TjI/6bHGCXWkmDq/TLwW0GJEE4O1phcFysRgfwpNatUUtm+Y+QbjfNSauSoWiwe8L9AgWExeWqKeCXHaFWpjZ5tvYoAetRwK+/CoPmW0E9dTUDeGAIBFedTAFZody3ov2j/780OTtkSTk57e/KJADVyhYPKFqCts/zQ7A3TrcsfjSzU5YKvNd6zVLqwhZRniNls++k+xvKMaJwF+8k4eFm2Bz4Wc1fsrqd3BcCWd3MRHLpBVQJAx7cmrsBpOmWQ1CG7fhNYdAW4NP3OxoKiUZfdwaId2dyqAcvba6eSJisJWlYxO790EiazN/+URZwqyO0MhgU9+YibjV2HKYn00NPyLhfVDcMYzcgvkL87GbkyqEJJJ1vYTztHWLIy4h39UnroymtoT9u4hAFDKG1PpoKyygOBZ630jvper8VJDxbY7Qxvy2jfpYuy2aMGiRZzohJn9Z0NwYGjsZg+DCFKS0ltjSZ+CVILeZ/Pe4nPPP3Kz3UhDCvmiP3Qnn/h4dPpy7cmltvtD/md6GP3BykAEoYqZrdmkT1ERQUUttp+EvI833U+KwoJgg9zrPS/nGqxC0BdeUsifW1YoULo0UrpUh64/D7lP8gCA0WzmZOj4tqPjWsPFgVoOhZYSf1OsYAVEmuFe8IYfdGk3vpj/mTmAMXlEOb8fUi/jU1+YjNkATDPc8/7R+x3Vq/mD9qiBK4TG/TJnZZxLPRMcBUl+U3T6MhXkGW7XcOhnC3NvXZxtgB5lLE+LH/tT2IdH9SsDGJ03VNCFIQCLO/QGrpAwO9sYt2bqh0Y0TNqa6i5jkaAGrbC/O95MzgCmZ1GNvMHxZXI4mNQyHkoA165da5KNszCBd5iAuHl66mw2dF3A2u1+lHdY2EprDoPqcUQwKAyqRwI9FsMehUH1SGCZirXOCS1TM9gsJtATAagIx4nMLlf1ok9PNY7SQhhUjwOPQWFQPRLosRj2KAyqRwLLVgzPty0bWmwYE8AEMAFMABPABDCBgRLA820DxYmNYQKYACaACWACmAAmsGwEcNy2bGixYUwAE8AEMAFMABPABAZKAMdtA8WJjWECmAAmgAlgApgAJrBsBHDctmxosWFMABPABDABTAATwAQGSgDHbQPFiY1hApgAJoAJYAKYACawbARw3LZsaLFhTAATwAQwAUwAE8AEBkrgCInb0DGp6R/sj6zXX7c5MEZIuGRy79dT4hHCaWBcsCFMABPABDABTAATeOcJ9PCmo86iUPmKyZmPNcVJ8NXAMf/gqr58pnOd5UuFFZKOMmT+iAqv0FA597F05qwSeio8cW+H9z6pa5MzN6TE3w8f+03nEntu1pZdyF2Qyp5aFr0KUhjPV8e9PbxWy8SgURZay09+JS3VeqK/J2opbmPUlvZm5o54PdnZW+MlurlNmfNfG3bHmxNb9gi5tIlPrS9VvNprxKz/7fXvtFL6S9Y7twUAYMX8xXz6j8qiHRAxi/1Rr+9pC1F97Rtyl3MXpDXsbkQkLbZHfb7H9BertzSNdzEBTAATwASOGgJ9x20aITjlGbnNSdfe+16mDknQpkmZcwW/7DqSRk09KTH92Tx82cnOlSodO2YrJbfl4dSSRnDesFlbtlLixrlC1jV0l4eLUASBQLbTO86bFZoYNMkCLlkp2gNf83Lz4Q6CZKx7W80tN+2ZtGWYlXMErudQvVkknxGLnMaymSbL7TvSOdG5zch5R2h4D6kem41vm4sKY+FfMgAAw7agUrhqNr7K6vuXMVscyO/OJq6IRNXx0H9RACDhXD4zzLnv9FiSUH5POnFZJJ6dGHmObG8ap2ACmAAmgAkcPQSW9q0vkvQMw6jNuAgxfcM0v04FEDIPhwKFTHxTSbIQ3D1jo0/QAKji6ankpnwprIASzf3a67vPzojzFkyympuo76HK1umZC4TqFy3kfjgRflSfKoFS+qap8vNBblU6925RtgHqLZfvDq8tVa1MyqWNydT6ouBFkGdtT3m9j3DUfEdYIfenfPqDFckC6dddrkT9O9xMPFQrG3j+vIIQUFGFZA7aPNsDjoYZGnRCYuq6Ivev44H/rU0o1bvRvkW84Rm53svEUO7zmQ5xG1QKfxYvveX3iYm54fbai0sxbgsJH+VzBe/YN9yMPnXUi2ljg8AkS/EoIMFxU20e1UuTncqYtGWYpRD0jBZsLfzRldz7JfY/R7gFF9XTWz+RFJbQ296h31anxPgh95mZREhGgIHAuMuWcv4UZL8t4HpD8zHqWf+IRZw8Lys842UVaPnp2ITeCjvpk06ZTB0voOesje6o5+NPTAATwAQwgaOFwNLito6UVMbzldUeWilsm4x+OBafdAWuD7KyrChaRCV/KDb7Kcn2w5Hxl2noK6aujkVoYvwuK2Ga1bGdaiK0/HR8zf1IdRYTt0Sbrtpq2ah0CU99LzT+PRraKskvzcQuZ1fdaicQqlwUmdtAur8fDu4l1DXZxNWRiHV07D4LBGrp8kj8A7Tn9jHXASh9kI9dJoKZhfZNxKOJdPyKEnNXaPgVClhkaZVCpZtVIwgUAFpi3OYiTXsSxUQBgArqFObJZ8QTx9iDN1rB1tpsZ1Ptxe0YtUWIxVMl7td06dMzc++RVImyPO/x/qwWZxs3YmQQAGCYhRSPjEYykdsyKgGpWavj5173q9SSwhTDtkxkNHVKOSWdc9gCu/QfA02ZjTvQ8ryN2lYseR0OHqKhYnGMtj+hX9o2kkGoiIBEuW6HjNMwKAgWwBbridoWoSp2QObxZFszFryHCWACmMDRR2BJcRtazU/ey+vQIHfvRPgR/RtOIggRII5x/9sQp01xMVr4QQrZzUXyl+P+Xdo8BMg6fQ8WD1yVK/3YapeNswS9BaNPFRIFAnYMid52Dz1PQwRAweJ4gUl/uCISdgtVym4Q2QcnvC9W1b7oDTxUnrwwU3w4aEel3OkK+/NR70vapAv1uN9zSjFhrTZsIl4AgAAIQDJB00kSAIqebdUK3/BNfNrXmtrLflvkgkKZ2J/Izm8FuTIot+X2YtKwTIs1WhKCqLIhQ/1iKLiTht5S6spYxA7Hf2CbX4NlaKeW0WKwlq5dZW/c0fbZR4KhNxGZJKFFKm/g+c/NyreM+V/rFLe2VO2629pWQwWTLELMbSySu8K2fEN5g03iVX/47kTkpuniS4z0LsV2e3jozTblLW2VOesBNX1uznXAxZSBGiymthRUglE5AJrjNvn0VM7HunezLQYMtOBkTAATwAQwgSOWwJLiNjjdtL4NZlqtwWkr17gwiBOEIBI3T+8/XwdKIJWyyA4AKsZZXeM23Vj7JznH1JbcQQkCEmnTUx5R5Chub10ttddCWUqiDwBZkhiS3adHn4hkD1Lg+KphE/ECgAfcgZ8JsWsPlt5yup5wOV9meo1s2kWbp9BC+uo0eiQ0tA8CMIjJNpPmWEUlAfvIcOCpKquoK/Af5YN/mSvda7OXtbnA7PUH4u9d0ADf9K+62U0tRVGBtf5+Xg3N3DGCRieT5xS9rznawh8TxYPMUk/MZEYtnu/q02ZabGnYZRQopC4qgrdd1j2wvDqd3Zpmb/UtXJQ3EqXSru8Ny9v46e08FADgbUO/44jViGh2eOUEfu7KMrsj7NbnfY3s4XRMABPABDCBI55APXbpp6sd17c1GhK0hez1P20bWneM+V9qmDhABJkGwGKcVa+/6C0oG1dpkLBQSE/R5udqf4qeaiJeuyRLcjtDE08LxfWZ9F9MpRLu4Dd91h7maWrt9LiBVudya2T5mOl9l1RraJFofP+Pkq5/XOV/TZfao62uxSSCUAkiUb88B5M0SZZlDoCy1mXH9nGO060IZC1E1pOW8IkoZppAYUWBoMmFlmBycVWhnD8/D14IOmsTytVR7txlKGW3xYsHguPbbSQCzt2OwraZ6DX0+Ndc9bt2OjUP43bfV+0+RlVISJahuGWKT1vpUq0okt/PR64pkA+MBp+sTlHXcvAGJoAJYAKYwFFJYGlx22KRVVg2BvKjCvUE1xpimGQttpWu5VMsU5Ira2SwZ2FeTV5dkUWG4QFQGVpQhLAC3qiSgaoU1kO/HhTCHGvfOWx/yjr3z7H0qR7r0/WIp6uoHgvA/UOjf+uqBZaVC2fiHk/43+10spVojwbNigksO6fmTqqoL3Hzk15oWJRFitav4hE807CG38zSovOgIoZUgj9kdyij1ZnMOsp5o7UlauzcZVISxxCzW39Oh0JZX2fQ5RWRdNG6+5gREAnNUWylzEdE6n/8loVbQJC4Phr5hGi5Kzz8LL0Mo2umCOdhApgAJoAJrEwCy3YNilEVFgBKVS21GAMAhXU9ZEPrY3NbCpWgLAfEysnZ1HklbUrLJKsrOYhUu4oIgDhV1a9wmlUSOffjrLAlnjxZlJ2y+L5UfEuFedJtKwMgcM7nqMoF8czxkuKUKusTqeN1/aYK1XW59B+VhICsuGTh+LLEEFS66atWPTExecfB+EkdV+GZiW3NE0k6wjAL/2i6CEGFZCI02XhxzZONbN938JMlXXqrjV73Vcb5qFU9Kxb7WEn0S+KJmdilJeoZF9fYVq+2upWDcuEiPnNaqbJKEN5VzHw6klzNuB6zNTnooPrVTQuASuH8nPyG23WwaRAN6ymMZQ9ROSeZXy0pDkU6Lpc4v0y8ZtUjMMN6gFSksCT7xcofZOJ/F82pTv/O6k8aqJQvnJ35VIV+2OeeVYRjKxXtnyizxqZwDiaACWACmMBRQGAZ5tts+eg/xfIOVF14zk/eycOiLfC5kLN6fyW1OxiupJOb+MgFsgoIMsZan/bOX5c0yTIcCChnPz+VeK+C5ie2LpnadzGABZv/iyHX/PM+OteE7M5QSOCTn5jJ+FWYslgfDQ3/Yn4ZE2G9NzSsJlJ/M8lbCPoVt+8+a/SMBSumCpXyxlQ6KKssIHjWet+I7+WmkEO7yNaa0FncQipdjN0WLVgAohA6YWb/2RAcGBq72dP61JVONlBYEGyQe71hYVanYvU047aoZ4KjIMlvik5fpoI8w+0aDv1sYe6tXr19y9ggMMpCBClJ6a2xpE9BKkHvs3lv8bmbH/A7wH4ZypiPq0ezmZOh49uOXpfrIcr5/ZB6GZ/6wmTMBmCa4Z73j97vWLhwbNRlFQBLib8pVrACIs1wL3jDD7osuSpNUsifW1YoULo0UrpU5zuIBxHrtvAnJoAJYAKYwGFJAK5du/awFI5FGxMQN09Pnc2GrgtYl2NizLjd5c45Uvu13NywfUwAE8AEMIEjhsCipoCOmF4f0R2BinCcyOxanquZh5DckdqvQ4gUN40JYAKYACZwuBHA822H24hhvZgAJoAJYAKYACZwtBLA821H68jjfmMCmAAmgAlgApjA4UYAx22H24hhvZgAJoAJYAKYACZwtBLAcdvROvK435gAJoAJYAKYACZwuBHAcdvhNmJYLyaACWACmAAmgAkcrQRw3Ha0jjzuNyaACWACmAAmgAkcbgRw3Ha4jRjWiwlgApgAJoAJYAJHK4H/D1hMWIu9n4YCAAAAAElFTkSuQmCC;" vertex="1" parent="1">
          <mxGeometry x="120" y="390" width="829" height="185" as="geometry" />
        </mxCell>
      </root>
    </mxGraphModel>
  </diagram>
</mxfile>
